<svg width="34" height="34" viewBox="0 0 34 34" fill="none" xmlns="http://www.w3.org/2000/svg">
<g clip-path="url(#clip0_101_4932)">
<path d="M29.2641 23.6871C29.8867 22.1528 30.2307 20.4768 30.2307 18.7216C30.2307 11.4171 24.288 5.47449 16.9835 5.47449C9.67902 5.47449 3.73633 11.4172 3.73633 18.7217C3.73633 20.4768 4.08026 22.1528 4.70288 23.6872H29.2641V23.6871Z" fill="#FDB441"/>
<path d="M26.413 23.6866C27.1955 22.2038 27.6391 20.5144 27.6391 18.7212C27.6391 12.8362 22.8683 8.06543 16.9833 8.06543C11.0983 8.06543 6.32764 12.8362 6.32764 18.7212C6.32764 20.5144 6.77124 22.2038 7.55373 23.6866H26.413Z" fill="#FEDF30"/>
<path d="M18.6896 8.20105C18.1343 8.11174 17.564 8.06543 16.9834 8.06543C11.0984 8.06543 6.32764 12.8362 6.32764 18.7212C6.32764 20.5144 6.77124 22.2038 7.55373 23.6866H10.9644C10.1819 22.2038 9.73827 20.5144 9.73827 18.7212C9.73827 13.4167 13.6153 9.01736 18.6896 8.20105Z" fill="#FED402"/>
<path d="M12.5563 26.5963H4.90705C4.63176 26.5963 4.40869 26.3733 4.40869 26.098C4.40869 25.8227 4.63176 25.5996 4.90705 25.5996H12.5563C12.8315 25.5996 13.0546 25.8227 13.0546 26.098C13.0546 26.3733 12.8315 26.5963 12.5563 26.5963Z" fill="#A6E7F0"/>
<path d="M29.1261 26.5963H21.4769C21.2016 26.5963 20.9785 26.3733 20.9785 26.098C20.9785 25.8227 21.2016 25.5996 21.4769 25.5996H29.1261C29.4014 25.5996 29.6244 25.8227 29.6244 26.098C29.6244 26.3733 29.4014 26.5963 29.1261 26.5963Z" fill="#A6E7F0"/>
<path d="M22.2318 29.8942H11.7679C11.4926 29.8942 11.2695 29.6711 11.2695 29.3958C11.2695 29.1205 11.4926 28.8975 11.7679 28.8975H22.2319C22.5072 28.8975 22.7302 29.1205 22.7302 29.3958C22.7302 29.6711 22.5071 29.8942 22.2318 29.8942Z" fill="#A6E7F0"/>
<path d="M18.6695 33.193H15.3304C15.0551 33.193 14.832 32.9699 14.832 32.6946C14.832 32.4194 15.0551 32.1963 15.3304 32.1963H18.6695C18.9448 32.1963 19.1679 32.4194 19.1679 32.6946C19.1679 32.9699 18.9448 33.193 18.6695 33.193Z" fill="#D4F2F6"/>
<path d="M17.0164 3.70049C16.7411 3.70049 16.5181 3.47742 16.5181 3.20213V1.30598C16.5181 1.03068 16.7411 0.807617 17.0164 0.807617C17.2917 0.807617 17.5148 1.03068 17.5148 1.30598V3.20213C17.5148 3.47742 17.2917 3.70049 17.0164 3.70049Z" fill="#FEDBA6"/>
<path d="M2.03666 18.228H0.593085C0.317792 18.228 0.0947266 18.005 0.0947266 17.7297C0.0947266 17.4544 0.317792 17.2313 0.593085 17.2313H2.03673C2.31202 17.2313 2.53509 17.4544 2.53509 17.7297C2.53509 18.005 2.31196 18.228 2.03666 18.228Z" fill="#FEDBA6"/>
<path d="M33.4405 18.228H31.9969C31.7216 18.228 31.4985 18.005 31.4985 17.7297C31.4985 17.4544 31.7216 17.2313 31.9969 17.2313H33.4405C33.7158 17.2313 33.9389 17.4544 33.9389 17.7297C33.9389 18.005 33.7158 18.228 33.4405 18.228Z" fill="#FEDBA6"/>
<path d="M11.0282 4.84315C10.8378 4.84315 10.6559 4.73338 10.5731 4.54819L9.79994 2.82021C9.68751 2.56904 9.80007 2.27421 10.0513 2.16185C10.3024 2.04948 10.5974 2.16198 10.7097 2.41322L11.4828 4.14119C11.5952 4.39237 11.4827 4.6872 11.2314 4.79956C11.1654 4.82913 11.0962 4.84315 11.0282 4.84315Z" fill="#FEDBA6"/>
<path d="M3.32359 11.8263C3.25296 11.8263 3.18106 11.8111 3.11282 11.7792L1.80692 11.1687C1.55761 11.0521 1.44996 10.7555 1.56658 10.5061C1.68306 10.2568 1.97982 10.1492 2.22913 10.2658L3.53503 10.8763C3.78434 10.9929 3.89199 11.2895 3.77537 11.5389C3.69078 11.7199 3.51111 11.8263 3.32359 11.8263Z" fill="#FEDBA6"/>
<path d="M6.37782 7.49515C6.24951 7.49515 6.12133 7.44598 6.02392 7.34764L2.96134 4.25815C2.76758 4.06266 2.76891 3.74717 2.9644 3.55341C3.15989 3.35958 3.47545 3.36097 3.66914 3.55646L6.73172 6.64595C6.92548 6.84144 6.92415 7.15694 6.72866 7.3507C6.63145 7.44711 6.5046 7.49515 6.37782 7.49515Z" fill="#FEC165"/>
<path d="M23.0046 4.84306C22.9366 4.84306 22.8675 4.82904 22.8013 4.79948C22.5501 4.68711 22.4375 4.39228 22.55 4.14111L23.3231 2.41314C23.4354 2.16183 23.7306 2.04933 23.9815 2.16176C24.2327 2.27413 24.3453 2.56896 24.2328 2.82013L23.4597 4.5481C23.377 4.73323 23.195 4.84306 23.0046 4.84306Z" fill="#FEDBA6"/>
<path d="M30.7093 11.8263C30.5218 11.8263 30.3422 11.7199 30.2575 11.5389C30.1409 11.2895 30.2485 10.9929 30.4978 10.8764L31.8037 10.2659C32.0531 10.1491 32.3497 10.2569 32.4663 10.5062C32.5829 10.7556 32.4753 11.0522 32.2259 11.1687L30.92 11.7793C30.8518 11.8112 30.78 11.8263 30.7093 11.8263Z" fill="#FDB97E"/>
<path d="M27.6555 7.49518C27.5287 7.49518 27.4019 7.44707 27.3047 7.35072C27.1093 7.15696 27.1079 6.84146 27.3016 6.64597L30.3642 3.55649C30.558 3.36113 30.8735 3.35973 31.069 3.55343C31.2644 3.74719 31.2658 4.06268 31.072 4.25817L28.0094 7.34766C27.9121 7.44594 27.7838 7.49518 27.6555 7.49518Z" fill="#FEC165"/>
<path d="M20.4846 20.0666C20.8633 20.0666 21.0607 20.5171 20.8042 20.7956L18.135 23.6874H15.8319L13.1627 20.7956C12.9062 20.5171 13.1035 20.0666 13.4823 20.0666H15.297V15.4751C15.297 15.2578 15.4737 15.0811 15.691 15.0811H18.2094C18.4267 15.0811 18.6034 15.2578 18.6034 15.4751V20.0666H20.4846Z" fill="#F37C7C"/>
<path d="M33.5016 24.1862H0.498358C0.223065 24.1862 0 23.9631 0 23.6878C0 23.4125 0.223065 23.1895 0.498358 23.1895H33.5016C33.7769 23.1895 34 23.4125 34 23.6878C34 23.9631 33.7769 24.1862 33.5016 24.1862Z" fill="#6BD9E7"/>
</g>
<defs>
<clipPath id="clip0_101_4932">
<rect width="34" height="34" fill="white"/>
</clipPath>
</defs>
</svg>
