<svg width="44" height="44" viewBox="0 0 44 44" fill="none" xmlns="http://www.w3.org/2000/svg">
<path d="M39.5705 33.6747H4.42181C4.01848 33.6747 3.68848 33.3447 3.68848 32.9413C3.68848 32.538 4.01848 32.208 4.42181 32.208H39.5705C39.9738 32.208 40.3038 32.538 40.3038 32.9413C40.3038 33.3447 39.9811 33.6747 39.5705 33.6747Z" fill="#231F20"/>
<path d="M34.4152 28.8343C34.4152 30.2789 34.1732 31.6576 33.7185 32.9336H10.2738C9.81915 31.6576 9.57715 30.2789 9.57715 28.8343C9.57715 21.9703 15.1358 16.4189 21.9998 16.4189C28.8638 16.4189 34.4152 21.9703 34.4152 28.8343Z" fill="#F9D403"/>
<path d="M33.7184 33.6743H10.2737C9.96575 33.6743 9.68708 33.4763 9.58442 33.183C9.09308 31.8043 8.84375 30.3377 8.84375 28.8343C8.84375 21.5817 14.7471 15.6857 21.9997 15.6857C29.2524 15.6857 35.1484 21.5817 35.1484 28.8343C35.1484 30.3377 34.8991 31.8043 34.4077 33.183C34.3051 33.4763 34.0337 33.6743 33.7184 33.6743ZM10.8017 32.2077H33.1904C33.5204 31.1297 33.6817 30.0003 33.6817 28.8417C33.6817 22.403 28.4384 17.1597 21.9997 17.1597C15.5537 17.1597 10.3104 22.403 10.3104 28.8417C10.3104 30.0003 10.4791 31.1297 10.8017 32.2077Z" fill="#231F20"/>
<path d="M21.9999 13.904C21.5966 13.904 21.2666 13.574 21.2666 13.1707V11.0587C21.2666 10.6553 21.5966 10.3253 21.9999 10.3253C22.4033 10.3253 22.7333 10.6553 22.7333 11.0587V13.1707C22.7333 13.574 22.4033 13.904 21.9999 13.904Z" fill="#231F20"/>
<path d="M14.2561 15.9794C13.9994 15.9794 13.7574 15.8474 13.6181 15.6127L12.5621 13.7867C12.3567 13.4347 12.4814 12.9874 12.8334 12.782C13.1854 12.5767 13.6327 12.7014 13.8381 13.0534L14.8941 14.8794C15.0994 15.2314 14.9747 15.6787 14.6227 15.884C14.5054 15.95 14.3807 15.9794 14.2561 15.9794Z" fill="#231F20"/>
<path d="M8.58725 21.6484C8.46258 21.6484 8.33791 21.619 8.22058 21.553L6.39458 20.497C6.04258 20.2917 5.92525 19.8444 6.12325 19.4924C6.32858 19.1404 6.77591 19.023 7.12791 19.221L8.95391 20.277C9.30591 20.4824 9.42325 20.9297 9.22525 21.2817C9.08591 21.5164 8.83658 21.6484 8.58725 21.6484Z" fill="#231F20"/>
<path d="M6.51184 29.3916H4.39984C3.9965 29.3916 3.6665 29.0616 3.6665 28.6583C3.6665 28.2549 3.9965 27.9249 4.39984 27.9249H6.51184C6.91517 27.9249 7.24517 28.2549 7.24517 28.6583C7.24517 29.0616 6.91517 29.3916 6.51184 29.3916Z" fill="#231F20"/>
<path d="M39.5997 29.3916H37.4877C37.0844 29.3916 36.7544 29.0616 36.7544 28.6583C36.7544 28.2549 37.0844 27.9249 37.4877 27.9249H39.5997C40.0031 27.9249 40.3331 28.2549 40.3331 28.6583C40.3331 29.0616 40.0031 29.3916 39.5997 29.3916Z" fill="#231F20"/>
<path d="M35.4125 21.6477C35.1558 21.6477 34.9138 21.5157 34.7745 21.281C34.5691 20.929 34.6938 20.4817 35.0458 20.2764L36.8718 19.2204C37.2238 19.015 37.6711 19.1397 37.8765 19.4917C38.0818 19.8437 37.9571 20.291 37.6051 20.4964L35.7791 21.5524C35.6691 21.6184 35.5371 21.6477 35.4125 21.6477Z" fill="#231F20"/>
<path d="M29.7437 15.9789C29.619 15.9789 29.4943 15.9496 29.377 15.8836C29.025 15.6782 28.9077 15.2309 29.1057 14.8789L30.1617 13.0529C30.367 12.7009 30.8143 12.5836 31.1663 12.7816C31.5183 12.9869 31.6357 13.4342 31.4377 13.7862L30.3817 15.6122C30.2423 15.8469 30.0003 15.9789 29.7437 15.9789Z" fill="#231F20"/>
</svg>
