<svg width="45" height="53" viewBox="0 0 45 53" fill="none" xmlns="http://www.w3.org/2000/svg">
<path d="M41.2735 48.0243L22.1172 50.512L2.96094 48.0243V44.802C2.96094 43.8338 3.74583 43.049 4.71403 43.049H39.5204C40.4886 43.049 41.2735 43.8338 41.2735 44.802V48.0243Z" fill="#606060"/>
<path d="M36.057 41.4508H8.17725V14.305C8.17725 6.60637 14.4184 0.365234 22.1171 0.365234C29.8159 0.365234 36.057 6.60637 36.057 14.305V41.4508Z" fill="#B5ADB6"/>
<path d="M41.273 44.8019V48.0236H39.1227V44.8019C39.1227 43.8332 38.3374 43.0479 37.3687 43.0479H39.52C40.4888 43.0479 41.273 43.8332 41.273 44.8019Z" fill="#554E56"/>
<path d="M36.0565 14.3048V42.9946H33.9051V14.3048C33.9051 10.4556 32.3451 6.971 29.8227 4.44762C27.5378 2.16273 24.4633 0.668398 21.0444 0.405533C21.3984 0.37901 21.7566 0.365234 22.117 0.365234C25.9662 0.365234 29.4508 1.92526 31.973 4.44762C34.4964 6.971 36.0565 10.4556 36.0565 14.3048Z" fill="#A79BA7"/>
<path d="M37.6136 42.9944C38.1099 41.5626 37.7104 39.9121 36.4804 38.88C35.3689 37.9474 33.8779 37.7703 32.6239 38.289C32.4353 38.3671 32.2266 38.2466 32.1999 38.0442C32.0221 36.6989 31.1232 35.4961 29.7597 34.9999C28.3963 34.5037 26.9346 34.8472 25.9336 35.7635C25.783 35.9013 25.5458 35.8595 25.4514 35.6785C24.8242 34.4751 23.5682 33.6523 22.1172 33.6523C20.6663 33.6523 19.4102 34.4752 18.783 35.6785C18.6886 35.8595 18.4514 35.9013 18.3008 35.7635C17.2998 34.8472 15.8381 34.5037 14.4747 34.9999C13.1112 35.4961 12.2123 36.6989 12.0346 38.0442C12.0078 38.2466 11.7991 38.3671 11.6104 38.289C10.3564 37.7704 8.86537 37.9474 7.75387 38.88C6.52394 39.9121 6.12445 41.5626 6.62068 42.9944H37.6136Z" fill="#80D261"/>
<path d="M36.4806 38.8792C35.3689 37.9466 33.8778 37.7696 32.624 38.2889C32.4354 38.3663 32.2266 38.2466 32.2001 38.0442C32.022 36.6983 31.1233 35.4954 29.7593 34.9994C28.3965 34.5033 26.9349 34.8467 25.9334 35.7635C25.7829 35.9012 25.5456 35.8589 25.4512 35.6777C24.8238 34.4748 23.568 33.6523 22.1171 33.6523C20.7277 33.6523 19.5174 34.4069 18.8667 35.5272C19.2991 35.3661 19.7763 35.3756 20.255 35.2781C22.3409 34.8531 24.3157 36.3699 24.9813 37.6469C25.0819 37.8388 25.3332 37.8833 25.4931 37.737C26.5561 36.7651 28.0082 36.6303 29.053 37.0355C30.4893 37.5923 30.7661 38.5115 30.9547 39.939C30.9823 40.153 31.2038 40.2813 31.4041 40.1987C32.7351 39.6487 34.0718 39.6461 35.2513 40.636C35.9456 41.2179 36.2577 41.7948 36.2913 42.9945H37.6134C38.1096 41.5627 37.7111 39.9115 36.4806 38.8792Z" fill="#68CA44"/>
<path d="M44.2342 52.9997H0V49.7775C0 48.8093 0.784896 48.0244 1.75309 48.0244H42.4811C43.4493 48.0244 44.2342 48.8093 44.2342 49.7775V52.9997Z" fill="#B5ADB6"/>
<path d="M44.2343 49.7773V53.0001H42.083V49.7773C42.083 48.8097 41.2987 48.0244 40.3301 48.0244H42.4814C43.45 48.0244 44.2343 48.8097 44.2343 49.7773Z" fill="#A79BA7"/>
<path d="M27.9525 17.8284C26.804 19.6873 24.7183 20.9058 22.3543 20.8258C19.0582 20.7143 16.3728 18.0306 16.2592 14.7346C16.1777 12.3693 17.3966 10.282 19.2561 9.13244C19.3918 9.04856 19.5548 9.18868 19.4938 9.3361C19.1559 10.1529 18.9844 11.0558 19.0213 12.0028C19.1488 15.2759 21.8116 17.9376 25.0847 18.0638C26.0308 18.1003 26.9328 17.9288 27.7488 17.5909C27.8961 17.5298 28.0364 17.6927 27.9525 17.8284Z" fill="#FEE45A"/>
<path d="M27.953 17.8281C27.6199 18.3668 27.2087 18.852 26.7337 19.2673C26.008 19.4812 25.2349 19.583 24.433 19.5521C20.7373 19.4092 17.7303 16.4043 17.5864 12.7086C17.5535 11.8419 17.6738 11.0092 17.9236 10.2341C18.3142 9.80851 18.7635 9.43739 19.2569 9.13207C19.3926 9.0488 19.555 9.18861 19.4944 9.33561C19.1562 10.1529 18.9845 11.0555 19.0215 12.0023C19.149 15.2755 21.8116 17.9371 25.0848 18.0635C26.0316 18.1005 26.9332 17.9289 27.7494 17.5906C27.8964 17.53 28.0362 17.6924 27.953 17.8281Z" fill="#FED402"/>
<path d="M23.6182 13.8516C24.044 13.8516 24.3892 13.5064 24.3892 13.0806C24.3892 12.6548 24.044 12.3096 23.6182 12.3096C23.1924 12.3096 22.8472 12.6548 22.8472 13.0806C22.8472 13.5064 23.1924 13.8516 23.6182 13.8516Z" fill="#FEE45A"/>
<path d="M12.854 26.0791H31.381C31.8069 26.0791 32.152 25.7339 32.152 25.3081C32.152 24.8823 31.8069 24.5371 31.381 24.5371H12.854C12.4282 24.5371 12.083 24.8823 12.083 25.3081C12.083 25.7339 12.4282 26.0791 12.854 26.0791Z" fill="#606060"/>
<path d="M31.3809 28.4248H12.854C12.4282 28.4248 12.083 28.77 12.083 29.1958C12.083 29.6216 12.4282 29.9668 12.854 29.9668H31.381C31.8069 29.9668 32.152 29.6216 32.152 29.1958C32.152 28.77 31.8068 28.4248 31.3809 28.4248Z" fill="#606060"/>
</svg>
