<svg width="56" height="56" viewBox="0 0 56 56" fill="none" xmlns="http://www.w3.org/2000/svg">
<path d="M7.4668 37.333L8.31426 40.511C9.14183 43.6147 10.9713 46.3582 13.5185 48.3152C16.0657 50.2722 19.188 51.3331 22.4001 51.333C25.6123 51.3331 28.7345 50.2722 31.2817 48.3152C33.8289 46.3582 35.6584 43.6147 36.486 40.511L37.3335 37.333H7.4668Z" fill="#93BC62"/>
<path d="M34.7657 42.9336C34.3996 42.9334 34.0376 43.0116 33.7042 43.1629C33.3708 43.3142 33.0737 43.5352 32.8328 43.8109L26.9369 48.7865C26.8002 48.4371 26.5613 48.1371 26.2515 47.9255C25.9416 47.7139 25.5752 47.6005 25.2 47.6003H18.6667C18.3862 47.0394 17.9551 46.5676 17.4217 46.2379C16.8882 45.9082 16.2735 45.7336 15.6464 45.7336H14.4387C12.3648 45.7337 10.376 46.5575 8.9096 48.024L7.46667 49.4669H0V56.0003H26.1333C27.0147 56.0004 27.8862 55.8151 28.6913 55.4566C29.4964 55.098 30.2171 54.5741 30.8065 53.9189L36.6744 47.3996C37.0985 46.9277 37.3332 46.3158 37.3333 45.6813V45.5012C37.3333 44.8202 37.0628 44.1671 36.5813 43.6856C36.0998 43.2041 35.4467 42.9336 34.7657 42.9336Z" fill="#DDAF82"/>
<path d="M0.933105 49.4657C0.933105 50.9509 1.5231 52.3753 2.57331 53.4255C3.62351 54.4757 5.04789 55.0657 6.53311 55.0657H27.0664C28.5426 55.0634 29.9707 54.5413 31.1003 53.5911L36.6742 47.3984C37.0983 46.9265 37.333 46.3146 37.3331 45.6801V45.6101C37.3445 45.0922 37.2039 44.5824 36.9287 44.1435C36.6535 43.7046 36.2558 43.3559 35.7847 43.1405C35.285 42.9259 34.7302 42.8751 34.1999 42.9953C33.6695 43.1156 33.1909 43.4006 32.8326 43.8097L26.9367 48.7853C26.7999 48.4359 26.5611 48.1359 26.2512 47.9243C25.9414 47.7126 25.575 47.5993 25.1998 47.5991H18.6664C18.386 47.0382 17.9549 46.5664 17.4214 46.2367C16.888 45.907 16.2733 45.7324 15.6462 45.7324H14.4384C12.3646 45.7325 10.3758 46.5563 8.90937 48.0228L8.39977 48.5324L7.46644 49.4657H0.933105Z" fill="#F0C8A0"/>
<path d="M37.3329 14L29.3996 17.1733C28.9864 17.3372 28.632 17.6215 28.3823 17.9893C28.1327 18.3571 27.9994 18.7915 27.9996 19.236C27.9981 19.2922 28.0012 19.3484 28.0089 19.404L22.9036 23.9867C22.5733 24.1727 22.2001 24.2692 21.8209 24.2667C21.2321 24.2652 20.6678 24.0306 20.2515 23.6141C19.8352 23.1976 19.6008 22.6332 19.5996 22.0444V21.6337L27.9996 14H37.3329Z" fill="#DDAF82"/>
<path d="M22.4001 39.1992C30.6476 39.1992 37.3335 38.3634 37.3335 37.3325C37.3335 36.3016 30.6476 35.4658 22.4001 35.4658C14.1527 35.4658 7.4668 36.3016 7.4668 37.3325C7.4668 38.3634 14.1527 39.1992 22.4001 39.1992Z" fill="#AFD485"/>
<path d="M41.9998 19.6002L51.3331 11.2002L48.5331 3.73357L42.9331 6.53357H32.5918C30.2406 6.53366 27.977 7.42595 26.2582 9.03023L15.5043 19.9502C15.1374 20.3226 14.9321 20.8247 14.9331 21.3474C14.9331 21.8742 15.1424 22.3794 15.5148 22.7518C15.8873 23.1243 16.3925 23.3336 16.9192 23.3336H16.965C17.4592 23.3337 17.9357 23.1497 18.3015 22.8174L27.9998 14.0002H37.3331L29.3998 17.1736C28.9868 17.3389 28.6327 17.624 28.3832 17.9923C28.1337 18.3606 28.0002 18.7951 27.9998 19.24C28 19.8303 28.2346 20.3965 28.652 20.814C29.0693 21.2316 29.6354 21.4664 30.2258 21.4669L41.9998 19.6002Z" fill="#F0C8A0"/>
<path d="M51.3329 11.2L52.2663 14L55.9996 12.1333L52.2663 0L47.5996 1.86667L48.5329 3.73333L51.3329 11.2Z" fill="#3648BB"/>
<path d="M28.0004 32.6659C30.0623 32.6659 31.7338 30.9944 31.7338 28.9326C31.7338 26.8707 30.0623 25.1992 28.0004 25.1992C25.9386 25.1992 24.2671 26.8707 24.2671 28.9326C24.2671 30.9944 25.9386 32.6659 28.0004 32.6659Z" fill="#F6B94D"/>
<path d="M22.4003 39.2002C30.3777 39.2002 36.8446 38.5734 36.8446 37.8002C36.8446 37.027 30.3777 36.4002 22.4003 36.4002C14.423 36.4002 7.95605 37.027 7.95605 37.8002C7.95605 38.5734 14.423 39.2002 22.4003 39.2002Z" fill="#87A067"/>
<path d="M25.1998 52.2673H18.6665V50.4006H25.1998C25.4474 50.4006 25.6848 50.3023 25.8598 50.1272C26.0348 49.9522 26.1332 49.7148 26.1332 49.4673C26.1339 49.3513 26.1123 49.2363 26.0697 49.1285L27.8066 48.4443C27.9351 48.77 28.0007 49.1171 27.9998 49.4673C27.9998 50.2099 27.7048 50.9221 27.1797 51.4472C26.6546 51.9723 25.9424 52.2673 25.1998 52.2673Z" fill="#DDAF82"/>
</svg>
