<svg width="30" height="30" viewBox="0 0 30 30" fill="none" xmlns="http://www.w3.org/2000/svg">
<g clip-path="url(#clip0_101_4990)">
<path d="M16.1564 29.5312C7.50609 29.5312 0.46875 22.8178 0.46875 14.5655C0.46875 8.25375 4.65188 2.58891 10.8783 0.46875C9.36954 2.79833 8.56637 5.51437 8.56547 8.28984C8.56547 16.5398 15.6028 23.2552 24.2531 23.2552C26.0484 23.2589 27.8319 22.9654 29.5312 22.3866C28.082 24.6056 26.0968 26.4235 23.7591 27.6723C21.4214 28.9211 18.8066 29.5604 16.1564 29.5312Z" fill="#FFD747"/>
<path d="M17.5781 13.8281C17.5781 13.2065 17.3312 12.6104 16.8917 12.1708C16.4521 11.7313 15.856 11.4844 15.2344 11.4844C15.8557 11.4836 16.4515 11.2365 16.8908 10.7971C17.3302 10.3577 17.5774 9.762 17.5781 9.14062C17.5789 9.762 17.826 10.3577 18.2654 10.7971C18.7048 11.2365 19.3005 11.4836 19.9219 11.4844C19.3005 11.4851 18.7048 11.7323 18.2654 12.1717C17.826 12.611 17.5789 13.2068 17.5781 13.8281Z" fill="#FFD747"/>
<path d="M24.375 10.7812C24.375 10.1596 24.1281 9.56351 23.6885 9.12397C23.249 8.68443 22.6529 8.4375 22.0312 8.4375C22.6526 8.43676 23.2483 8.18959 23.6877 7.75021C24.1271 7.31083 24.3743 6.71512 24.375 6.09375C24.3757 6.71512 24.6229 7.31083 25.0623 7.75021C25.5017 8.18959 26.0974 8.43676 26.7188 8.4375C26.0974 8.43824 25.5017 8.68541 25.0623 9.12479C24.6229 9.56417 24.3757 10.1599 24.375 10.7812Z" fill="#FFD747"/>
<path d="M22.0312 19.6875C22.0312 19.0659 21.7843 18.4698 21.3448 18.0302C20.9052 17.5907 20.3091 17.3438 19.6875 17.3438C20.3089 17.343 20.9046 17.0958 21.344 16.6565C21.7833 16.2171 22.0305 15.6214 22.0312 15C22.032 15.6214 22.2792 16.2171 22.7185 16.6565C23.1579 17.0958 23.7536 17.343 24.375 17.3438C23.7536 17.3445 23.1579 17.5917 22.7185 18.031C22.2792 18.4704 22.032 19.0661 22.0312 19.6875Z" fill="#FFD747"/>
<path d="M29.9002 22.0981C29.8402 22.0215 29.7578 21.9654 29.6645 21.9377C29.5711 21.9099 29.4715 21.912 29.3794 21.9435C27.7289 22.5058 25.9967 22.7909 24.2531 22.7872C15.8625 22.7872 9.03422 16.2838 9.03422 8.29065C9.03511 5.60517 9.81224 2.9772 11.272 0.723146C11.3246 0.641377 11.3505 0.545282 11.346 0.448167C11.3416 0.351051 11.307 0.257721 11.2472 0.181098C11.1874 0.104476 11.1052 0.048354 11.0121 0.0205026C10.9189 -0.00734891 10.8194 -0.0055514 10.7273 0.0256462C4.3125 2.21049 0 8.05393 0 14.5658C0 23.0764 7.24781 30.0003 16.1564 30.0003C18.8851 30.0298 21.5772 29.371 23.9838 28.0847C26.3904 26.7984 28.434 24.9261 29.9255 22.641C29.9782 22.5591 30.004 22.4628 29.9995 22.3655C29.995 22.2682 29.9602 22.1748 29.9002 22.0981ZM16.1564 29.0628C7.76437 29.0628 0.9375 22.5594 0.9375 14.5658C0.974452 11.7465 1.83204 8.999 3.40541 6.65925C4.97879 4.3195 7.19978 2.48886 9.79688 1.39111C8.6792 3.51901 8.09527 5.88661 8.09531 8.29018C8.09531 16.8008 15.3431 23.7242 24.2517 23.7242C25.6385 23.726 27.0201 23.5568 28.3655 23.2203C26.9115 25.0616 25.0551 26.5455 22.9388 27.5582C20.8225 28.5709 18.5024 29.0856 16.1564 29.0628Z" fill="#2B2530"/>
<path d="M15.2344 11.9531C15.7317 11.9531 16.2086 12.1507 16.5602 12.5023C16.9118 12.8539 17.1094 13.3308 17.1094 13.8281C17.1094 13.9524 17.1588 14.0717 17.2467 14.1596C17.3346 14.2475 17.4538 14.2969 17.5781 14.2969C17.7024 14.2969 17.8217 14.2475 17.9096 14.1596C17.9975 14.0717 18.0469 13.9524 18.0469 13.8281C18.0469 13.3308 18.2444 12.8539 18.5961 12.5023C18.9477 12.1507 19.4246 11.9531 19.9219 11.9531C20.0462 11.9531 20.1654 11.9037 20.2533 11.8158C20.3412 11.7279 20.3906 11.6087 20.3906 11.4844C20.3906 11.3601 20.3412 11.2408 20.2533 11.1529C20.1654 11.065 20.0462 11.0156 19.9219 11.0156C19.4246 11.0156 18.9477 10.8181 18.5961 10.4664C18.2444 10.1148 18.0469 9.63791 18.0469 9.14062C18.0469 9.0163 17.9975 8.89708 17.9096 8.80917C17.8217 8.72126 17.7024 8.67188 17.5781 8.67188C17.4538 8.67188 17.3346 8.72126 17.2467 8.80917C17.1588 8.89708 17.1094 9.0163 17.1094 9.14062C17.1094 9.63791 16.9118 10.1148 16.5602 10.4664C16.2086 10.8181 15.7317 11.0156 15.2344 11.0156C15.1101 11.0156 14.9908 11.065 14.9029 11.1529C14.815 11.2408 14.7656 11.3601 14.7656 11.4844C14.7656 11.6087 14.815 11.7279 14.9029 11.8158C14.9908 11.9037 15.1101 11.9531 15.2344 11.9531ZM17.5781 10.6936C17.7866 11.0071 18.0554 11.2759 18.3689 11.4844C18.0554 11.6929 17.7866 11.9617 17.5781 12.2752C17.3696 11.9617 17.1008 11.6929 16.7873 11.4844C17.1008 11.2759 17.3696 11.0071 17.5781 10.6936Z" fill="#2B2530"/>
<path d="M22.0312 8.90625C22.5285 8.90625 23.0054 9.10379 23.3571 9.45543C23.7087 9.80706 23.9062 10.284 23.9062 10.7812C23.9062 10.9056 23.9556 11.0248 24.0435 11.1127C24.1315 11.2006 24.2507 11.25 24.375 11.25C24.4993 11.25 24.6185 11.2006 24.7065 11.1127C24.7944 11.0248 24.8438 10.9056 24.8438 10.7812C24.8438 10.284 25.0413 9.80706 25.3929 9.45543C25.7446 9.10379 26.2215 8.90625 26.7188 8.90625C26.8431 8.90625 26.9623 8.85686 27.0502 8.76896C27.1381 8.68105 27.1875 8.56182 27.1875 8.4375C27.1875 8.31318 27.1381 8.19395 27.0502 8.10604C26.9623 8.01814 26.8431 7.96875 26.7188 7.96875C26.2215 7.96875 25.7446 7.77121 25.3929 7.41958C25.0413 7.06794 24.8438 6.59103 24.8438 6.09375C24.8438 5.96943 24.7944 5.8502 24.7065 5.76229C24.6185 5.67439 24.4993 5.625 24.375 5.625C24.2507 5.625 24.1315 5.67439 24.0435 5.76229C23.9556 5.8502 23.9062 5.96943 23.9062 6.09375C23.9062 6.59103 23.7087 7.06794 23.3571 7.41958C23.0054 7.77121 22.5285 7.96875 22.0312 7.96875C21.9069 7.96875 21.7877 8.01814 21.6998 8.10604C21.6119 8.19395 21.5625 8.31318 21.5625 8.4375C21.5625 8.56182 21.6119 8.68105 21.6998 8.76896C21.7877 8.85686 21.9069 8.90625 22.0312 8.90625ZM24.375 7.64672C24.5835 7.9602 24.8523 8.22902 25.1658 8.4375C24.8523 8.64598 24.5835 8.9148 24.375 9.22828C24.1665 8.9148 23.8977 8.64598 23.5842 8.4375C23.8977 8.22902 24.1665 7.9602 24.375 7.64672Z" fill="#2B2530"/>
<path d="M19.2188 17.3438C19.2188 17.4681 19.2681 17.5873 19.356 17.6752C19.444 17.7631 19.5632 17.8125 19.6875 17.8125C20.1848 17.8125 20.6617 18.01 21.0133 18.3617C21.365 18.7133 21.5625 19.1902 21.5625 19.6875C21.5625 19.8118 21.6119 19.931 21.6998 20.019C21.7877 20.1069 21.9069 20.1562 22.0312 20.1562C22.1556 20.1562 22.2748 20.1069 22.3627 20.019C22.4506 19.931 22.5 19.8118 22.5 19.6875C22.5 19.1902 22.6975 18.7133 23.0492 18.3617C23.4008 18.01 23.8777 17.8125 24.375 17.8125C24.4993 17.8125 24.6185 17.7631 24.7065 17.6752C24.7944 17.5873 24.8438 17.4681 24.8438 17.3438C24.8438 17.2194 24.7944 17.1002 24.7065 17.0123C24.6185 16.9244 24.4993 16.875 24.375 16.875C23.8777 16.875 23.4008 16.6775 23.0492 16.3258C22.6975 15.9742 22.5 15.4973 22.5 15C22.5 14.8757 22.4506 14.7565 22.3627 14.6685C22.2748 14.5806 22.1556 14.5312 22.0312 14.5312C21.9069 14.5312 21.7877 14.5806 21.6998 14.6685C21.6119 14.7565 21.5625 14.8757 21.5625 15C21.5625 15.4973 21.365 15.9742 21.0133 16.3258C20.6617 16.6775 20.1848 16.875 19.6875 16.875C19.5632 16.875 19.444 16.9244 19.356 17.0123C19.2681 17.1002 19.2188 17.2194 19.2188 17.3438ZM22.0312 16.553C22.2397 16.8664 22.5086 17.1353 22.822 17.3438C22.5086 17.5522 22.2397 17.8211 22.0312 18.1345C21.8228 17.8211 21.5539 17.5522 21.2405 17.3438C21.5539 17.1353 21.8228 16.8664 22.0312 16.553Z" fill="#2B2530"/>
</g>
<defs>
<clipPath id="clip0_101_4990">
<rect width="30" height="30" fill="white"/>
</clipPath>
</defs>
</svg>
