<svg width="36" height="36" viewBox="0 0 36 36" fill="none" xmlns="http://www.w3.org/2000/svg">
<path d="M30.3942 6.68727H29.8114C30.5686 6.17131 31.0697 5.30267 31.0697 4.319V2.86388C31.0697 2.09551 30.7542 1.37909 30.242 0.855687C29.726 0.332281 29.0096 0.00195312 28.2078 0.00195312C26.6265 0.00195312 25.3422 1.28628 25.3422 2.86388V4.319C25.3422 5.30267 25.8433 6.17131 26.6005 6.68727H26.014C24.5701 6.68727 23.3191 7.47793 22.6398 8.6435C22.0385 8.36513 21.3703 8.20545 20.665 8.20545H19.7148V8.16833C20.7245 7.57067 21.4074 6.47197 21.4074 5.21359V3.42814C21.4074 1.5387 19.8706 0.00195312 17.9776 0.00195312C16.0881 0.00195312 14.5514 1.5387 14.5514 3.42814V5.21359C14.5514 6.46824 15.2307 7.56695 16.2403 8.1646V8.20545H15.2901C14.5997 8.20545 13.9463 8.35761 13.3561 8.62494C12.6731 7.46682 11.4222 6.68727 9.98563 6.68727H9.39915C10.1601 6.17131 10.6575 5.30267 10.6575 4.319V2.86388C10.6575 1.28628 9.37313 0.00195312 7.79553 0.00195312C6.21793 0.00195312 4.93367 1.28635 4.93367 2.86388V4.319C4.93367 5.30267 5.43106 6.17131 6.19205 6.68727H5.60558C3.44523 6.68727 1.68945 8.44304 1.68945 10.6035V12.6117C1.68945 13.7846 2.4207 14.7906 3.45268 15.1989V23.1834C3.45268 23.7959 3.95007 24.297 4.56629 24.297H11.0251C11.6376 24.297 12.1387 23.7959 12.1387 23.1834V18.2094C12.3244 18.3281 12.5248 18.4284 12.7327 18.5063V33.2837C12.7327 33.8962 13.2338 34.3974 13.8463 34.3974H14.4068C14.3177 34.5161 14.2397 34.6423 14.1804 34.7834C14.0616 35.0544 14.0876 35.3625 14.2509 35.6074C14.4105 35.8524 14.6815 35.9972 14.9711 35.9972H16.6415C16.931 35.9972 17.2019 35.8524 17.3616 35.6074C17.525 35.3625 17.5509 35.0544 17.4359 34.7834C17.3728 34.6423 17.2948 34.5161 17.2095 34.3974H18.7499C18.6609 34.5161 18.5829 34.6423 18.5198 34.7834C18.4047 35.0544 18.4307 35.3625 18.5941 35.6112C18.7537 35.8524 19.0246 35.9972 19.3142 35.9972H20.9846C21.2742 35.9972 21.5451 35.8524 21.7048 35.6074C21.8681 35.3625 21.894 35.0544 21.779 34.7834C21.7159 34.6423 21.638 34.5161 21.5526 34.3974H22.1094C22.7255 34.3974 23.223 33.8962 23.223 33.2837V18.5062C23.4494 18.4209 23.6647 18.3132 23.8614 18.1833V23.1834C23.8614 23.7958 24.3626 24.297 24.9751 24.297H31.4376C32.0501 24.297 32.5512 23.7958 32.5512 23.1834V15.1989C33.5794 14.7906 34.3107 13.7846 34.3107 12.6116V10.6034C34.3103 8.44304 32.5545 6.68727 30.3942 6.68727ZM26.0846 4.319V3.23513H30.3274V4.319C30.3274 5.4883 29.3771 6.43857 28.2078 6.43857C27.0385 6.43857 26.0846 5.4883 26.0846 4.319ZM28.9465 7.08073V7.34799C28.9465 7.7563 28.6125 8.09042 28.2041 8.09042C27.7958 8.09042 27.4654 7.75637 27.4654 7.34799V7.08073C27.703 7.14388 27.9479 7.181 28.2078 7.181C28.464 7.18093 28.7089 7.14388 28.9465 7.08073ZM17.9813 0.744383C19.2879 0.744383 20.4497 1.70949 20.6354 3.05696H15.3198C15.5054 1.73178 16.6486 0.744383 17.9813 0.744383ZM15.2938 5.21359V3.79932H20.665V5.21359C20.665 6.69465 19.4623 7.90107 17.9776 7.90107C16.4965 7.90107 15.2938 6.69472 15.2938 5.21359ZM18.9724 8.495V8.93305C18.9724 9.47867 18.527 9.92417 17.9776 9.92417C17.4283 9.92417 16.9828 9.47874 16.9828 8.93305V8.495C17.2983 8.58781 17.6325 8.6435 17.9776 8.6435C18.3228 8.6435 18.6568 8.59154 18.9724 8.495ZM5.67603 4.319V3.23513H9.9151V4.319C9.9151 5.4883 8.96483 6.43857 7.7956 6.43857C6.62631 6.43857 5.67603 5.4883 5.67603 4.319ZM8.5343 7.08073V7.34799C8.5343 7.7563 8.20391 8.09042 7.7956 8.09042C7.3873 8.09042 7.05317 7.75637 7.05317 7.34799V7.08073C7.29076 7.14388 7.53945 7.181 7.7956 7.181C8.05175 7.18093 8.30045 7.14388 8.5343 7.08073ZM9.06137 14.4119C8.93143 14.5642 8.74215 14.6533 8.53796 14.6533H8.30783V13.2761H8.48227C8.84607 13.2761 9.16156 13.5211 9.21352 13.8477C9.24699 14.0556 9.19503 14.256 9.06137 14.4119ZM10.5684 14.6532H9.78896C9.94112 14.3748 10.0005 14.0519 9.94857 13.7289C9.9189 13.5656 9.86321 13.4097 9.78151 13.2687C10.2158 13.2687 10.3235 13.2798 10.5684 13.2204V14.6532ZM10.5981 12.4186C10.4794 12.4854 10.3494 12.5262 10.2084 12.5262C9.2915 12.53 8.03319 12.53 7.06801 12.5336H5.38648C4.92622 12.5336 4.55131 12.1587 4.55131 11.6984V10.247C4.55131 10.0429 4.38425 9.87587 4.18013 9.87587C3.97594 9.87587 3.80895 10.0429 3.80895 10.247V11.6984C3.80895 12.5707 4.51791 13.276 5.38655 13.276H7.56547V14.6532C7.52462 14.6532 4.47341 14.6532 4.47341 14.6532C3.34496 14.6532 2.43181 13.7363 2.43181 12.6116V10.6034C2.43181 8.85134 3.85353 7.42963 5.60558 7.42963H6.31827C6.36277 8.20918 7.00501 8.83278 7.7956 8.83278C8.5862 8.83278 9.2247 8.20918 9.26928 7.42963H9.98569C11.1402 7.42963 12.1498 8.05323 12.7029 8.98128C11.5521 9.73855 10.7503 10.982 10.5981 12.4186ZM22.4802 33.2837C22.4802 33.4879 22.3132 33.6549 22.109 33.6549H13.8461C13.6419 33.6549 13.475 33.4878 13.475 33.2837V18.6919C13.8424 18.7401 22.1165 18.7401 22.4802 18.6919V33.2837ZM18.5233 17.9792V16.1232H18.8202C19.3103 16.1232 19.7334 16.4573 19.8039 16.8953C19.8967 17.493 19.4439 17.9792 18.8908 17.9792H18.5233V17.9792ZM24.6443 15.3919C24.6443 16.8173 23.4825 17.9792 22.0533 17.9792H20.2678C20.446 17.7119 20.5426 17.3964 20.5537 17.1143C20.5797 16.5203 20.305 16.2234 20.253 16.1157C20.4943 16.1157 20.7281 16.112 20.9434 16.112C21.9605 16.1083 22.7845 15.2805 22.7845 14.2634V12.4891C22.7845 12.2849 22.6175 12.1179 22.4134 12.1179C22.2092 12.1179 22.0422 12.285 22.0422 12.4891V14.2634C22.0422 14.8722 21.5484 15.3696 20.9397 15.3696C19.5699 15.3733 17.5655 15.3808 16.3702 15.3808H15.0228C14.4103 15.3808 13.9129 14.8834 13.9129 14.2746V12.4892C13.9129 12.285 13.7459 12.118 13.5417 12.118C13.3376 12.118 13.1706 12.2851 13.1706 12.4892V14.2746C13.1706 15.2954 14.0021 16.1232 15.0229 16.1232H17.7809V17.9792H13.8982C12.4727 17.9792 11.3109 16.8173 11.3109 15.3919V12.9271C11.3109 10.7334 13.0963 8.94788 15.2901 8.94788H16.2441C16.2515 9.89816 17.0274 10.6665 17.9776 10.6665C18.9279 10.6665 19.7037 9.89816 19.7111 8.94788H20.6651C22.8589 8.94788 24.6444 10.7333 24.6444 12.9271V15.3919H24.6443ZM27.974 14.6532H25.3867V13.2129C25.5167 13.25 25.654 13.276 25.795 13.276H27.974V14.6532ZM29.4736 14.4119C29.3436 14.5642 29.1506 14.6533 28.9502 14.6533H28.7163V13.2761H28.8908C29.2582 13.2761 29.5738 13.5211 29.6257 13.8477C29.6592 14.0556 29.6035 14.256 29.4736 14.4119ZM33.5679 12.6116C33.5679 13.7363 32.6548 14.6532 31.5301 14.6532H30.2012C30.3497 14.3748 30.409 14.0519 30.3571 13.7289C30.331 13.5656 30.2717 13.4097 30.1901 13.2687H30.6207C31.4893 13.2649 32.1908 12.556 32.1908 11.6911V10.2471C32.1908 10.0429 32.0275 9.87594 31.8196 9.87594C31.6154 9.87594 31.4484 10.043 31.4484 10.2471V11.6911C31.4484 12.1513 31.0773 12.5226 30.6207 12.5262C29.6333 12.53 28.2487 12.5336 27.265 12.5336H25.795C25.6317 12.5336 25.4832 12.4816 25.3533 12.4C25.1975 10.9858 24.4105 9.75711 23.2857 8.99984C23.8351 8.06441 24.8522 7.42963 26.0141 7.42963H26.7305C26.775 8.20918 27.4135 8.83278 28.2042 8.83278C28.9948 8.83278 29.637 8.20918 29.6815 7.42963H30.3942C32.1462 7.42963 33.5679 8.85134 33.5679 10.6034V12.6116Z" fill="black"/>
</svg>
