<svg width="56" height="57" viewBox="0 0 56 57" fill="none" xmlns="http://www.w3.org/2000/svg">
<path d="M42.4059 41.2151C42.4059 41.2151 41.56 49.6241 46.9735 51.4286V56.8421H55.996V32.4813L49.6803 19.8497L42.4059 41.2151Z" fill="#F4A56E"/>
<path d="M9.02252 56.8421V51.4286C14.436 49.6241 13.6174 41.3828 13.6174 41.3828L6.37216 19.8497L0 32.4813V56.8421H9.02252Z" fill="#F4A56E"/>
<path d="M46.9739 10.8271L49.6807 9.92487V41.3827L45.7722 41.4472C45.7722 41.4472 38.3073 39.778 32.058 44.763C31.926 44.8688 31.8195 45.003 31.7463 45.1556C31.6732 45.3082 31.6354 45.4753 31.6356 45.6445V46.9172H26.2221V45.7668C26.2221 45.5635 26.1673 45.364 26.0633 45.1893C25.9593 45.0146 25.81 44.8712 25.6312 44.7744C23.7341 43.7435 17.7281 40.7302 10.2284 41.4802L6.37256 41.3827V9.92487L9.07932 10.8271L28.9289 18.593L46.9739 10.8271Z" fill="#087182"/>
<path d="M9.07861 24.9992V8.12085C11.3806 8.03863 16.3181 8.16337 19.9056 9.0231C23.0722 9.78244 26.1115 10.9982 28.9282 12.6321V42.4064C26.1115 40.7725 23.0722 39.5568 19.9056 38.7974C16.3181 37.9377 11.3806 37.813 9.07861 37.8952V31.7023" fill="#90E3F5"/>
<path d="M46.9733 31.7537V37.8938C44.5808 37.5327 42.1477 37.5327 39.7553 37.8938C35.8355 38.5034 32.1211 40.0511 28.9282 42.4051V12.6308C32.1211 10.2767 35.8355 8.72908 39.7553 8.11952C42.1477 7.75832 44.5808 7.75832 46.9733 8.11952V25.0443" fill="#77D8E8"/>
<path d="M41.5596 18.045H43.3641V19.8495H41.5596V18.045Z" fill="#0F8CA8"/>
<path d="M30.5232 2.91631L33.4395 4.51126L30.5232 6.10622L28.9283 9.02252L27.3333 6.10622L24.417 4.51126L27.3333 2.91631L28.9283 0L30.5232 2.91631Z" fill="#F69038"/>
<path d="M24.8717 18.8279C18.8943 15.4119 12.8752 16.2227 12.8154 16.231L12.5601 14.4445C12.8307 14.4061 19.2573 13.5413 25.7668 17.2611L24.8717 18.8279Z" fill="#0F8CA8"/>
<path d="M24.8717 23.3387C18.8943 19.9226 12.8752 20.7334 12.8154 20.7417L12.5601 18.9553C12.8307 18.9168 19.2573 18.052 25.7668 21.7719L24.8717 23.3387Z" fill="#0F8CA8"/>
<path d="M32.0831 36.8727L31.188 35.3058C37.6975 31.586 44.124 32.4508 44.3947 32.4892L44.1407 34.2757C44.0805 34.2677 38.036 33.4713 32.0831 36.8727Z" fill="#0F8CA8"/>
<path d="M32.0831 18.0253L31.188 16.4584C37.6975 12.7386 44.124 13.6033 44.3947 13.6418L44.1407 15.4285C44.0805 15.4203 38.036 14.6238 32.0831 18.0253Z" fill="#0F8CA8"/>
<path opacity="0.3" d="M12.7036 11.4541C15.0056 11.3719 19.9431 11.4966 23.5307 12.3564C25.3773 12.7992 27.183 13.3982 28.9282 14.147V12.6321C26.1115 10.9982 23.0722 9.78244 19.9056 9.0231C16.3181 8.16337 11.3806 8.03863 9.07861 8.12085V37.8952C9.96959 37.8634 11.2553 37.8628 12.7036 37.9235V11.4541Z" fill="#FAFCFC"/>
<path opacity="0.2" d="M43.857 22.5568C43.857 22.5568 40.9434 27.6432 43.6502 30.35L50.5738 37.3288L51.7858 32.4816L43.857 22.5568Z" fill="#232626"/>
<path opacity="0.2" d="M12.2314 22.5568C12.2314 22.5568 15.145 27.6432 12.4382 30.35L5.51469 37.3288L4.30273 32.4816L12.2314 22.5568Z" fill="#232626"/>
<path d="M55.9956 56.8424V32.4816L43.9533 22.5568C43.4458 23.7309 43.2619 25.0195 43.4206 26.2888C43.5792 27.558 44.0747 28.7617 44.8555 29.7748L49.6799 34.2861V36.9928C49.6799 36.9928 44.2663 36.9928 46.0708 46.0153L46.9731 51.4288V56.8424C46.9731 56.8424 56.2228 56.6152 55.9956 56.8424Z" fill="#FFBE92"/>
<path d="M0 56.8424V32.4816L12.0424 22.5568C12.5498 23.7309 12.7337 25.0195 12.575 26.2888C12.4164 27.558 11.9209 28.7617 11.1401 29.7748L6.31577 34.2861V36.9928C6.31577 36.9928 11.7293 36.9928 9.92478 46.0153L9.02252 51.4288V56.8424H0Z" fill="#FFBE92"/>
</svg>
