<svg width="36" height="36" viewBox="0 0 36 36" fill="none" xmlns="http://www.w3.org/2000/svg">
<path d="M30.375 16.8745C30.38 19.3858 29.6186 21.8388 28.1925 23.9058C27.9186 23.9447 27.6423 23.9635 27.3656 23.962C25.4925 23.962 25.4925 23.2871 23.6138 23.2871C21.735 23.2871 21.7406 23.962 19.8675 23.962C17.9944 23.962 17.9944 23.2871 16.1213 23.2871C14.2481 23.2871 14.2425 23.962 12.3694 23.962C10.4963 23.962 10.4963 23.2871 8.62313 23.2871C8.23948 23.2814 7.85642 23.3191 7.48125 23.3995C6.47287 21.7725 5.8557 19.9336 5.67827 18.0276C5.50085 16.1217 5.768 14.2005 6.45873 12.4152C7.14946 10.63 8.24492 9.02929 9.65898 7.73906C11.073 6.44883 12.7671 5.50424 14.6081 4.97955C16.449 4.45487 18.3865 4.36441 20.2683 4.71528C22.1501 5.06615 23.9248 5.84878 25.453 7.00164C26.9811 8.1545 28.2209 9.64615 29.075 11.3593C29.9291 13.0724 30.3741 14.9603 30.375 16.8745Z" fill="#FF6243"/>
<path d="M34.3125 23.3996C33.8489 23.4402 33.3836 23.3444 32.9737 23.124C32.4061 22.8194 31.7641 22.681 31.1214 22.7246C30.5407 22.7126 29.962 22.7964 29.4086 22.9727C30.4646 20.9976 30.9898 18.7821 30.9327 16.5431C30.8756 14.3042 30.2383 12.1184 29.083 10.1996C27.9278 8.28081 26.2942 6.69481 24.3421 5.59678C22.3901 4.49874 20.1864 3.92628 17.9467 3.93541C15.707 3.94454 13.508 4.53495 11.565 5.64886C9.62191 6.76278 8.00131 8.36204 6.86174 10.2902C5.72217 12.2183 5.10267 14.4092 5.06386 16.6486C5.02504 18.888 5.56825 21.0991 6.64031 23.0655L6.55594 23.0953C6.02163 23.3114 5.44851 23.415 4.87237 23.3996C4.41012 23.4403 3.94608 23.3447 3.53756 23.1246C2.97083 22.8197 2.32954 22.6811 1.6875 22.7246C1.53832 22.7246 1.39524 22.7839 1.28975 22.8894C1.18426 22.9949 1.125 23.138 1.125 23.2871C1.125 23.4363 1.18426 23.5794 1.28975 23.6849C1.39524 23.7904 1.53832 23.8496 1.6875 23.8496C2.14975 23.809 2.61379 23.9046 3.02231 24.1247C3.58907 24.4295 4.23034 24.5681 4.87237 24.5246C5.57846 24.5392 6.28038 24.4132 6.93731 24.154C7.47163 23.9379 8.04474 23.8343 8.62088 23.8496C9.19701 23.8343 9.77013 23.9379 10.3044 24.154C10.9616 24.4131 11.6637 24.5391 12.3699 24.5246C13.076 24.5392 13.7779 24.4132 14.4349 24.154C14.9692 23.9379 15.5423 23.8343 16.1184 23.8496C16.6949 23.8343 17.2684 23.9379 17.8031 24.154C18.4603 24.4131 19.1624 24.5391 19.8686 24.5246C20.5745 24.5392 21.2763 24.4131 21.933 24.154C23.0191 23.7482 24.2152 23.7482 25.3013 24.154C26.6349 24.6482 28.1014 24.6482 29.4351 24.154C29.9708 23.938 30.5452 23.8344 31.1226 23.8496C31.586 23.8092 32.0511 23.905 32.4608 24.1253C33.0283 24.4295 33.67 24.5679 34.3125 24.5246C34.4617 24.5246 34.6048 24.4654 34.7102 24.3599C34.8157 24.2544 34.875 24.1113 34.875 23.9621C34.875 23.813 34.8157 23.6699 34.7102 23.5644C34.6048 23.4589 34.4617 23.3996 34.3125 23.3996ZM25.6826 23.0953C24.35 22.6011 22.8843 22.6011 21.5516 23.0953C21.0175 23.3114 20.4446 23.415 19.8686 23.3996C19.2923 23.415 18.719 23.3114 18.1845 23.0953C17.5272 22.8361 16.8249 22.7101 16.1184 22.7246C15.4124 22.7101 14.7104 22.8361 14.0535 23.0953C13.5192 23.3114 12.9461 23.415 12.3699 23.3996C11.7942 23.4148 11.2215 23.3112 10.6875 23.0953C10.0306 22.8361 9.32864 22.7101 8.62256 22.7246C8.33906 22.7243 8.05585 22.7431 7.77487 22.7809C6.72302 20.9592 6.17669 18.8898 6.19233 16.7863C6.20797 14.6828 6.78503 12.6217 7.86386 10.8159C8.94269 9.01007 10.4842 7.5251 12.329 6.51443C14.1738 5.50375 16.255 5.00403 18.3576 5.06691C20.4602 5.12979 22.5078 5.75299 24.289 6.8721C26.0701 7.99121 27.5201 9.56564 28.4891 11.4327C29.4581 13.2997 29.9109 15.3917 29.8008 17.4923C29.6907 19.593 29.0217 21.6261 27.8629 23.3816C27.7155 23.394 27.5546 23.4019 27.369 23.4019C26.7918 23.4167 26.2177 23.3123 25.6826 23.0953Z" fill="black"/>
<path d="M29.8125 26.1108C29.4276 26.1207 29.0447 26.0516 28.6875 25.9077C27.717 25.5483 26.6498 25.5483 25.6793 25.9077C24.9551 26.1786 24.1574 26.1786 23.4332 25.9077C22.4632 25.5485 21.3966 25.5485 20.4266 25.9077C19.7038 26.1785 18.9074 26.1785 18.1845 25.9077C17.2149 25.5485 16.1487 25.5485 15.1791 25.9077C14.8233 26.0517 14.4417 26.1208 14.058 26.1108C13.6745 26.1207 13.2931 26.0515 12.9375 25.9077C12.4593 25.7191 11.9484 25.6275 11.4345 25.6383C10.9208 25.6275 10.41 25.7191 9.93206 25.9077C9.57609 26.0517 9.19429 26.1208 8.81044 26.1108C8.42695 26.1208 8.04551 26.0517 7.68994 25.9077C7.21198 25.7191 6.70123 25.6275 6.1875 25.6383C6.03832 25.6383 5.89524 25.6976 5.78975 25.8031C5.68426 25.9086 5.625 26.0516 5.625 26.2008C5.625 26.35 5.68426 26.4931 5.78975 26.5986C5.89524 26.704 6.03832 26.7633 6.1875 26.7633C6.57117 26.7533 6.95279 26.8224 7.30856 26.9664C7.78634 27.155 8.29689 27.2466 8.81044 27.2358C9.32435 27.2466 9.83527 27.155 10.3134 26.9664C10.6692 26.8224 11.0508 26.7533 11.4345 26.7633C11.8183 26.7533 12.2002 26.8224 12.5561 26.9664C13.0343 27.155 13.5452 27.2466 14.0591 27.2358C14.5729 27.2466 15.0836 27.155 15.5616 26.9664C16.2846 26.6956 17.0812 26.6956 17.8043 26.9664C18.7737 27.3256 19.8397 27.3256 20.8091 26.9664C21.5326 26.6956 22.3295 26.6956 23.0529 26.9664C24.0233 27.3256 25.0903 27.3256 26.0606 26.9664C26.7861 26.6951 27.5852 26.6951 28.3106 26.9664C28.7885 27.1547 29.299 27.2463 29.8125 27.2358C29.9617 27.2358 30.1048 27.1765 30.2102 27.0711C30.3157 26.9656 30.375 26.8225 30.375 26.6733C30.375 26.5241 30.3157 26.3811 30.2102 26.2756C30.1048 26.1701 29.9617 26.1108 29.8125 26.1108Z" fill="black"/>
<path d="M24.75 28.2604C24.5574 28.2663 24.3658 28.2316 24.1875 28.1586C23.5794 27.9343 22.9112 27.9343 22.3031 28.1586C21.942 28.2943 21.5438 28.2943 21.1826 28.1586C20.5753 27.9343 19.9078 27.9343 19.3005 28.1586C18.9399 28.2943 18.5423 28.2943 18.1817 28.1586C17.5749 27.9343 16.908 27.9343 16.3012 28.1586C15.9418 28.294 15.5453 28.294 15.1858 28.1586C14.5795 27.9339 13.9128 27.9339 13.3065 28.1586C12.9461 28.2943 12.5486 28.2943 12.1882 28.1586C11.8895 28.0417 11.5707 27.9846 11.25 27.9904C11.1008 27.9904 10.9577 28.0497 10.8523 28.1551C10.7468 28.2606 10.6875 28.4037 10.6875 28.5529C10.6875 28.7021 10.7468 28.8451 10.8523 28.9506C10.9577 29.0561 11.1008 29.1154 11.25 29.1154C11.4412 29.1097 11.6315 29.1442 11.8086 29.2166C12.4154 29.4417 13.0828 29.4417 13.6896 29.2166C14.0491 29.0817 14.4454 29.0817 14.805 29.2166C15.4113 29.4413 16.078 29.4413 16.6843 29.2166C17.0445 29.0809 17.4418 29.0809 17.802 29.2166C18.4091 29.4409 19.0764 29.4409 19.6836 29.2166C20.0443 29.0809 20.4422 29.0809 20.8029 29.2166C21.4107 29.4409 22.0785 29.4409 22.6862 29.2166C23.0477 29.0809 23.4463 29.0809 23.8078 29.2166C24.1078 29.3339 24.4279 29.3912 24.75 29.3854C24.8992 29.3854 25.0423 29.3261 25.1477 29.2206C25.2532 29.1151 25.3125 28.9721 25.3125 28.8229C25.3125 28.6737 25.2532 28.5306 25.1477 28.4251C25.0423 28.3197 24.8992 28.2604 24.75 28.2604Z" fill="black"/>
<path d="M23.0625 30.476C22.9347 30.4804 22.8075 30.4571 22.6896 30.4079C22.2029 30.2287 21.6682 30.2287 21.1815 30.4079C21.063 30.4568 20.9355 30.48 20.8074 30.476C20.68 30.4804 20.5532 30.4572 20.4356 30.4079C19.9493 30.2287 19.415 30.2287 18.9287 30.4079C18.6891 30.4987 18.4246 30.4987 18.1851 30.4079C17.6991 30.2287 17.1652 30.2287 16.6793 30.4079C16.4406 30.4983 16.1771 30.4983 15.9384 30.4079C15.4528 30.2283 14.9189 30.2283 14.4332 30.4079C14.1938 30.4987 13.9295 30.4987 13.6901 30.4079C13.4504 30.3147 13.1947 30.269 12.9375 30.2735C12.7883 30.2735 12.6452 30.3328 12.5398 30.4382C12.4343 30.5437 12.375 30.6868 12.375 30.836C12.375 30.9852 12.4343 31.1283 12.5398 31.2337C12.6452 31.3392 12.7883 31.3985 12.9375 31.3985C13.0647 31.3942 13.1913 31.4174 13.3087 31.4666C13.7946 31.6462 14.3287 31.6462 14.8146 31.4666C15.0535 31.3766 15.317 31.3766 15.5559 31.4666C16.0414 31.6462 16.5751 31.6462 17.0606 31.4666C17.3 31.3758 17.5643 31.3758 17.8037 31.4666C18.2898 31.6458 18.8239 31.6458 19.3101 31.4666C19.5498 31.3758 19.8145 31.3758 20.0543 31.4666C20.5408 31.6458 21.0752 31.6458 21.5618 31.4666C21.8023 31.3758 22.0676 31.3758 22.3082 31.4666C22.5486 31.5597 22.8047 31.6053 23.0625 31.601C23.2117 31.601 23.3548 31.5417 23.4602 31.4362C23.5657 31.3308 23.625 31.1877 23.625 31.0385C23.625 30.8893 23.5657 30.7462 23.4602 30.6407C23.3548 30.5353 23.2117 30.476 23.0625 30.476Z" fill="black"/>
<path d="M21.375 32.6921C21.3111 32.6947 21.2475 32.683 21.1888 32.6578C20.8233 32.5235 20.422 32.5235 20.0565 32.6578C19.9977 32.683 19.9341 32.6947 19.8703 32.6921C19.8075 32.6948 19.745 32.6831 19.6875 32.6578C19.3222 32.5235 18.921 32.5235 18.5557 32.6578C18.4372 32.7035 18.3058 32.7035 18.1873 32.6578C17.8222 32.5236 17.4212 32.5236 17.0561 32.6578C16.9379 32.7032 16.807 32.7032 16.6888 32.6578C16.324 32.523 15.923 32.523 15.5582 32.6578C15.4401 32.7032 15.3095 32.7032 15.1914 32.6578C15.0122 32.5882 14.8212 32.5538 14.6289 32.5566C14.4797 32.5566 14.3366 32.6158 14.2312 32.7213C14.1257 32.8268 14.0664 32.9699 14.0664 33.1191C14.0664 33.2682 14.1257 33.4113 14.2312 33.5168C14.3366 33.6223 14.4797 33.6816 14.6289 33.6816C14.6914 33.6788 14.7538 33.6903 14.8112 33.7153C14.9904 33.7849 15.1814 33.8193 15.3737 33.8166C15.567 33.8194 15.7591 33.7852 15.9395 33.7159C16.0576 33.6705 16.1882 33.6705 16.3063 33.7159C16.6713 33.8505 17.0724 33.8505 17.4375 33.7159C17.556 33.6701 17.6874 33.6701 17.8059 33.7159C18.171 33.8501 18.572 33.8501 18.9371 33.7159C18.9949 33.6904 19.0579 33.6786 19.121 33.6816C19.1845 33.679 19.2478 33.6907 19.3061 33.7159C19.6716 33.8501 20.0729 33.8501 20.4384 33.7159C20.5581 33.6701 20.6905 33.6701 20.8102 33.7159C20.9903 33.7852 21.182 33.8196 21.375 33.8171C21.5242 33.8171 21.6672 33.7579 21.7727 33.6524C21.8782 33.5469 21.9375 33.4038 21.9375 33.2546C21.9375 33.1054 21.8782 32.9624 21.7727 32.8569C21.6672 32.7514 21.5242 32.6921 21.375 32.6921Z" fill="black"/>
<path d="M29.0851 3.21017L29.5582 2.73711C29.6502 2.64521 29.7712 2.58804 29.9006 2.57533C30.0301 2.56261 30.1599 2.59513 30.268 2.66736L31.1877 3.28048C31.2802 3.34216 31.3888 3.37507 31.4999 3.37507C31.611 3.37507 31.7197 3.34216 31.8121 3.28048L32.7318 2.66736C32.8399 2.59513 32.9698 2.56261 33.0992 2.57533C33.2286 2.58804 33.3497 2.64521 33.4417 2.73711L33.9147 3.21017C34.0208 3.31264 34.1629 3.36933 34.3104 3.36805C34.4579 3.36677 34.599 3.30761 34.7033 3.20332C34.8076 3.09903 34.8667 2.95795 34.868 2.81046C34.8693 2.66297 34.8126 2.52089 34.7101 2.4148L34.2371 1.94173C33.9608 1.66668 33.598 1.49551 33.21 1.45717C32.822 1.41884 32.4328 1.5157 32.108 1.73136L31.4999 2.13748L30.8919 1.73248C30.5671 1.51682 30.1778 1.41996 29.7898 1.4583C29.4019 1.49663 29.0391 1.66781 28.7628 1.94286L28.2897 2.41592C28.1873 2.52201 28.1306 2.6641 28.1319 2.81159C28.1331 2.95907 28.1923 3.10015 28.2966 3.20444C28.4009 3.30874 28.542 3.36789 28.6894 3.36918C28.8369 3.37046 28.979 3.31376 29.0851 3.2113V3.21017Z" fill="black"/>
<path d="M27.3976 5.86182L27.6788 5.58057C27.6973 5.56209 27.7215 5.55058 27.7475 5.54802C27.7734 5.54545 27.7995 5.55199 27.8212 5.56651L28.373 5.93438C28.4654 5.99606 28.574 6.02897 28.6852 6.02897C28.7963 6.02897 28.9049 5.99606 28.9973 5.93438L29.5492 5.56595C29.5708 5.55143 29.5969 5.54489 29.6228 5.54746C29.6488 5.55002 29.6731 5.56153 29.6915 5.58001L29.9727 5.86126C30.0243 5.91624 30.0864 5.9603 30.1553 5.99082C30.2242 6.02133 30.2985 6.03769 30.3739 6.03891C30.4493 6.04014 30.5241 6.0262 30.594 5.99794C30.6638 5.96967 30.7273 5.92765 30.7806 5.87438C30.834 5.8211 30.876 5.75765 30.9043 5.6878C30.9326 5.61795 30.9466 5.54312 30.9455 5.46775C30.9443 5.39239 30.928 5.31803 30.8975 5.24909C30.867 5.18015 30.823 5.11804 30.7681 5.06645L30.4868 4.7852C30.2845 4.58298 30.0183 4.45711 29.7336 4.42901C29.449 4.40091 29.1633 4.47232 28.9253 4.63107L28.6874 4.78857L28.4472 4.62882C28.2096 4.47029 27.9244 4.39886 27.6401 4.42665C27.3558 4.45443 27.0899 4.57972 26.8874 4.78126L26.6062 5.06251C26.5512 5.1141 26.5072 5.17622 26.4767 5.24516C26.4463 5.31409 26.4299 5.38845 26.4288 5.46382C26.4276 5.53918 26.4416 5.61401 26.4699 5.68386C26.4982 5.75371 26.5403 5.81716 26.5936 5.87044C26.6469 5.92372 26.7104 5.96574 26.7803 5.994C26.8501 6.02227 26.925 6.0362 27.0003 6.03498C27.0757 6.03375 27.1501 6.0174 27.219 5.98688C27.2879 5.95636 27.35 5.9123 27.4015 5.85732L27.3976 5.86182Z" fill="black"/>
<path d="M34.4249 7.59337C34.2226 7.39115 33.9564 7.26529 33.6717 7.23719C33.387 7.20909 33.1014 7.28049 32.8634 7.43924L32.6249 7.60068L32.3847 7.44093C32.1471 7.2824 31.8619 7.21097 31.5776 7.23876C31.2933 7.26654 31.0274 7.39183 30.8249 7.59337L30.5437 7.87462C30.4887 7.92621 30.4447 7.98833 30.4142 8.05727C30.3838 8.1262 30.3674 8.20056 30.3663 8.27593C30.3651 8.35129 30.3791 8.42612 30.4074 8.49597C30.4357 8.56582 30.4778 8.62927 30.5311 8.68255C30.5844 8.73583 30.6479 8.77785 30.7178 8.80611C30.7876 8.83438 30.8625 8.84831 30.9378 8.84709C31.0132 8.84586 31.0876 8.82951 31.1565 8.79899C31.2254 8.76847 31.2875 8.72441 31.339 8.66943L31.6203 8.38818C31.6387 8.3697 31.663 8.35819 31.6889 8.35563C31.7149 8.35306 31.7409 8.3596 31.7626 8.37412L32.3144 8.74199C32.4068 8.80367 32.5155 8.83658 32.6266 8.83658C32.7377 8.83658 32.8463 8.80367 32.9388 8.74199L33.4906 8.37356C33.5123 8.35904 33.5383 8.3525 33.5643 8.35507C33.5902 8.35763 33.6145 8.36914 33.6329 8.38762L33.9142 8.66887C33.9657 8.72385 34.0278 8.76791 34.0967 8.79843C34.1656 8.82895 34.24 8.8453 34.3153 8.84653C34.3907 8.84775 34.4655 8.83381 34.5354 8.80555C34.6053 8.77728 34.6688 8.73527 34.7221 8.68199C34.7754 8.62871 34.8175 8.56526 34.8458 8.49541C34.8741 8.42556 34.8881 8.35073 34.8869 8.27536C34.8857 8.2 34.8694 8.12564 34.839 8.0567C34.8085 7.98776 34.7645 7.92565 34.7095 7.87406L34.4249 7.59337Z" fill="black"/>
</svg>
