<svg width="56" height="61" viewBox="0 0 56 61" fill="none" xmlns="http://www.w3.org/2000/svg">
<rect width="56" height="60" rx="4" fill="white"/>
<path d="M32.6287 25.0004C32.5604 24.9982 32.4893 25.0049 32.4161 25.0234C30.3485 25.5553 28.8759 27.4462 28.8736 29.6C28.8736 31.7977 30.3876 33.6456 32.4242 34.1731V35.3366C31.1149 37.3772 28.1791 38.7406 25.4327 40.4609C24.0313 41.3387 22.6805 42.3264 21.6684 43.6186C20.6564 44.9109 20 46.5235 20 48.5315C20 51.1995 20.7665 53.1323 21.6176 54.4437H44.4092C45.2611 53.1323 46.0315 51.1995 46.0315 48.5315C46.0315 46.5235 45.3705 44.9109 44.3584 43.6186C43.3463 42.3264 42.0001 41.3387 40.5987 40.4609C37.8555 38.7426 34.919 37.3803 33.6073 35.3436V34.3291C35.7466 34.3269 37.6131 32.8852 38.1666 30.8294C38.4648 30.2508 37.7462 29.685 37.2538 30.1107C36.7258 30.5434 36.0635 30.7836 35.3809 30.7843C33.7403 30.7843 32.4242 29.4636 32.4242 27.823C32.4056 27.1201 32.7063 26.4522 33.092 25.9536C33.4275 25.5199 33.1065 25.0181 32.6287 25.0003L32.6287 25.0004ZM21.7724 55.6269C20.7995 55.6269 20 56.4321 20 57.4051V59.7668C19.9994 59.9237 20.0612 60.0744 20.1717 60.1857C20.2822 60.2971 20.4324 60.3601 20.5893 60.3607H45.4376C45.5156 60.361 45.593 60.3458 45.6652 60.3161C45.7374 60.2863 45.803 60.2426 45.8582 60.1874C45.9134 60.1322 45.9571 60.0666 45.9869 59.9944C46.0166 59.9222 46.0318 59.8449 46.0315 59.7668V57.4051C46.0315 56.4321 45.2274 55.6269 44.2544 55.6269H21.7724Z" fill="#019147"/>
</svg>
