<svg width="60" height="60" viewBox="0 0 60 60" fill="none" xmlns="http://www.w3.org/2000/svg">
<path d="M51.6533 47.8144C51.9349 47.8413 52.1892 47.9942 52.3454 48.2301L57.9649 56.6657C58.381 57.287 57.9381 58.1215 57.1903 58.1251H27.1871C27.1197 58.1252 27.0601 58.0999 26.9967 58.0866C31.3174 57.7098 34.687 54.1094 34.687 49.6876C34.687 49.0424 34.6087 48.4174 34.4728 47.8144H51.5636C51.5935 47.813 51.6234 47.813 51.6533 47.8144Z" fill="#38668C"/>
<path d="M16.8746 1.875C13.239 1.875 10.3122 4.78694 10.3122 8.40402V9.40848C10.3122 13.0256 13.239 15.9375 16.8746 15.9375C20.5102 15.9375 23.437 13.0256 23.437 9.40848V8.40402C23.437 4.78694 20.5102 1.875 16.8746 1.875Z" fill="#FFC6A0"/>
<path d="M16.875 1.875C17.1946 1.875 17.5054 1.90476 17.8125 1.94824C14.6257 2.39955 12.1876 5.10536 12.1876 8.40454V9.40796C12.1876 12.7071 14.6257 15.4129 17.8125 15.8643C17.5054 15.9077 17.1945 15.9375 16.875 15.9375C13.2394 15.9375 10.3126 13.025 10.3126 9.40796V8.40454C10.3126 4.78747 13.2394 1.875 16.875 1.875Z" fill="#FFAF7A"/>
<path d="M15 49.6875C13.9613 49.6875 13.125 50.5237 13.125 51.5625V56.25C13.125 57.2887 13.9613 58.125 15 58.125H3.75017C2.71144 58.125 1.8752 57.2888 1.8752 56.25C1.8752 55.2112 2.71144 54.375 3.75017 54.375H4.68766C5.72639 54.375 6.56263 53.5387 6.56263 52.5C6.56263 50.9419 7.81698 49.6875 9.37509 49.6875H12.1875H15Z" fill="#FFC6A0"/>
<path d="M15 49.6875C13.9613 49.6875 13.125 50.5237 13.125 51.5625H11.2501C9.69195 51.5625 8.4376 52.8169 8.4376 54.375C8.4376 55.4137 7.60136 56.25 6.56263 56.25H5.62514C4.58641 56.25 3.75017 57.0862 3.75017 58.125C2.71144 58.125 1.8752 57.2888 1.8752 56.25C1.8752 55.2112 2.71144 54.375 3.75017 54.375H4.68766C5.72639 54.375 6.56263 53.5387 6.56263 52.5C6.56263 50.9419 7.81698 49.6875 9.37509 49.6875H12.1875H15Z" fill="#FFAF7A"/>
<path d="M34.4728 47.8144H51.5636C51.5935 47.813 51.6234 47.813 51.6533 47.8144C51.9349 47.8413 52.1892 47.9942 52.3454 48.2301L57.9649 56.6657C58.381 57.287 57.9381 58.1215 57.1903 58.1251H55.8134L50.4705 50.1051C50.3143 49.8692 50.0599 49.7163 49.7783 49.6894C49.7485 49.688 49.7185 49.688 49.6886 49.6894L34.687 49.6885C34.687 49.0424 34.6087 48.4174 34.4728 47.8144Z" fill="#2C5170"/>
<path d="M16.8748 17.8125C21.0297 17.8125 24.3747 21.1575 24.3747 25.3125V41.25H27.1871C31.8614 41.25 35.6245 45.0131 35.6245 49.6875C35.6245 54.3619 31.8614 58.125 27.1871 58.125H14.9998C13.9611 58.125 13.1249 57.2887 13.1249 56.25V51.5625C13.1249 50.5237 13.9611 49.6875 14.9998 49.6875H12.1874C9.59053 49.6875 7.49994 47.5969 7.49994 45C7.49993 38.4375 7.49997 31.875 7.49994 25.3125C7.49994 21.1575 10.8449 17.8125 14.9998 17.8125H16.8748Z" fill="#FF9822"/>
<path d="M16.8748 8.4375C13.9708 8.4375 11.5185 7.5744 10.6457 6.36749C11.4996 3.75331 13.9564 1.875 16.8748 1.875C19.7933 1.875 22.2501 3.75331 23.104 6.36749C22.2312 7.5744 19.7789 8.4375 16.8748 8.4375Z" fill="#21CC74"/>
<path d="M17.8125 8.40271C17.5056 8.42287 17.1944 8.4375 16.875 8.4375C13.971 8.4375 11.5186 7.5744 10.6495 6.37024L10.6421 6.36475C11.4997 3.75331 13.9564 1.875 16.8749 1.875C17.1942 1.875 17.5056 1.90661 17.8124 1.95007C15.3153 2.30388 13.2809 4.039 12.5208 6.36749C13.298 7.44198 15.3284 8.23938 17.8125 8.40271Z" fill="#019147"/>
<path d="M16.875 17.8125C12.7201 17.8125 9.37511 21.1575 9.37511 25.3125C9.37515 31.875 9.3751 38.4375 9.37511 45C9.37511 47.5969 11.4657 49.6875 14.0625 49.6875H12.1876C9.59073 49.6875 7.50014 47.5969 7.50014 45C7.50013 38.4375 7.50017 31.875 7.50014 25.3125C7.50014 21.1575 10.8451 17.8125 15 17.8125H16.875Z" fill="#E78310"/>
<path d="M16.875 48.75C15.8363 48.75 15 49.5862 15 50.625V56.25C15 57.2887 15.8363 58.125 16.875 58.125H15C13.9613 58.125 13.1251 57.2887 13.1251 56.25V50.625C13.1251 49.5862 13.9613 48.75 15 48.75H16.875Z" fill="#E78310"/>
<path d="M27.1871 36.5625L31.8745 37.5C32.8931 37.7037 33.7495 38.3362 33.7495 39.375C33.7495 40.4137 32.9133 41.25 31.8745 41.25H27.1871V36.5625Z" fill="#FFC6A0"/>
<path d="M27.1871 36.5625L29.0621 36.9379V39.375H33.7495C33.7495 40.4137 32.9133 41.25 31.8745 41.25H27.1871V36.5625Z" fill="#FFAF7A"/>
<path d="M27.187 36.5625C27.187 35.5238 26.3508 34.6875 25.312 34.6875H23.4371C21.879 34.6875 20.6246 33.4331 20.6246 31.875V30.4687L20.6246 26.25C20.6246 23.6531 18.534 21.5625 15.9372 21.5625C13.3403 21.5625 11.2498 23.6531 11.2498 26.25V30.9411C11.2498 36.6522 15.8474 41.25 21.5585 41.25H27.187V36.5625Z" fill="#FF9822"/>
<path d="M15.9376 21.5625C18.5345 21.5625 20.625 23.6531 20.625 26.25V30.4688V31.875C20.625 33.4331 21.8794 34.6875 23.4375 34.6875H21.5625C20.0044 34.6875 18.7501 33.4331 18.7501 31.875V30.4688V26.25C18.7501 23.9745 17.1445 22.0881 15.0001 21.6559C15.303 21.5948 15.6162 21.5625 15.9376 21.5625V21.5625Z" fill="#E78310"/>
<path d="M23.4376 34.6875H25.3125C26.3513 34.6875 27.1875 35.5237 27.1875 36.5625V41.25H25.3125V36.5625C25.3125 35.5237 24.4763 34.6875 23.4376 34.6875Z" fill="#E78310"/>
<path d="M12.1969 23.4463C11.6101 24.2291 11.2502 25.1917 11.2502 26.2496V30.9408C11.2502 36.6519 15.8479 41.2496 21.5589 41.2496H27.1875V42.1871H20.6214C14.9104 42.1871 10.3128 37.5894 10.3128 31.8783V27.1871C10.3128 25.6482 11.0582 24.2999 12.1969 23.4463Z" fill="#E78310"/>
<path d="M28.1248 48.75C29.3751 48.75 29.3751 50.6255 28.1248 50.6255H15C13.7497 50.6255 13.7497 48.75 15 48.75H28.1248Z" fill="#E78310"/>
</svg>
