<svg width="60" height="60" viewBox="0 0 60 60" fill="none" xmlns="http://www.w3.org/2000/svg">
<path d="M41.0084 56.0254C40.9084 56.0254 16.2667 56.0337 16.1667 56.0337C16.1667 56.0337 14.7584 56.1254 14.7334 54.9587C14.7334 54.9587 14.7584 54.9504 14.8084 54.9254C14.9001 54.8921 15.0584 54.8171 15.2584 54.6921C15.2917 54.6754 15.3251 54.6504 15.3667 54.6337C16.0001 54.2587 16.5251 53.8254 16.8001 53.4087C16.9584 53.1671 17.0917 52.9171 17.1834 52.6421C17.7417 51.6171 18.1251 50.1587 17.9417 48.1421L16.1834 28.9004C16.1667 28.6671 16.1584 28.4087 16.1667 28.1087C16.2334 25.1004 17.5167 22.2337 19.6167 20.0754L20.5917 19.0254C20.6001 19.0337 20.6084 19.0504 20.6167 19.0587C22.0251 21.2421 25.5001 23.3587 29.7334 22.8671L29.9584 24.2421L32.3917 31.0087L40.1917 28.8587L40.8584 30.3171L42.3751 33.6421L43.0917 35.2254C43.0917 35.2254 36.2417 38.2754 32.2751 38.9087C32.2917 39.2837 32.3084 39.7671 32.3167 39.8504C32.4251 41.2254 33.5501 42.3254 34.9084 42.5921C37.7667 43.1671 46.2501 45.1421 46.5834 48.8337C46.9084 52.3921 45.3167 55.8671 41.0084 56.0254Z" fill="#FF9822"/>
<path d="M33.6084 38.6334C37.6084 37.6667 43.0834 35.2334 43.0834 35.2334L43.0584 35.175C40.8584 36.0917 36.4751 37.8167 33.6001 38.275C33.6001 38.3917 33.6084 38.5167 33.6084 38.6334Z" fill="#E78310"/>
<path d="M42.3417 55.3833C42.2417 55.3833 17.6 55.3917 17.5 55.3917C17.5 55.3917 16.0917 55.4833 16.0667 54.3167C16.0667 54.3167 16.0917 54.3083 16.1417 54.2833C16.2334 54.25 16.3917 54.175 16.5917 54.05C16.625 54.0333 16.6584 54.0083 16.7 53.9917C17.3334 53.6167 17.8584 53.1833 18.1334 52.7667C18.2917 52.525 18.425 52.275 18.5167 52C19.075 50.975 19.4584 49.5167 19.275 47.5L17.5167 28.2583C17.5 28.0417 17.4917 27.775 17.5 27.475C17.5667 24.4833 18.8417 21.6333 20.9167 19.4833C20.8084 19.3417 20.7084 19.2083 20.625 19.0667C20.6167 19.0583 20.6084 19.0417 20.6 19.0333L19.625 20.0833C17.525 22.2417 16.2417 25.1083 16.175 28.1167C16.1667 28.4167 16.175 28.675 16.1917 28.9083L17.95 48.15C18.1334 50.1667 17.7584 51.6167 17.1917 52.65C17.1 52.925 16.9667 53.175 16.8084 53.4167C16.525 53.8333 16.0084 54.2667 15.375 54.6417C15.3334 54.6583 15.3 54.6833 15.2667 54.7C15.0667 54.8167 14.9084 54.8917 14.8167 54.9333C14.7667 54.9583 14.7417 54.9667 14.7417 54.9667C14.7667 56.1333 16.175 56.0417 16.175 56.0417C16.275 56.0417 40.9167 56.0333 41.0167 56.0333C42.3167 55.9833 43.3667 55.6333 44.1917 55.0667C43.6334 55.2417 43.025 55.3583 42.3417 55.3833Z" fill="#E78310"/>
<path d="M35.1587 49.1333L33.6337 49.3416C33.0171 49.4249 32.3837 49.3916 31.7671 49.2999C30.2171 49.0666 28.6837 49.0833 27.1921 49.3583C21.4671 50.3916 19.1254 49.7833 18.1671 49.0916C17.6171 48.6999 17.5337 48.2916 17.5254 48.2083L17.9754 47.8583C17.9754 47.8583 19.1421 49.9416 27.0421 48.5166C28.9421 48.1749 30.9087 48.2166 32.8754 48.6333L35.1587 49.1333Z" fill="#E78310"/>
<path d="M31.0334 39.4504C30.8751 39.4504 30.7334 39.4421 30.5918 39.4337C24.1668 38.8087 20.3834 29.4254 20.2251 29.0254C20.2334 29.0421 21.0751 29.2671 21.3751 29.8921C22.5418 32.3337 25.8168 38.3754 30.5251 38.8254C30.9334 38.8671 31.6584 39.0171 32.2584 38.9171L32.2834 39.4504C31.8084 39.5254 31.4168 39.4504 31.0334 39.4504Z" fill="#E78310"/>
<path d="M32.992 14.6416L31.842 15.2416C31.842 15.2416 32.0503 16.675 32.2087 18.3166C32.2837 19.15 30.967 19.6833 29.2087 19.625C28.1837 19.5916 27.0087 19.3583 25.867 18.8583C25.067 18.5 24.4087 18.0083 23.8587 17.4416C23.8503 17.4333 23.8503 17.4333 23.8503 17.425C23.767 17.1333 22.6253 13.325 24.1837 12.8C25.8003 12.2666 25.8253 14.5916 26.892 13.5666C27.9753 12.5333 27.3003 9.58331 28.867 8.59165C30.4337 7.59998 31.842 8.79165 31.842 8.79165V8.79998L32.3837 11.7L33.292 13.725C33.4503 14.075 33.317 14.4583 32.992 14.6416Z" fill="#EFD092"/>
<path d="M29.7251 19.2581C28.7001 19.2248 27.5251 18.9915 26.3835 18.4915C26.3001 18.4581 26.2168 18.4165 26.1335 18.3665C24.9168 17.6915 24.1251 16.4331 23.9585 15.0498C23.8585 14.1998 23.8668 13.2998 24.2168 12.7998C24.2085 12.7998 24.2001 12.7998 24.1835 12.8081C22.6168 13.3415 23.7835 17.1831 23.8501 17.4331C23.8585 17.4415 23.8585 17.4415 23.8585 17.4498C24.4001 18.0165 25.0668 18.5081 25.8585 18.8665C27.0001 19.3665 28.1668 19.5998 29.2001 19.6331C30.5335 19.6748 31.6085 19.3831 32.0168 18.8748C31.4918 19.1415 30.6751 19.2831 29.7251 19.2581Z" fill="#EABE7F"/>
<path d="M27.4166 13.1912C28.4083 12.2329 27.925 9.66621 29.0583 8.49121C29 8.52454 28.9333 8.55788 28.875 8.59121C27.3666 9.54121 27.9333 12.3079 27.0083 13.4329C27.125 13.4162 27.2583 13.3412 27.4166 13.1912Z" fill="#F0CA8C"/>
<path d="M32.3584 14.8665C32.3584 14.8665 32.3667 14.9082 32.3751 14.9665L33.0001 14.6415C33.1001 14.5832 33.1834 14.4999 33.2417 14.4082L32.3584 14.8665Z" fill="#F0CA8C"/>
<path d="M31.8503 8.79961C31.8503 8.79961 30.442 7.59961 28.8753 8.59961C27.3087 9.58294 27.9837 12.5329 26.9003 13.5746C25.8253 14.5996 25.8003 12.2746 24.192 12.8079C22.6337 13.3329 23.7753 17.1413 23.8587 17.4329C23.4003 16.9746 23.0337 16.4579 22.717 15.9329C21.5087 13.8829 21.292 11.6913 21.292 11.6913L30.2503 5.09961H30.2587C32.167 5.63294 33.8337 6.73294 31.8503 8.79961Z" fill="#4D4D4D"/>
<path d="M23.467 16.1163C23.4587 16.0996 23.442 16.0746 23.4337 16.0579C22.217 13.9579 22.8587 11.2746 24.8087 9.84128L30.9503 5.32461C30.7253 5.24128 30.492 5.16628 30.2587 5.09961H30.2503L21.292 11.6913C21.292 11.6913 21.517 13.8829 22.717 15.9329C23.0337 16.4496 23.4003 16.9663 23.8587 17.4329C23.8337 17.3413 23.692 16.8746 23.5753 16.2746C23.542 16.2246 23.5003 16.1746 23.467 16.1163Z" fill="#1A1A1A"/>
<path d="M30.3504 5.02497L30.2587 5.09164H30.2504L21.292 11.6833C19.9837 9.22497 20.6254 6.12497 22.9337 4.42497C25.242 2.74164 28.4004 3.04997 30.3504 5.02497Z" fill="#21CC74"/>
<path d="M24.9002 8.53379C23.1252 9.84212 20.6502 8.00046 21.5085 5.96712C21.5168 5.95046 21.5252 5.93379 21.5252 5.91712C20.4168 7.62546 20.2918 9.84212 21.2835 11.6921L30.2502 5.10046H30.2585L30.3502 5.03379C30.2502 4.93379 30.1335 4.85879 30.0252 4.75879L24.9002 8.53379Z" fill="#019147"/>
<path d="M49.0001 29.5333C48.7751 30.0249 48.3251 30.3666 47.8918 30.6833C46.1251 31.8916 44.3834 33.0416 42.3668 33.6583L40.8501 30.3333C42.0251 29.5583 42.7084 28.5333 42.6334 27.0333C42.6168 26.6499 42.5584 26.2499 42.6751 25.8916C42.8001 25.5249 43.2001 25.2166 43.5584 25.3749C43.7668 25.4583 43.9084 25.6916 44.0001 25.9083C44.3168 26.6416 44.4584 27.4416 44.4001 28.2333C45.4751 27.8833 47.8001 24.0166 48.0834 23.9166C48.3418 23.8166 48.6418 24.0083 48.8084 24.2499C50.1084 26.1083 49.2751 28.9249 49.0001 29.5333Z" fill="#EFD092"/>
<path d="M42.5166 28.2166C42.8499 27.6583 43.0249 27.0083 42.9833 26.2333C42.9749 25.9999 42.9499 25.7499 42.9583 25.5166C42.8416 25.6166 42.7333 25.7499 42.6833 25.8999C42.5666 26.2583 42.6249 26.6583 42.6416 27.0416C42.6666 27.4666 42.6166 27.8583 42.5166 28.2166Z" fill="#F0CA8C"/>
<path d="M48.2334 29.8747C47.4668 30.3913 46.7084 30.908 45.9334 31.3663C44.2918 32.3413 42.1668 31.6663 41.3751 29.933C41.2084 30.0747 41.0418 30.208 40.8501 30.333L42.3668 33.658C44.3834 33.0413 46.1251 31.8913 47.8918 30.683C48.3251 30.3663 48.7751 30.0247 49.0001 29.533C49.0501 29.4163 49.1251 29.2163 49.2001 28.958C48.9584 29.333 48.5918 29.6163 48.2334 29.8747Z" fill="#EABE7F"/>
<path d="M29.7417 22.8753C25.5083 23.3669 22.0333 21.2503 20.625 19.0669L22.725 15.9336C23.0417 16.4503 23.4083 16.9669 23.8667 17.4336C23.8667 17.4419 23.8667 17.4419 23.875 17.4503C24.4167 18.0169 25.0833 18.5086 25.8833 18.8669C27.025 19.3669 28.1917 19.6003 29.225 19.6336L29.7417 22.8753Z" fill="#B3B3B3"/>
<path d="M24.3089 21.6586C22.4089 20.6419 21.8339 18.1836 23.0255 16.4003C22.9172 16.2419 22.8089 16.0919 22.7172 15.9336L20.6172 19.0669C22.0255 21.2503 25.5005 23.3669 29.7339 22.8753V22.8586C27.6672 22.9669 25.8089 22.4669 24.3089 21.6586Z" fill="#999999"/>
<path d="M18.1583 48.7084C18.1333 49.4167 17.9666 50.1 17.8333 50.8C17.7083 51.4584 17.5999 52.15 17.3666 52.775C17.2666 53.0667 17.1333 53.3334 16.9583 53.5917C16.6583 54.0334 16.1083 54.5 15.4333 54.8917C15.3916 54.9084 15.3499 54.9334 15.3166 54.9584C15.1666 55.0417 14.9999 55.125 14.8333 55.2C14.7749 55.225 14.7499 55.2334 14.7499 55.2334C13.6916 55.7167 12.4499 55.9834 11.3916 55.7834C11.0916 55.725 10.6249 54.7667 10.7333 54.35C10.8083 54.0584 11.6249 53.95 11.8916 53.8084C12.7333 53.375 13.4083 52.6084 13.6916 51.7C13.9166 50.9584 13.8999 50.175 13.9083 49.3917C13.9083 48.6167 13.9249 47.8167 14.2249 47.1084C14.5249 46.3917 15.1666 45.7667 15.9333 45.7084C16.6416 45.65 17.3166 46.075 17.6999 46.675C18.0749 47.2667 18.1916 48 18.1583 48.7084Z" fill="#EFD092"/>
<path d="M13.9748 51.1583C14.1998 50.4167 14.1831 49.6333 14.1915 48.85C14.1915 48.0917 14.2165 47.3167 14.4915 46.625C14.3831 46.775 14.2915 46.9417 14.2165 47.1167C13.9165 47.825 13.8998 48.6167 13.8998 49.4C13.8915 50.175 13.9081 50.9667 13.6831 51.7083C13.6498 51.8083 13.5998 51.9083 13.5498 52.0083C13.7331 51.7333 13.8831 51.4583 13.9748 51.1583Z" fill="#EABE7F"/>
<path d="M17.2416 53.0338C16.9416 53.4755 16.3916 53.9421 15.7166 54.3338C15.675 54.3505 15.6333 54.3755 15.6 54.4005C15.45 54.4838 15.2833 54.5671 15.1166 54.6421C15.0583 54.6671 15.0333 54.6755 15.0333 54.6755C13.975 55.1588 12.7333 55.4255 11.675 55.2255C11.4333 55.1838 11.0916 54.5588 11.0166 54.1005C10.8666 54.1671 10.75 54.2421 10.725 54.3421C10.6166 54.7588 11.0833 55.7171 11.3833 55.7755C12.4416 55.9755 13.6833 55.7005 14.7416 55.2255C14.7416 55.2255 14.7666 55.2171 14.825 55.1921C14.9916 55.1088 15.15 55.0255 15.3083 54.9505C15.3416 54.9338 15.3833 54.9088 15.425 54.8838C16.1 54.4838 16.6583 54.0255 16.95 53.5838C17.075 53.4005 17.175 53.2088 17.2583 53.0088C17.2583 53.0171 17.25 53.0255 17.2416 53.0338Z" fill="#EABE7F"/>
<path d="M54.4085 56.6671H5.59183C5.24183 56.6671 4.9585 56.3837 4.9585 56.0337C4.9585 55.6837 5.24183 55.4004 5.59183 55.4004H54.4002C54.7502 55.4004 55.0335 55.6837 55.0335 56.0337C55.0418 56.3837 54.7585 56.6671 54.4085 56.6671Z" fill="#1A1A1A"/>
</svg>
