<svg width="60" height="60" viewBox="0 0 60 60" fill="none" xmlns="http://www.w3.org/2000/svg">
<path d="M16.875 16.8475V22.5H43.125V16.8475C40.4556 17.4319 36.1373 17.8125 31.2268 17.8125H28.7732C23.8627 17.8125 19.5444 17.4319 16.875 16.8475Z" fill="#38668C"/>
<path d="M4.18189 37.9393C2.34562 39.7755 2.34562 42.7321 4.18189 44.5684C6.01816 46.4046 8.97475 46.4046 10.811 44.5684L19.4289 35.9505C20.1634 35.216 20.1634 34.0334 19.4289 33.2989L15.4514 29.3214C14.7169 28.5869 13.5343 28.5869 12.7998 29.3214L4.18189 37.9393Z" fill="#E4EFF8"/>
<path d="M14.1245 28.7695C13.7437 28.7695 13.3652 28.8911 13.0405 29.1229C13.1249 29.1831 13.2083 29.2449 13.2841 29.3207L17.2611 33.2977C17.9956 34.0322 17.9956 35.2164 17.2611 35.9509L8.64416 44.5679C8.00549 45.2065 7.22757 45.6076 6.41211 45.802C7.94165 46.1672 9.61226 45.7659 10.8103 44.5679L19.4291 35.9509C20.1636 35.2164 20.1636 34.0322 19.4291 33.2977L15.452 29.3207C15.0848 28.9534 14.6038 28.7695 14.1245 28.7695Z" fill="#C4DCF0"/>
<path d="M17.9388 31.8076L19.4293 33.2981C20.1638 34.0326 20.1638 35.2168 19.4293 35.9513L10.8105 44.5682C10.6531 44.7257 10.485 44.8644 10.3125 44.9949V54.3754C10.3125 55.9335 11.5669 57.1879 13.125 57.1879H46.875C48.4331 57.1879 49.6875 55.9335 49.6875 54.3754V44.9949C49.5149 44.8644 49.3469 44.7257 49.1895 44.5682L40.5707 35.9513C39.8362 35.2168 39.8362 34.0326 40.5707 33.2981L42.0612 31.8076H17.9388Z" fill="#FF9822"/>
<path d="M36.5625 31.8076V32.8129C36.5625 36.129 34.1244 38.8485 30.9375 39.3021C31.2445 39.3458 31.5555 39.3754 31.875 39.3754C35.5106 39.3754 38.4375 36.4485 38.4375 32.8129V31.8076H36.5625Z" fill="#C4DCF0"/>
<path d="M17.9388 31.8076L19.4293 33.2981C20.1638 34.0326 20.1638 35.2168 19.4293 35.9513L10.8105 44.5682C10.6531 44.7257 10.485 44.8644 10.3125 44.9949V46.6886C11.0722 46.4804 11.7954 46.0974 12.3944 45.4984L21.0114 36.8796C21.7459 36.1451 21.7459 34.9628 21.0114 34.2283L18.5907 31.8076H17.9388Z" fill="#C4DCF0"/>
<path d="M26.25 38.4375V48.75L30 52.5L33.75 48.75V38.4375H26.25Z" fill="#019147"/>
<path d="M31.875 38.4375V48.1494L28.7622 51.2622L30 52.5L33.75 48.75V38.4375H31.875Z" fill="#2C5170"/>
<path d="M47.8124 43.1904V52.4995C47.8124 54.0576 46.558 55.312 44.9999 55.312H11.2499C10.9669 55.312 10.6996 55.2591 10.4424 55.182C10.7896 56.3412 11.8497 57.187 13.1249 57.187H46.8749C48.433 57.187 49.6874 55.9326 49.6874 54.3745V44.994C49.5148 44.8636 49.3468 44.7249 49.1893 44.5674L47.8124 43.1904Z" fill="#FF9822"/>
<path d="M55.8179 37.9393C57.6542 39.7755 57.6542 42.7321 55.8179 44.5684C53.9816 46.4046 51.025 46.4046 49.1888 44.5684L40.5709 35.9505C39.8364 35.216 39.8364 34.0334 40.5709 33.2989L44.5484 29.3214C45.2829 28.5869 46.4655 28.5869 47.2 29.3214L55.8179 37.9393Z" fill="#E4EFF8"/>
<path d="M45.8754 28.7695C45.4228 28.7695 44.972 28.9401 44.6138 29.2676C44.8711 29.358 45.1141 29.5006 45.3206 29.707L53.9393 38.324C55.7756 40.1602 55.7756 43.1161 53.9393 44.9524C53.5045 45.3872 53.0033 45.7123 52.4727 45.9412C53.6813 45.9493 54.8918 45.494 55.818 44.5679C57.6543 42.7316 57.6543 39.7757 55.818 37.9395L47.201 29.3207C46.8338 28.9534 46.3546 28.7695 45.8754 28.7695Z" fill="#C4DCF0"/>
<path d="M36.5625 30V32.8125C36.5625 36.4481 33.6356 39.375 30 39.375C26.3644 39.375 23.4375 36.4481 23.4375 32.8125V30H36.5625Z" fill="#FFC6A0"/>
<path d="M23.4375 30V32.0142C25.1263 33.6679 27.4387 34.6875 30 34.6875C32.5613 34.6875 34.8737 33.6679 36.5625 32.0142V30H23.4375Z" fill="#FFAF7A"/>
<path d="M34.6875 30V32.8125C34.6875 36.1286 32.2494 38.8482 29.0625 39.3018C29.3695 39.3455 29.6805 39.375 30 39.375C33.6356 39.375 36.5625 36.4481 36.5625 32.8125V30L34.6875 30Z" fill="#FFAF7A"/>
<path d="M20.6249 23.4377C20.6249 25.9687 21.6223 28.2546 23.2415 29.938C23.3401 30.0217 23.4301 30.287 23.4301 30.4726C23.4301 32.2566 22.0183 33.6916 20.2477 33.7447C20.1554 33.4804 20.0092 33.2297 19.7972 33.0178L15.7322 28.9529C15.5025 28.7232 15.2267 28.5733 14.9375 28.4841C16.3326 26.9304 16.8674 25.2504 16.8674 24.3789V22.5039C16.8674 21.4652 17.7037 20.6289 18.7424 20.6289C19.7812 20.6289 20.6174 21.4652 20.6212 22.514L20.6249 23.4377Z" fill="#FFC6A0"/>
<path d="M18.75 20.6289L18.75 23.4377C18.75 26.8473 20.5579 29.8119 23.2654 31.4523C23.363 31.1414 23.4302 30.8169 23.4302 30.4727C23.4302 30.287 23.3402 30.0218 23.2416 29.938C21.6225 28.2546 20.625 25.9687 20.625 23.4377L20.6213 22.514C20.6177 21.4676 19.7853 20.6329 18.75 20.6289Z" fill="#FFAF7A"/>
<path d="M39.375 23.4377C39.375 25.9687 38.3775 28.2546 36.7584 29.938C36.6598 30.0218 36.5698 30.287 36.5698 30.4727C36.5698 32.2566 37.9816 33.6916 39.7522 33.7448C39.8445 33.4804 39.9907 33.2298 40.2026 33.0178L44.2676 28.9529C44.4973 28.7232 44.773 28.5733 45.0623 28.4841C43.6672 26.9304 43.1323 25.2504 43.1323 24.3789V22.5039C43.1323 21.4652 42.2961 20.6289 41.2573 20.6289C40.2186 20.6289 39.3823 21.4652 39.3787 22.514L39.375 23.4377Z" fill="#FFC6A0"/>
<path d="M43.125 16.8475C42.5796 16.9669 41.924 17.0708 41.25 17.1716V22.5H43.125V16.8475Z" fill="#2C5170"/>
<path d="M41.2571 20.6289C40.9131 20.6289 40.5961 20.7267 40.3196 20.8871C40.8781 21.2111 41.2571 21.8092 41.2571 22.5039V24.3789C41.2571 25.1099 41.6336 26.4101 42.5781 27.7271C42.9495 28.1751 42.6718 28.6734 42.3923 28.9529L38.3274 33.0178C38.2542 33.091 38.1986 33.1745 38.1406 33.2559C38.6134 33.5445 39.1593 33.727 39.752 33.7448C39.8443 33.4804 39.9905 33.2297 40.2024 33.0178L44.2673 28.9529C44.497 28.7232 44.7728 28.5733 45.062 28.4841C43.6669 26.9304 43.1321 25.2504 43.1321 24.3789V22.5039C43.1321 21.4652 42.2958 20.6289 41.2571 20.6289Z" fill="#FFAF7A"/>
<path d="M39.375 17.3154V23.4371C39.375 28.6309 35.1937 32.8121 30 32.8121C24.8063 32.8121 20.625 28.6309 20.625 23.4371V17.3154H39.375Z" fill="#FFC6A0"/>
<path d="M37.5 17.3163V23.4375C37.5 28.3147 33.8127 32.2991 29.0625 32.7667C29.3708 32.7971 29.6834 32.8125 30 32.8125C35.1937 32.8125 39.375 28.6312 39.375 23.4375V17.3163H37.5Z" fill="#FFAF7A"/>
<path d="M29.5312 2.8125C22.5197 2.8125 16.875 8.45719 16.875 15.4688V16.8475C19.5444 17.4319 23.8627 17.8125 28.7732 17.8125H31.2268C36.1373 17.8125 40.4556 17.4319 43.125 16.8475V15.4688C43.125 8.45719 37.4803 2.8125 30.4687 2.8125H29.5312Z" fill="#21CC74"/>
<path d="M43 17V15.6C43 8.6196 36.979 3 29.5 3H28.5C28.3312 3 28.1672 3.01802 28 3.0237C35.2436 3.26949 41 8.77713 41 15.6V17H43Z" fill="#019147"/>
<path d="M29.0625 25.3125H30.9375C31.9763 25.3125 32.8125 26.1487 32.8125 27.1875C32.8125 28.2263 31.9763 29.0625 30.9375 29.0625H29.0625C28.0237 29.0625 27.1875 28.2263 27.1875 27.1875C27.1875 26.1487 28.0237 25.3125 29.0625 25.3125Z" fill="#E4EFF8"/>
<path d="M29.0625 25.3125C28.0238 25.3125 27.1875 26.1488 27.1875 27.1875C27.1875 28.2262 28.0238 29.0625 29.0625 29.0625C29.0625 28.0238 29.8988 27.1875 30.9375 27.1875H32.8125C32.8125 26.1488 31.9762 25.3125 30.9375 25.3125H29.0625Z" fill="#C4DCF0"/>
<path d="M29.5316 1.875C21.9802 1.875 15.9399 7.9522 15.9399 15.4669C15.9399 18.1084 15.9398 21.351 15.9399 24.3805C15.9399 24.9952 15.5161 26.4331 14.2736 27.8357C13.495 27.7942 12.7147 28.0837 12.1405 28.6578L3.52181 37.2747C1.3224 39.4742 1.32973 43.0405 3.52181 45.2325C5.11181 46.8226 7.39582 47.2593 9.37562 46.5601L9.37745 54.375C9.37794 56.4725 11.0679 58.125 13.1292 58.125H46.8751C48.9364 58.125 50.6246 56.4725 50.6251 54.375L50.627 46.5601C52.6067 47.2593 54.8908 46.8226 56.4808 45.2325C58.6729 43.0405 58.6729 39.4668 56.4808 37.2747L47.8639 28.6578C47.2897 28.0836 46.5094 27.794 45.7308 27.8357C44.4883 26.4331 44.0645 24.9952 44.0645 24.3805C44.0646 21.351 44.0645 18.1084 44.0645 15.4669C44.0645 7.9522 38.0242 1.875 30.4728 1.875H29.5316ZM29.5316 3.75183H30.4728C36.9813 3.75183 42.1895 8.98959 42.1895 15.4669V16.0822C39.5952 16.5558 35.6402 16.8713 31.2271 16.8713H28.7772C24.3642 16.8713 20.4092 16.556 17.8148 16.0822V15.4669C17.8148 8.98959 23.0231 3.75183 29.5316 3.75183ZM17.8185 17.9883C18.3863 18.0864 19.0354 18.1803 19.6898 18.2611V19.856C19.3917 19.7472 19.0746 19.6894 18.7413 19.6894C18.4154 19.6894 18.1069 19.7461 17.8148 19.8506L17.8185 17.9883ZM42.1894 19.8505C41.8974 19.7459 41.5888 19.6892 41.2629 19.6892C40.9298 19.6892 40.6125 19.747 40.3144 19.8558V18.2609C40.9687 18.1802 41.6179 18.0863 42.1858 17.9882L42.1894 19.8505ZM21.5648 18.4534C23.7095 18.6415 26.1541 18.7482 28.7772 18.7482H31.2271C33.8503 18.7482 36.2948 18.6415 38.4396 18.4534V23.4393C38.4396 28.1299 34.6617 31.8768 30.0022 31.8768C25.3426 31.8768 21.5648 28.1299 21.5648 23.4393V18.4534ZM19.6862 22.5055L19.6897 23.4393C19.7007 26.251 20.759 28.6722 22.4912 30.5164C22.4806 31.7942 21.4237 32.7844 20.2537 32.8106C20.2051 32.7536 20.119 32.6611 20.0651 32.6073C18.7259 31.2656 17.4164 29.9387 16.0716 28.6119C17.3053 27.0304 17.8147 25.3868 17.8147 24.3803V22.5054C17.8147 21.9698 18.2315 21.5642 18.7413 21.5643C19.2407 21.5643 19.6824 21.9699 19.6862 22.5055ZM42.1895 22.5055V24.3805C42.1895 25.3869 42.699 27.0305 43.9327 28.612C42.5879 29.9389 41.2784 31.2658 39.9392 32.6074C39.8853 32.6613 39.7992 32.7534 39.7507 32.8108C38.5807 32.786 37.5237 31.7943 37.5132 30.5165C39.2453 28.6723 40.3036 26.2512 40.3147 23.4395L40.3182 22.5056C40.3218 21.97 40.7637 21.5645 41.263 21.5644C41.7727 21.5643 42.1895 21.9699 42.1895 22.5055ZM29.0683 24.3732C27.5081 24.3732 26.2504 25.6273 26.2504 27.1912C26.2504 28.755 27.5264 30 29.0683 30H30.936C32.4779 30 33.754 28.755 33.754 27.1912C33.754 25.6273 32.4963 24.3732 30.936 24.3732H29.0683ZM29.0683 26.25H30.936C31.4716 26.25 31.879 26.6995 31.879 27.1912C31.879 27.6828 31.4716 28.125 30.936 28.125H29.0683C28.5328 28.125 28.1254 27.6828 28.1254 27.1912C28.1254 26.6995 28.5328 26.25 29.0683 26.25ZM14.1271 29.707C14.3646 29.707 14.6006 29.7977 14.79 29.9873L18.7596 33.9516C19.1384 34.3303 19.1384 34.9168 18.7596 35.2955L10.152 43.9033C8.67147 45.3838 6.31333 45.3728 4.84381 43.9033C3.36332 42.4229 3.38905 40.0569 4.84381 38.6024L13.4625 29.9873C13.6518 29.7981 13.8896 29.707 14.1271 29.707ZM45.8772 29.707C46.1146 29.707 46.3525 29.7977 46.5419 29.9873L55.1587 38.6024C56.6135 40.0569 56.6392 42.4229 55.1587 43.9033C53.6892 45.3728 51.3311 45.3838 49.8506 43.9033L41.2447 35.2955C40.866 34.9168 40.866 34.3303 41.2447 33.9516L45.2144 29.9873C45.4036 29.7981 45.6397 29.707 45.8772 29.707ZM24.3773 32.0892C25.9959 33.1458 27.9241 33.7518 30.0022 33.7518C32.0803 33.7518 34.0085 33.1458 35.6271 32.0892V32.8106C35.6271 35.9431 33.1201 38.4356 30.0022 38.4356C26.8843 38.4356 24.3773 35.9431 24.3773 32.8106V32.0892ZM25.3147 38.6774L25.3166 48.7482C25.3147 48.9965 25.4116 49.2357 25.5859 49.4128L29.3377 53.1628C29.5209 53.3471 29.7617 53.4392 30.0024 53.4392C30.243 53.4392 30.4838 53.3471 30.667 53.1628L34.4188 49.4128C34.5931 49.2357 34.6899 48.9966 34.6881 48.7482L34.69 38.6774C36.1347 37.5181 37.14 35.8355 37.4219 33.9203C37.9155 34.2735 38.464 34.5064 39.0826 34.6197C39.0798 35.3456 39.3661 36.0677 39.9139 36.6156L48.5289 45.2325C48.6001 45.3037 48.6784 45.3764 48.7525 45.443L48.7506 54.3749C48.7504 55.4298 47.9013 56.2499 46.8756 56.2499H13.1297C12.104 56.2499 11.2531 55.4298 11.2529 54.3749L11.251 45.443C11.3249 45.3764 11.4033 45.3034 11.4744 45.2325L20.0912 36.6156C20.6392 36.0677 20.9253 35.3456 20.9225 34.6197C21.5411 34.5064 22.0896 34.2736 22.5831 33.9203C22.8647 35.8355 23.87 37.5181 25.3147 38.6774ZM27.1897 39.7723C28.0584 40.1245 29.0082 40.3125 30.0022 40.3125C30.9962 40.3125 31.9459 40.1244 32.8147 39.7723L32.8128 48.36L30.0022 51.178L27.1915 48.36L27.1897 39.7723ZM30.0003 42.1875C29.4826 42.1875 29.0629 42.6072 29.0629 43.125C29.0629 43.6427 29.4826 44.0625 30.0003 44.0625C30.5181 44.0625 30.9378 43.6427 30.9378 43.125C30.9378 42.6072 30.5181 42.1875 30.0003 42.1875ZM30.0003 45.9375C29.4826 45.9375 29.0629 46.3572 29.0629 46.875C29.0629 47.3928 29.4826 47.8125 30.0003 47.8125C30.5181 47.8125 30.9378 47.3928 30.9378 46.875C30.9378 46.3572 30.5181 45.9375 30.0003 45.9375Z" fill="#121413"/>
</svg>
