<svg width="40" height="40" viewBox="0 0 40 40" fill="none" xmlns="http://www.w3.org/2000/svg">
<path d="M20 29.4395C25.2133 29.4395 29.4395 25.2133 29.4395 20C29.4395 14.7867 25.2133 10.5605 20 10.5605C14.7867 10.5605 10.5605 14.7867 10.5605 20C10.5605 25.2133 14.7867 29.4395 20 29.4395Z" fill="#F7B44B"/>
<path d="M21.7469 10.7217C24.3616 12.4001 26.0941 15.3333 26.0941 18.6711C26.0941 23.8843 21.8679 28.1106 16.6547 28.1106C16.0579 28.1106 15.4743 28.0546 14.9082 27.9487C16.3773 28.8918 18.125 29.4387 20.0004 29.4387C25.2136 29.4387 29.4398 25.2125 29.4398 19.9993C29.4398 15.3828 26.1256 11.5409 21.7469 10.7217Z" fill="#F58C3B"/>
<path d="M19.3755 31.2751H20.6255V38.9189H19.3755V31.2751Z" fill="#F58C3B"/>
<path d="M31.2759 19.375H38.9196V20.625H31.2759V19.375Z" fill="#F58C3B"/>
<path d="M1.08105 19.375H8.7248V20.625H1.08105V19.375Z" fill="#F58C3B"/>
<path d="M19.3755 1.2041H20.6255V8.72418H19.3755V1.2041Z" fill="#F58C3B"/>
<path d="M27.5776 5.62329L28.6601 6.24829L26.1783 10.5469L25.0958 9.9219L27.5776 5.62329Z" fill="#F7B44B"/>
<path d="M33.7515 11.3379L34.3765 12.4204L30.0779 14.9022L29.4529 13.8197L33.7515 11.3379Z" fill="#F7B44B"/>
<path d="M30.0771 25.0948L34.3757 27.5767L33.7507 28.6592L29.4521 26.1773L30.0771 25.0948Z" fill="#F7B44B"/>
<path d="M26.1797 29.4513L28.6616 33.75L27.5791 34.375L25.0972 30.0763L26.1797 29.4513Z" fill="#F7B44B"/>
<path d="M13.8208 29.4512L14.9033 30.0762L12.4214 34.3748L11.3389 33.7498L13.8208 29.4512Z" fill="#F7B44B"/>
<path d="M9.92334 25.0959L10.5483 26.1784L6.2498 28.6603L5.6248 27.5778L9.92334 25.0959Z" fill="#F7B44B"/>
<path d="M6.24902 11.338L10.5476 13.8199L9.92263 14.9024L5.62402 12.4205L6.24902 11.338Z" fill="#F7B44B"/>
<path d="M12.4224 5.62317L14.9042 9.92178L13.8217 10.5468L11.3399 6.24817L12.4224 5.62317Z" fill="#F7B44B"/>
</svg>
