<svg width="272" height="272" viewBox="0 0 272 272" fill="none" xmlns="http://www.w3.org/2000/svg">
<path opacity="0.12" d="M271.676 136.406L272 135.959L271.676 135.513C271.513 135.27 260.237 120.384 242.553 111.461C252.369 100.996 255.573 86.881 255.613 86.7593L255.735 86.232L255.289 85.9887C255.167 85.9075 242.512 78.9717 228.194 79.3367C235.009 60.0704 232.291 40.6418 232.251 40.3173L232.169 39.79L231.642 39.7089C231.358 39.6684 212.822 37.113 194.042 43.2783C193.596 29.0009 185.849 16.7516 185.768 16.6299L185.484 16.1837L184.957 16.346C184.795 16.3865 170.963 20.402 161.107 30.7856C152.305 12.3305 136.649 0.527289 136.406 0.324486L136 0L135.554 0.324486C135.31 0.486728 120.425 11.7626 111.501 29.4471C101.037 19.6314 86.9216 16.4271 86.7999 16.3865L86.2726 16.2648L86.0292 16.711C85.9481 16.8327 79.0122 29.4876 79.3773 43.8055C60.1109 36.9914 40.6824 39.7089 40.3579 39.7495L39.8306 39.8306L39.7495 40.3579C39.7089 40.6418 37.1536 59.178 43.3188 77.9576C28.9603 78.4038 16.7516 86.1103 16.5893 86.1915L16.1432 86.4754L16.3054 87.0027C16.346 87.1649 20.3615 100.996 30.745 110.852C12.3304 119.654 0.486728 135.31 0.324486 135.554L0 136L0.324486 136.446C0.486728 136.69 11.7626 151.616 29.4471 160.499C19.6314 170.963 16.4271 185.078 16.3865 185.2L16.2648 185.727L16.711 185.971C16.8327 186.052 28.7981 192.623 42.6293 192.623C43.0349 192.623 43.3999 192.623 43.8055 192.623C36.9914 211.889 39.7089 231.318 39.7495 231.642L39.8306 232.169L40.3579 232.251C40.4796 232.251 44.414 232.818 50.4575 232.818C57.6367 232.818 67.7364 232.048 77.9576 228.681C78.4038 242.999 86.1103 255.248 86.1915 255.37L86.4754 255.816L87.0027 255.654C87.1649 255.613 100.996 251.598 110.852 241.214C119.654 259.67 135.31 271.473 135.554 271.676L136 272L136.446 271.676C136.69 271.513 151.575 260.237 160.499 242.553C170.963 252.369 185.078 255.573 185.2 255.613L185.727 255.735L185.971 255.289C186.052 255.167 192.988 242.512 192.623 228.194C203.29 231.967 214.039 232.818 221.543 232.818C227.545 232.818 231.48 232.251 231.642 232.251L232.169 232.169L232.251 231.642C232.291 231.358 234.846 212.822 228.681 194.042C243.04 193.596 255.248 185.89 255.411 185.809L255.857 185.525L255.695 184.997C255.654 184.835 251.639 171.004 241.255 161.148C259.629 152.346 271.473 136.649 271.676 136.406ZM236.509 108.824C236.428 108.743 236.307 108.662 236.185 108.622C236.023 108.581 235.82 108.54 235.658 108.5C235.293 108.378 234.968 108.256 234.603 108.135C233.427 107.608 232.372 106.756 231.642 105.62C230.588 104.038 230.182 102.132 230.547 100.266C231.115 97.2645 234.076 95.2771 237.077 95.8449C239.43 96.2911 240.971 98.5625 240.484 100.915C240.322 101.807 239.795 102.537 239.065 103.065C238.335 103.551 237.442 103.754 236.55 103.592C235.171 103.308 234.279 101.97 234.522 100.591C234.725 99.5765 235.739 98.887 236.753 99.0898C237.523 99.252 238.01 99.9821 237.848 100.753C237.726 101.28 237.199 101.645 236.672 101.523C236.509 101.483 236.347 101.402 236.225 101.239C236.144 101.077 236.104 100.915 236.104 100.753C236.144 100.509 236.347 100.388 236.591 100.428C236.915 100.509 237.239 100.266 237.321 99.9415C237.402 99.6171 237.158 99.2926 236.834 99.2115C236.388 99.1303 235.942 99.2114 235.576 99.4548C235.211 99.6982 234.968 100.063 234.887 100.509C234.684 101.564 235.374 102.578 236.428 102.781C237.645 103.024 238.821 102.213 239.065 100.996C239.349 99.5765 238.416 98.1569 236.956 97.873C235.252 97.5485 233.589 98.6436 233.265 100.388C232.859 102.456 234.197 104.444 236.266 104.849C237.483 105.093 238.7 104.849 239.714 104.16C240.728 103.47 241.417 102.416 241.661 101.239C242.228 98.238 240.322 95.3582 237.361 94.7092L253.748 87.895C252.693 91.6672 249.124 102.578 241.093 110.893C239.673 110.122 238.132 109.433 236.509 108.824ZM229.33 171.896C229.492 172.748 229.817 173.519 230.263 174.249L212.173 166.786C213.714 166.948 215.256 166.988 216.756 166.988C221.786 166.988 226.572 166.218 231.074 164.96C230.912 165.163 230.75 165.366 230.588 165.609C229.371 167.475 228.925 169.706 229.33 171.896ZM211.646 168.124L229.776 175.587C228.925 175.749 228.154 176.115 227.424 176.601C225.234 178.061 223.976 180.373 223.773 182.807C220.772 177.453 216.837 172.423 211.646 168.124ZM166.623 205.562C165.893 205.034 162.73 202.114 165.65 194.367C167.84 195.624 170.193 196.719 172.707 197.571C172.302 199.396 170.761 204.913 166.623 205.562ZM175.628 229.695L168.124 211.646C172.423 216.797 177.453 220.731 182.766 223.733C180.373 223.976 178.102 225.234 176.642 227.383C176.155 228.113 175.79 228.884 175.628 229.695ZM153.563 205.48C154.698 203.087 155.631 200.654 156.28 198.22C163.906 201.627 163.703 205.927 163.581 206.86C160.174 209.334 155.104 206.454 153.563 205.48ZM108.459 206.86C108.338 205.967 108.135 201.668 115.679 198.261C116.328 200.694 117.261 203.128 118.397 205.521C116.855 206.535 111.826 209.334 108.459 206.86ZM95.3987 227.424C93.9386 225.234 91.6266 223.976 89.193 223.773C94.547 220.772 99.5765 216.837 103.876 211.646L96.4128 229.776C96.21 228.965 95.8855 228.154 95.3987 227.424ZM99.2926 197.571C101.807 196.679 104.16 195.584 106.35 194.326C109.352 202.154 106.147 205.034 105.417 205.602C101.239 204.953 99.6576 199.315 99.2926 197.571ZM90.7748 201.019C90.7748 200.613 90.7748 200.167 90.7343 199.721C93.3302 199.275 95.8044 198.666 98.1163 197.936C99.901 206.008 96.3722 208.401 95.561 208.806C92.1539 207.792 91.0993 203.412 90.7748 201.019ZM48.2672 182.766C48.0239 180.373 46.7665 178.102 44.6168 176.642C43.8867 176.155 43.116 175.831 42.3048 175.628L60.3543 168.124C55.1625 172.383 51.2282 177.412 48.2672 182.766ZM40.8446 164.96C45.3874 166.258 50.1736 166.988 55.2437 166.988C56.7444 166.988 58.2857 166.907 59.827 166.786L41.6964 174.33C42.1426 173.6 42.5076 172.829 42.6698 171.937C43.1566 169.341 42.3859 166.826 40.8446 164.96ZM42.6293 100.104C42.467 99.252 42.1426 98.4408 41.6964 97.7513L59.7865 105.214C53.0939 104.606 46.7665 105.377 40.8852 107.04C42.4265 105.133 43.1566 102.659 42.6293 100.104ZM48.2267 89.193C51.2282 94.547 55.1625 99.5765 60.3543 103.876L42.1831 96.4128C42.9943 96.2505 43.8055 95.8855 44.5356 95.3987C46.4014 94.1414 47.6588 92.235 48.0644 90.0447C48.1455 89.7608 48.1861 89.4769 48.2267 89.193ZM105.336 66.4384C106.107 67.0063 109.271 69.8455 106.31 77.6332C104.119 76.3758 101.767 75.2806 99.252 74.4289C99.6576 72.5631 101.199 67.0468 105.336 66.4384ZM118.397 66.479C117.261 68.8721 116.328 71.3057 115.679 73.7393C108.054 70.3322 108.256 66.0328 108.378 65.0999C111.826 62.6257 116.896 65.5055 118.397 66.479ZM163.5 65.1405C163.662 66.0734 163.865 70.3322 156.28 73.7393C155.631 71.3057 154.698 68.8721 153.563 66.479C155.145 65.465 160.134 62.6663 163.5 65.1405ZM176.601 44.5762C178.061 46.7665 180.373 48.0239 182.807 48.2267C177.453 51.2282 172.424 55.1625 168.084 60.3543L175.547 42.2237C175.749 43.0349 176.074 43.8461 176.601 44.5762ZM172.707 74.4289C170.193 75.3212 167.84 76.4163 165.65 77.6737C162.648 69.8455 165.853 66.9657 166.583 66.3979C170.761 67.0063 172.302 72.6442 172.707 74.4289ZM181.185 70.9406C181.185 71.3463 181.185 71.7924 181.225 72.2386C178.629 72.6848 176.155 73.2932 173.843 74.0233C172.058 65.9517 175.587 63.5586 176.398 63.153C179.846 64.2076 180.901 68.5881 181.185 70.9406ZM223.733 89.2335C223.976 91.6266 225.234 93.898 227.383 95.3582C228.113 95.8449 228.884 96.1694 229.695 96.3722L211.646 103.876C216.797 99.5765 220.731 94.547 223.733 89.2335ZM221.948 136C218.176 140.462 202.601 157.254 182.888 153.441C182.969 153.198 183.05 152.954 183.132 152.711C183.172 152.63 183.172 152.549 183.213 152.468C183.334 152.143 183.415 151.819 183.537 151.494C183.537 151.454 183.578 151.413 183.578 151.413C183.618 151.494 183.659 151.575 183.74 151.616C184.064 152.021 184.47 152.224 184.47 152.224C184.47 152.224 184.592 152.224 184.713 152.184C184.876 152.143 185.078 152.021 185.322 151.859C185.768 151.535 186.214 150.967 186.295 149.912L184.146 149.628C184.713 147.56 185.16 145.41 185.484 143.26V143.22C185.525 142.855 185.606 142.449 185.646 142.084C185.646 142.044 185.646 142.003 185.646 141.962C185.687 141.597 185.727 141.273 185.768 140.908C185.768 140.827 185.768 140.746 185.809 140.664C185.849 140.34 185.849 140.056 185.89 139.732C185.89 139.61 185.89 139.448 185.93 139.326C185.93 139.042 185.971 138.799 185.971 138.515C185.971 138.312 185.971 138.069 186.011 137.866C186.011 137.663 186.011 137.501 186.052 137.298C186.092 136.487 186.092 135.635 186.052 134.824C186.052 134.621 186.052 134.459 186.011 134.256C186.011 134.053 186.011 133.81 185.971 133.607C185.971 133.323 185.93 133.08 185.93 132.796C185.93 132.674 185.93 132.512 185.89 132.39C185.849 132.066 185.849 131.782 185.809 131.457C185.809 131.376 185.809 131.295 185.768 131.214C185.727 130.849 185.687 130.524 185.646 130.159C185.646 130.119 185.646 130.078 185.646 130.038C185.606 129.673 185.565 129.267 185.484 128.902V128.861C185.16 126.671 184.713 124.562 184.146 122.493L186.295 122.209C186.214 121.155 185.768 120.587 185.322 120.262C185.119 120.1 184.876 120.019 184.713 119.938C184.551 119.897 184.47 119.897 184.47 119.897C184.47 119.897 184.064 120.06 183.74 120.506C183.699 120.587 183.659 120.628 183.578 120.709C183.578 120.668 183.537 120.627 183.537 120.627C183.415 120.303 183.334 119.979 183.213 119.654C183.172 119.573 183.132 119.492 183.132 119.411C183.05 119.167 182.969 118.924 182.888 118.681C202.601 114.706 218.176 131.498 221.948 136ZM189.905 157.538C192.298 157.457 194.732 157.132 197.125 156.564C198.22 159.079 199.437 160.823 200.613 161.999L189.905 157.538ZM196.76 196.76C190.919 197.287 168.043 198.139 156.808 181.469C157.051 181.347 157.254 181.266 157.497 181.144C157.578 181.103 157.659 181.063 157.741 181.022C158.024 180.86 158.349 180.738 158.633 180.576C158.673 180.576 158.714 180.536 158.714 180.536C158.673 180.617 158.673 180.698 158.673 180.779C158.592 181.306 158.755 181.712 158.755 181.712C158.755 181.712 158.836 181.793 158.957 181.874C159.12 181.955 159.322 182.036 159.606 182.077C160.134 182.158 160.864 182.077 161.675 181.387L160.377 179.643C162.243 178.589 164.068 177.412 165.812 176.074C165.812 176.074 165.853 176.074 165.853 176.033C166.137 175.79 166.461 175.587 166.745 175.344C166.786 175.303 166.826 175.303 166.867 175.263C167.151 175.06 167.394 174.817 167.678 174.614C167.759 174.573 167.8 174.492 167.881 174.452C168.124 174.249 168.367 174.046 168.611 173.843C168.732 173.762 168.814 173.64 168.935 173.559C169.138 173.397 169.341 173.194 169.503 173.032C169.665 172.87 169.828 172.748 169.99 172.586C170.112 172.464 170.274 172.342 170.395 172.221C171.004 171.653 171.572 171.044 172.14 170.477C172.261 170.355 172.383 170.193 172.505 170.071C172.667 169.909 172.789 169.746 172.951 169.584C173.113 169.381 173.316 169.179 173.478 169.016C173.559 168.895 173.681 168.814 173.762 168.692C173.965 168.449 174.168 168.205 174.37 167.962C174.411 167.881 174.492 167.84 174.533 167.759C174.735 167.475 174.979 167.232 175.182 166.948C175.222 166.907 175.222 166.867 175.263 166.826C175.506 166.542 175.709 166.218 175.952 165.934C175.952 165.934 175.952 165.893 175.993 165.893C177.291 164.149 178.508 162.324 179.562 160.458L181.306 161.756C181.996 160.945 182.077 160.215 181.996 159.687C181.955 159.404 181.874 159.201 181.793 159.038C181.712 158.876 181.631 158.836 181.631 158.836C181.631 158.836 181.225 158.673 180.698 158.755C180.617 158.755 180.536 158.795 180.455 158.795C180.455 158.755 180.495 158.714 180.495 158.714C180.657 158.43 180.779 158.106 180.941 157.822C180.982 157.741 181.022 157.659 181.063 157.578C181.185 157.335 181.266 157.132 181.387 156.889C198.139 168.043 197.287 190.96 196.76 196.76ZM158.876 189.378C160.62 191.041 162.567 192.501 164.676 193.799C163.703 196.354 163.297 198.423 163.297 200.126L158.876 189.378ZM136 221.948C131.538 218.217 114.706 202.641 118.559 182.888C118.802 182.969 119.046 183.05 119.289 183.172C119.37 183.213 119.451 183.213 119.532 183.253C119.857 183.375 120.181 183.456 120.506 183.578C120.546 183.578 120.546 183.578 120.587 183.618C120.506 183.659 120.425 183.699 120.384 183.781C119.979 184.105 119.776 184.511 119.776 184.511C119.776 184.511 119.776 184.632 119.816 184.754C119.857 184.916 119.979 185.119 120.141 185.362C120.465 185.809 121.033 186.255 122.088 186.336L122.372 184.186C124.44 184.754 126.59 185.2 128.74 185.525C129.105 185.565 129.51 185.646 129.875 185.687C129.916 185.687 129.956 185.687 129.997 185.687C130.362 185.727 130.727 185.768 131.052 185.809C131.133 185.809 131.214 185.809 131.254 185.809C131.579 185.849 131.903 185.849 132.228 185.89C132.35 185.89 132.471 185.89 132.593 185.93C132.877 185.93 133.161 185.971 133.445 185.971C133.647 185.971 133.85 185.971 134.013 186.011C134.215 186.011 134.418 186.011 134.661 186.052C135.027 186.052 135.432 186.052 135.797 186.052C135.838 186.052 135.838 186.052 135.878 186.052C135.919 186.052 135.919 186.052 135.959 186.052C136.324 186.052 136.73 186.052 137.095 186.052C137.298 186.052 137.501 186.052 137.744 186.011C137.947 186.011 138.15 186.011 138.312 185.971C138.596 185.971 138.88 185.93 139.164 185.93C139.285 185.93 139.407 185.93 139.529 185.89C139.853 185.849 140.178 185.849 140.502 185.809C140.583 185.809 140.664 185.809 140.705 185.809C141.07 185.768 141.435 185.727 141.76 185.687C141.8 185.687 141.841 185.687 141.881 185.687C142.246 185.646 142.652 185.606 143.017 185.525C143.017 185.525 143.017 185.525 143.058 185.525C145.248 185.2 147.357 184.754 149.426 184.186L149.71 186.336C150.764 186.255 151.332 185.809 151.656 185.362C151.819 185.16 151.9 184.916 151.981 184.754C152.021 184.592 152.021 184.511 152.021 184.511C152.021 184.511 151.859 184.105 151.413 183.781C151.332 183.74 151.291 183.699 151.21 183.618C151.251 183.618 151.251 183.618 151.291 183.578C151.616 183.456 151.94 183.375 152.265 183.253C152.346 183.213 152.427 183.213 152.508 183.172C152.752 183.091 152.995 183.01 153.238 182.888C157.254 202.601 140.462 218.217 136 221.948ZM108.703 199.964C108.662 198.301 108.256 196.233 107.324 193.758C109.433 192.46 111.38 191 113.124 189.337L108.703 199.964ZM75.1995 196.76C74.6722 190.96 73.8205 168.043 90.4909 156.808C90.6126 157.051 90.6937 157.254 90.8154 157.497C90.8559 157.578 90.8965 157.659 90.9371 157.741C91.0993 158.065 91.221 158.349 91.3832 158.673C91.3832 158.714 91.4238 158.714 91.4238 158.755C91.3427 158.714 91.2616 158.714 91.1804 158.714C90.6531 158.633 90.2475 158.795 90.2475 158.795C90.2475 158.795 90.1664 158.876 90.0853 158.998C90.0042 159.16 89.9231 159.363 89.8825 159.647C89.8014 160.174 89.8825 160.904 90.572 161.715L92.3161 160.418C93.3707 162.283 94.547 164.109 95.8855 165.893C95.8855 165.893 95.8855 165.893 95.8855 165.934C96.1288 166.258 96.3316 166.542 96.575 166.826C96.6156 166.867 96.6156 166.907 96.6561 166.907C96.8589 167.191 97.1023 167.475 97.3051 167.718C97.3457 167.8 97.4268 167.84 97.4673 167.881C97.6701 168.124 97.873 168.367 98.0758 168.611C98.1569 168.692 98.238 168.814 98.3191 168.895C98.4814 169.098 98.6842 169.3 98.8464 169.503C98.9681 169.665 99.1303 169.787 99.252 169.949C99.3737 170.112 99.5359 170.233 99.6576 170.395C99.9415 170.679 100.225 171.004 100.509 171.288C100.793 171.572 101.077 171.856 101.402 172.14C101.564 172.261 101.686 172.423 101.848 172.545C102.01 172.667 102.132 172.829 102.294 172.951C102.497 173.113 102.7 173.316 102.902 173.478C102.984 173.559 103.105 173.64 103.186 173.721C103.43 173.924 103.673 174.127 103.916 174.33C103.998 174.37 104.038 174.452 104.119 174.492C104.403 174.735 104.647 174.938 104.931 175.141C104.971 175.182 105.012 175.182 105.012 175.222C105.296 175.466 105.62 175.668 105.904 175.912C105.904 175.912 105.945 175.912 105.945 175.952C107.689 177.25 109.514 178.467 111.42 179.522L110.122 181.266C110.933 181.955 111.664 182.036 112.191 181.955C112.475 181.915 112.678 181.834 112.84 181.752C113.002 181.671 113.043 181.59 113.043 181.59C113.043 181.59 113.205 181.185 113.124 180.657C113.124 180.576 113.083 180.495 113.083 180.414C113.124 180.414 113.164 180.455 113.164 180.455C113.448 180.617 113.773 180.738 114.057 180.901C114.138 180.941 114.219 180.982 114.3 181.022C114.543 181.144 114.746 181.225 114.99 181.347C103.916 198.139 81.0403 197.287 75.1995 196.76ZM71.4679 161.918C72.6036 160.701 73.7799 158.998 74.875 156.564C77.2681 157.132 79.7018 157.457 82.0948 157.538L71.4679 161.918ZM50.0113 136C53.7429 131.538 69.3182 114.706 89.0713 118.559C88.9902 118.802 88.909 119.046 88.8279 119.289C88.7874 119.37 88.7468 119.451 88.7468 119.573C88.6251 119.897 88.544 120.222 88.4223 120.546C88.4223 120.587 88.3817 120.627 88.3817 120.668C88.3412 120.587 88.3006 120.506 88.2195 120.465C87.895 120.06 87.4894 119.857 87.4894 119.857C87.4894 119.857 87.3677 119.857 87.2461 119.897C87.0838 119.938 86.881 120.06 86.6376 120.222C86.1915 120.546 85.7453 121.114 85.6642 122.169L87.8139 122.453C87.246 124.521 86.7999 126.63 86.4754 128.821V128.861C86.4348 129.226 86.3537 129.591 86.3132 129.997C86.3132 130.038 86.3132 130.078 86.3132 130.119C86.2726 130.484 86.232 130.808 86.1915 131.173C86.1915 131.254 86.1915 131.336 86.1509 131.417C86.1103 131.741 86.1103 132.025 86.0698 132.35C86.0698 132.471 86.0698 132.633 86.0292 132.755C86.0292 132.999 85.9887 133.282 85.9887 133.526C85.9887 133.729 85.9887 133.972 85.9481 134.175C85.9481 134.378 85.9481 134.54 85.9481 134.743C85.9075 135.554 85.9075 136.406 85.9481 137.217C85.9481 137.42 85.9481 137.582 85.9481 137.785C85.9481 137.987 85.9481 138.231 85.9887 138.434C85.9887 138.677 86.0292 138.961 86.0292 139.204C86.0292 139.326 86.0292 139.488 86.0698 139.61C86.1103 139.934 86.1103 140.218 86.1509 140.543C86.1509 140.624 86.1509 140.705 86.1915 140.786C86.232 141.151 86.2726 141.476 86.3132 141.841C86.3132 141.881 86.3132 141.922 86.3132 141.962C86.3537 142.327 86.3943 142.733 86.4754 143.098V143.139C86.7999 145.329 87.246 147.438 87.8139 149.507L85.6642 149.791C85.7453 150.845 86.1915 151.413 86.6376 151.738C86.8404 151.9 87.0838 151.981 87.2461 152.062C87.4083 152.103 87.4894 152.103 87.4894 152.103C87.4894 152.103 87.895 151.94 88.2195 151.494C88.2601 151.413 88.3006 151.373 88.3817 151.291C88.3817 151.332 88.4223 151.373 88.4223 151.373C88.544 151.697 88.6251 152.021 88.7468 152.346C88.7874 152.427 88.8279 152.508 88.8279 152.589C88.909 152.833 88.9902 153.076 89.0713 153.319C69.3993 157.254 53.7835 140.462 50.0113 136ZM82.0543 114.422C79.6612 114.503 77.2276 114.827 74.8345 115.395C73.7393 112.88 72.5225 111.136 71.3463 109.96L82.0543 114.422ZM75.1995 75.1995C81.0403 74.6722 103.916 73.8205 115.152 90.4909C114.908 90.6126 114.706 90.6937 114.462 90.8154C114.381 90.8559 114.3 90.8965 114.219 90.9371C113.935 91.0993 113.61 91.221 113.327 91.3832C113.286 91.3832 113.245 91.4238 113.245 91.4238C113.286 91.3427 113.286 91.2616 113.286 91.1804C113.367 90.6531 113.205 90.2475 113.205 90.2475C113.205 90.2475 113.124 90.1664 113.002 90.0853C112.84 90.0042 112.637 89.9231 112.353 89.8825C111.826 89.8014 111.096 89.8825 110.285 90.572L111.582 92.3161C109.717 93.3707 107.891 94.547 106.107 95.8855C106.107 95.8855 106.066 95.8855 106.066 95.926C105.782 96.1694 105.458 96.3722 105.174 96.6156C105.133 96.6561 105.093 96.6561 105.093 96.6967C104.809 96.8995 104.525 97.1429 104.282 97.3457C104.2 97.3862 104.16 97.4673 104.079 97.5079C103.835 97.7107 103.592 97.9135 103.349 98.1163C103.227 98.1974 103.146 98.2786 103.065 98.4002C102.862 98.5625 102.659 98.7653 102.456 98.9275C102.294 99.0492 102.132 99.2114 102.01 99.3331C101.848 99.4548 101.726 99.6171 101.564 99.7387C100.956 100.307 100.388 100.874 99.8199 101.483C99.6982 101.645 99.5359 101.767 99.4143 101.929C99.2926 102.091 99.1303 102.213 99.0087 102.375C98.8059 102.578 98.6436 102.781 98.4814 102.984C98.4002 103.065 98.3191 103.186 98.238 103.268C98.0352 103.511 97.8324 103.754 97.6296 103.998C97.589 104.038 97.5485 104.119 97.4673 104.16C97.224 104.444 97.0212 104.728 96.7778 105.012C96.7373 105.052 96.7372 105.052 96.6967 105.093C96.4533 105.377 96.21 105.701 96.0072 106.026C94.7092 107.77 93.4924 109.595 92.4378 111.501L90.6937 110.203C90.0042 111.015 89.923 111.745 90.0042 112.272C90.0447 112.556 90.1259 112.759 90.207 112.921C90.2881 113.083 90.3692 113.124 90.3692 113.124C90.3692 113.124 90.7748 113.286 91.3021 113.205C91.3832 113.205 91.4644 113.164 91.5455 113.164C91.5455 113.205 91.5049 113.205 91.5049 113.245C91.3427 113.57 91.1804 113.854 91.0588 114.178C91.0182 114.259 90.9776 114.341 90.9371 114.422C90.8154 114.665 90.7343 114.868 90.6126 115.111C73.861 103.916 74.7128 81.0403 75.1995 75.1995ZM113.124 82.6221C111.38 80.9591 109.433 79.499 107.324 78.201C108.297 75.6457 108.703 73.5771 108.703 71.8735L113.124 82.6221ZM136 50.0113C140.462 53.7429 157.294 69.3182 153.441 89.0713C153.198 88.9902 152.954 88.909 152.711 88.7874C152.63 88.7468 152.549 88.7468 152.468 88.7062C152.143 88.5846 151.819 88.5034 151.494 88.3817C151.454 88.3817 151.454 88.3817 151.413 88.3412C151.494 88.3006 151.575 88.2601 151.616 88.1789C152.021 87.8545 152.224 87.4489 152.224 87.4489C152.224 87.4489 152.224 87.3272 152.184 87.2055C152.143 87.0432 152.021 86.8404 151.859 86.5971C151.535 86.1509 150.967 85.7047 149.912 85.6236L149.628 87.7733C147.56 87.2055 145.41 86.7593 143.26 86.4348C142.895 86.3943 142.49 86.3131 142.125 86.2726C142.084 86.2726 142.044 86.2726 142.003 86.2726C141.638 86.232 141.273 86.1915 140.948 86.1509C140.867 86.1509 140.827 86.1509 140.746 86.1509C140.421 86.1103 140.097 86.1103 139.772 86.0698C139.65 86.0698 139.529 86.0698 139.407 86.0292C139.123 86.0292 138.839 85.9887 138.555 85.9887C138.353 85.9887 138.19 85.9887 137.987 85.9481C137.785 85.9481 137.541 85.9481 137.339 85.9075C136.973 85.9075 136.608 85.9075 136.243 85.9075C136.203 85.9075 136.162 85.9075 136.122 85.9075C136.081 85.9075 136.041 85.9075 136 85.9075C135.635 85.9075 135.27 85.9075 134.905 85.9075C134.702 85.9075 134.459 85.9075 134.256 85.9481C134.053 85.9481 133.891 85.9481 133.688 85.9887C133.404 85.9887 133.12 86.0292 132.836 86.0292C132.715 86.0292 132.593 86.0292 132.471 86.0698C132.147 86.1103 131.822 86.1103 131.498 86.1509C131.417 86.1509 131.376 86.1509 131.295 86.1509C130.93 86.1915 130.565 86.232 130.2 86.2726C130.159 86.2726 130.119 86.2726 130.078 86.2726C129.673 86.3131 129.307 86.3537 128.942 86.4348C126.752 86.7593 124.643 87.2055 122.574 87.7733L122.29 85.6236C121.236 85.7047 120.668 86.1509 120.344 86.5971C120.181 86.7999 120.1 87.0432 120.019 87.2055C119.979 87.3677 119.979 87.4489 119.979 87.4489C119.979 87.4489 120.141 87.8545 120.587 88.1789C120.668 88.2195 120.709 88.2601 120.79 88.3412C120.749 88.3412 120.749 88.3412 120.709 88.3817C120.384 88.5034 120.06 88.5846 119.735 88.7062C119.654 88.7468 119.573 88.7468 119.492 88.7874C119.248 88.8685 119.005 88.9496 118.762 89.0713C114.706 69.3993 131.498 53.7835 136 50.0113ZM163.297 71.9952C163.338 73.6582 163.744 75.7268 164.676 78.201C162.567 79.499 160.62 80.9591 158.876 82.6221L163.297 71.9952ZM196.76 75.1995C197.287 81.0403 198.098 103.916 181.469 115.152C181.347 114.908 181.266 114.706 181.144 114.462C181.103 114.381 181.063 114.3 181.022 114.219C180.86 113.894 180.738 113.61 180.576 113.327C180.576 113.286 180.536 113.245 180.536 113.245C180.617 113.286 180.698 113.286 180.779 113.286C181.306 113.367 181.712 113.205 181.712 113.205C181.712 113.205 181.793 113.124 181.874 113.002C181.955 112.84 182.036 112.637 182.077 112.353C182.158 111.826 182.077 111.096 181.387 110.285L179.643 111.582C178.589 109.717 177.412 107.891 176.074 106.107C176.074 106.107 176.074 106.107 176.033 106.066C175.79 105.742 175.587 105.458 175.344 105.174C175.303 105.133 175.303 105.093 175.263 105.093C175.06 104.809 174.817 104.525 174.614 104.282C174.573 104.2 174.492 104.16 174.452 104.079C174.249 103.835 174.046 103.592 173.843 103.349C173.762 103.227 173.64 103.146 173.559 103.024C173.397 102.821 173.235 102.619 173.032 102.456C172.87 102.294 172.748 102.132 172.586 101.97C172.464 101.848 172.342 101.686 172.221 101.564C171.653 100.956 171.044 100.388 170.477 99.8199C170.355 99.6982 170.193 99.5765 170.071 99.4548C169.909 99.2926 169.746 99.1709 169.584 99.0087C169.381 98.8464 169.179 98.6436 169.016 98.4814C168.895 98.4002 168.814 98.2786 168.692 98.1974C168.449 97.9946 168.205 97.7918 167.962 97.589C167.881 97.5485 167.84 97.4673 167.759 97.4268C167.475 97.224 167.232 96.9806 166.948 96.7778C166.907 96.7373 166.867 96.7372 166.826 96.6967C166.542 96.4533 166.218 96.2505 165.934 96.0072C165.934 96.0072 165.893 96.0072 165.893 95.9666C164.149 94.6687 162.324 93.4518 160.458 92.3973L161.756 90.6531C160.945 89.9636 160.215 89.8825 159.687 89.9636C159.404 90.0042 159.201 90.0853 159.038 90.1664C158.876 90.2475 158.836 90.3287 158.836 90.3287C158.836 90.3287 158.673 90.7343 158.755 91.2616C158.755 91.3427 158.795 91.4238 158.795 91.5049C158.755 91.5049 158.714 91.4644 158.714 91.4644C158.43 91.3021 158.106 91.1804 157.822 91.0182C157.741 90.9776 157.659 90.9371 157.578 90.8965C157.335 90.7748 157.132 90.6937 156.889 90.572C168.043 73.861 190.96 74.7128 196.76 75.1995ZM182.523 120.83C182.523 120.871 182.564 120.911 182.564 120.993C182.685 121.358 182.766 121.682 182.888 122.047V122.088C183.537 124.359 184.064 126.63 184.389 128.942V128.983C184.429 129.348 184.511 129.713 184.551 130.078C184.551 130.119 184.551 130.159 184.551 130.2C184.592 130.524 184.632 130.889 184.673 131.214C184.673 131.295 184.673 131.376 184.713 131.457C184.754 131.782 184.754 132.066 184.795 132.39C184.795 132.512 184.795 132.633 184.835 132.796C184.835 133.039 184.876 133.323 184.876 133.566C184.876 133.769 184.876 133.972 184.916 134.175C184.916 134.378 184.916 134.58 184.957 134.743C184.957 135.148 184.957 135.554 184.957 135.959C184.957 136.365 184.957 136.771 184.957 137.176C184.957 137.379 184.957 137.582 184.916 137.744C184.916 137.947 184.916 138.15 184.876 138.353C184.876 138.596 184.835 138.88 184.835 139.123C184.835 139.245 184.835 139.367 184.795 139.529C184.754 139.853 184.754 140.137 184.713 140.462C184.713 140.543 184.713 140.624 184.673 140.705C184.632 141.03 184.592 141.395 184.551 141.719C184.551 141.76 184.551 141.8 184.551 141.841C184.511 142.206 184.47 142.571 184.389 142.936V142.976C184.064 145.288 183.537 147.6 182.888 149.872V149.912C182.766 150.277 182.685 150.602 182.564 150.967C182.564 151.007 182.523 151.048 182.523 151.129C182.401 151.454 182.32 151.738 182.199 152.062C182.158 152.143 182.158 152.224 182.118 152.305C182.036 152.589 181.915 152.833 181.834 153.117C181.793 153.238 181.752 153.36 181.671 153.522C181.59 153.725 181.509 153.968 181.428 154.171C181.347 154.333 181.266 154.536 181.225 154.698C181.144 154.861 181.063 155.064 181.022 155.226C180.941 155.429 180.82 155.672 180.738 155.875C180.698 155.996 180.617 156.118 180.576 156.24C180.455 156.524 180.333 156.767 180.211 157.051C180.171 157.132 180.13 157.213 180.089 157.294C179.927 157.578 179.806 157.903 179.643 158.187C179.603 158.227 179.603 158.268 179.562 158.308C179.4 158.633 179.238 158.957 179.035 159.282V159.322C177.899 161.391 176.642 163.378 175.222 165.244C174.979 165.528 174.776 165.853 174.533 166.137C174.492 166.177 174.492 166.177 174.452 166.218C174.249 166.502 174.005 166.745 173.803 167.029C173.762 167.069 173.721 167.151 173.681 167.191C173.478 167.435 173.275 167.678 173.072 167.921C172.991 168.002 172.91 168.084 172.829 168.205C172.667 168.408 172.464 168.611 172.302 168.814C172.18 168.976 172.058 169.098 171.896 169.219C171.775 169.381 171.612 169.503 171.491 169.665C171.207 169.949 170.963 170.233 170.679 170.477C170.639 170.517 170.639 170.517 170.598 170.558C170.314 170.842 170.071 171.085 169.787 171.369C169.625 171.491 169.503 171.653 169.341 171.775C169.219 171.896 169.057 172.058 168.935 172.18C168.732 172.342 168.53 172.545 168.327 172.707C168.246 172.789 168.165 172.87 168.043 172.951C167.8 173.154 167.556 173.356 167.313 173.559C167.272 173.6 167.191 173.64 167.151 173.681C166.867 173.884 166.623 174.127 166.339 174.33C166.299 174.37 166.299 174.37 166.258 174.411C165.974 174.654 165.65 174.857 165.366 175.101C163.5 176.52 161.513 177.778 159.444 178.913C159.444 178.913 159.444 178.913 159.404 178.913C159.079 179.075 158.755 179.278 158.43 179.441C158.39 179.481 158.349 179.481 158.308 179.522C158.024 179.684 157.7 179.806 157.416 179.968C157.335 180.008 157.254 180.049 157.173 180.089C156.929 180.211 156.645 180.333 156.361 180.455C156.24 180.495 156.118 180.576 155.996 180.617C155.794 180.698 155.55 180.82 155.347 180.901C155.185 180.982 155.023 181.063 154.82 181.103C154.658 181.185 154.455 181.266 154.293 181.306C154.09 181.387 153.847 181.469 153.644 181.55C153.522 181.59 153.401 181.631 153.238 181.712C152.954 181.793 152.711 181.915 152.427 181.996C152.346 182.036 152.265 182.077 152.184 182.077C151.859 182.199 151.575 182.28 151.251 182.401C151.21 182.401 151.17 182.442 151.089 182.442C150.724 182.564 150.399 182.645 150.034 182.766H149.993C147.722 183.415 145.451 183.943 143.098 184.267H143.058C142.693 184.308 142.327 184.389 141.962 184.429C141.922 184.429 141.881 184.429 141.841 184.429C141.516 184.47 141.151 184.511 140.827 184.551C140.746 184.551 140.664 184.551 140.583 184.592C140.259 184.632 139.975 184.632 139.65 184.673C139.529 184.673 139.407 184.673 139.245 184.713C139.001 184.713 138.718 184.754 138.474 184.754C138.271 184.754 138.069 184.754 137.866 184.795C137.663 184.795 137.46 184.795 137.298 184.835C136.892 184.835 136.487 184.835 136.081 184.835C135.676 184.835 135.27 184.835 134.864 184.835C134.661 184.835 134.459 184.835 134.296 184.795C134.094 184.795 133.891 184.795 133.688 184.754C133.445 184.754 133.161 184.713 132.917 184.713C132.796 184.713 132.674 184.713 132.512 184.673C132.187 184.632 131.903 184.632 131.579 184.592C131.498 184.592 131.417 184.592 131.336 184.551C131.011 184.511 130.646 184.47 130.322 184.429C130.281 184.429 130.24 184.429 130.2 184.429C129.835 184.389 129.47 184.348 129.105 184.267H129.064C126.752 183.943 124.44 183.415 122.209 182.766H122.169C121.804 182.645 121.479 182.564 121.114 182.442C121.074 182.442 121.033 182.401 120.952 182.401C120.628 182.32 120.344 182.199 120.019 182.077C119.938 182.036 119.857 181.996 119.776 181.996C119.492 181.915 119.248 181.793 118.965 181.712C118.843 181.671 118.721 181.631 118.559 181.55C118.356 181.469 118.113 181.387 117.91 181.306C117.748 181.225 117.545 181.144 117.383 181.103C117.22 181.022 117.058 180.941 116.855 180.901C116.612 180.82 116.409 180.698 116.206 180.617C116.085 180.576 115.963 180.495 115.841 180.455C115.557 180.333 115.314 180.211 115.03 180.089C114.949 180.049 114.868 180.008 114.787 179.968C114.503 179.806 114.178 179.684 113.894 179.522C113.854 179.481 113.813 179.481 113.773 179.441C113.448 179.278 113.124 179.116 112.799 178.913C112.799 178.913 112.799 178.913 112.759 178.913C110.69 177.778 108.703 176.52 106.837 175.101C106.553 174.857 106.228 174.654 105.945 174.411C105.904 174.37 105.904 174.37 105.863 174.33C105.579 174.127 105.336 173.884 105.052 173.681C105.012 173.64 104.931 173.6 104.89 173.559C104.647 173.356 104.403 173.154 104.16 172.951C104.079 172.87 103.998 172.789 103.876 172.707C103.673 172.545 103.47 172.342 103.268 172.18C103.105 172.058 102.984 171.937 102.862 171.775C102.7 171.653 102.578 171.491 102.416 171.369C102.132 171.085 101.848 170.842 101.605 170.558C101.564 170.517 101.564 170.517 101.523 170.477C101.239 170.193 100.996 169.909 100.712 169.665C100.591 169.503 100.428 169.381 100.307 169.219C100.185 169.057 100.023 168.935 99.901 168.773C99.7387 168.57 99.5359 168.367 99.3737 168.165C99.2926 168.084 99.2115 167.962 99.1303 167.881C98.9275 167.637 98.7247 167.394 98.5219 167.151C98.4814 167.11 98.4408 167.029 98.3597 166.988C98.1569 166.704 97.9135 166.461 97.7107 166.177C97.6701 166.137 97.6701 166.137 97.6296 166.096C97.3862 165.812 97.1834 165.488 96.9401 165.204C96.9401 165.204 96.9401 165.204 96.9401 165.163C95.5204 163.297 94.263 161.31 93.1273 159.241V159.201C92.9651 158.876 92.7623 158.552 92.6001 158.227C92.5595 158.187 92.5595 158.146 92.5189 158.106C92.3567 157.822 92.235 157.497 92.0728 157.213C92.0322 157.132 91.9916 157.051 91.9511 156.97C91.8294 156.727 91.7077 156.443 91.586 156.199C91.5455 156.078 91.4644 155.956 91.4238 155.834C91.3427 155.631 91.221 155.388 91.1399 155.185C91.0587 155.023 90.9776 154.82 90.9371 154.658C90.8559 154.496 90.7748 154.293 90.7343 154.131C90.6531 153.928 90.572 153.684 90.4909 153.441C90.4503 153.319 90.4098 153.198 90.3287 153.035C90.2475 152.752 90.1259 152.508 90.0447 152.224C90.0042 152.143 90.0042 152.062 89.9636 151.981C89.8419 151.656 89.7608 151.373 89.6391 151.048C89.6391 151.007 89.5986 150.967 89.5986 150.926C89.4769 150.561 89.3958 150.237 89.2741 149.872V149.831C88.6251 147.56 88.0978 145.288 87.7733 142.936C87.7733 142.936 87.7733 142.936 87.7733 142.895C87.7328 142.53 87.6517 142.165 87.6111 141.8C87.6111 141.76 87.6111 141.719 87.6111 141.678C87.5705 141.354 87.53 140.989 87.4894 140.664C87.4894 140.583 87.4894 140.502 87.4489 140.421C87.4083 140.097 87.4083 139.813 87.3677 139.488C87.3677 139.367 87.3677 139.245 87.3272 139.123C87.3272 138.839 87.2866 138.596 87.2866 138.312C87.2866 138.109 87.2866 137.906 87.2461 137.704C87.2461 137.501 87.246 137.298 87.2055 137.095C87.2055 136.69 87.2055 136.284 87.2055 135.878C87.2055 135.473 87.2055 135.067 87.2055 134.661C87.2055 134.459 87.2055 134.256 87.2461 134.053C87.2461 133.85 87.246 133.647 87.2866 133.445C87.2866 133.161 87.3272 132.917 87.3272 132.633C87.3272 132.512 87.3272 132.39 87.3677 132.268C87.4083 131.944 87.4083 131.66 87.4489 131.336C87.4489 131.254 87.4489 131.173 87.4894 131.092C87.53 130.768 87.5705 130.403 87.6111 130.078C87.6111 130.038 87.6111 129.997 87.6111 129.956C87.6517 129.591 87.6922 129.226 87.7733 128.861V128.821C88.0978 126.509 88.6251 124.197 89.2741 121.925V121.885C89.3958 121.52 89.4769 121.195 89.5986 120.83C89.5986 120.79 89.6391 120.749 89.6391 120.668C89.7608 120.344 89.8419 120.06 89.9636 119.735C90.0042 119.654 90.0042 119.573 90.0447 119.492C90.1259 119.208 90.2475 118.965 90.3287 118.681C90.3692 118.559 90.4098 118.437 90.4909 118.275C90.572 118.072 90.6531 117.829 90.7343 117.626C90.8154 117.464 90.8965 117.261 90.9371 117.099C91.0182 116.936 91.0993 116.734 91.1399 116.571C91.221 116.369 91.3427 116.125 91.4238 115.922C91.4644 115.801 91.5455 115.679 91.586 115.557C91.7077 115.273 91.8294 115.03 91.9511 114.746C91.9916 114.665 92.0322 114.584 92.0728 114.503C92.235 114.219 92.3567 113.894 92.5189 113.61C92.5189 113.57 92.5595 113.529 92.6001 113.489C92.7623 113.164 92.9245 112.84 93.1273 112.515V112.475C94.263 110.406 95.5204 108.419 96.9401 106.553C97.1834 106.269 97.3862 105.945 97.6296 105.661C97.6701 105.62 97.6701 105.62 97.7107 105.579C97.9135 105.296 98.1569 105.012 98.3597 104.768C98.4002 104.728 98.4408 104.647 98.4814 104.606C98.6842 104.363 98.887 104.119 99.0898 103.876C99.1709 103.795 99.252 103.714 99.3331 103.592C99.4954 103.389 99.6982 103.186 99.8604 102.984C99.9821 102.821 100.104 102.7 100.266 102.578C100.388 102.416 100.55 102.294 100.672 102.132C100.956 101.848 101.199 101.564 101.483 101.321C101.523 101.28 101.523 101.28 101.564 101.239C101.848 100.956 102.091 100.712 102.375 100.428C102.537 100.307 102.659 100.144 102.821 100.023C102.943 99.901 103.105 99.7387 103.227 99.6171C103.43 99.4548 103.633 99.252 103.835 99.0898C103.916 99.0087 103.998 98.9275 104.119 98.8464C104.363 98.6436 104.606 98.4408 104.849 98.238C104.89 98.1974 104.971 98.1569 105.012 98.1163C105.296 97.9135 105.539 97.6701 105.823 97.4673C105.863 97.4268 105.863 97.4268 105.904 97.3862C106.188 97.1429 106.512 96.94 106.796 96.6967C108.662 95.2771 110.65 94.0197 112.718 92.884H112.759C113.083 92.7217 113.408 92.5189 113.732 92.3567C113.773 92.3161 113.813 92.3161 113.854 92.2756C114.138 92.1133 114.462 91.9916 114.746 91.8294C114.827 91.7888 114.908 91.7483 114.99 91.7077C115.233 91.586 115.517 91.4644 115.801 91.3427C115.922 91.3021 116.044 91.221 116.166 91.1804C116.369 91.0993 116.612 90.9776 116.815 90.8965C116.977 90.8154 117.139 90.7343 117.342 90.6937C117.504 90.6126 117.707 90.5315 117.869 90.4909C118.072 90.4098 118.316 90.3287 118.518 90.2475C118.64 90.207 118.762 90.1664 118.924 90.0853C119.208 90.0042 119.451 89.8825 119.735 89.8014C119.816 89.7608 119.897 89.7608 119.979 89.7203C120.303 89.5986 120.587 89.5174 120.911 89.3958C120.952 89.3958 120.993 89.3552 121.033 89.3552C121.398 89.2335 121.723 89.1524 122.088 89.0307H122.128C124.4 88.3817 126.671 87.8545 129.024 87.53H129.064C129.429 87.4894 129.794 87.4083 130.159 87.3677C130.2 87.3677 130.24 87.3677 130.281 87.3677C130.605 87.3272 130.97 87.2866 131.295 87.2461C131.376 87.2461 131.457 87.246 131.538 87.2055C131.863 87.1649 132.147 87.1649 132.471 87.1244C132.593 87.1244 132.715 87.1244 132.836 87.0838C133.08 87.0838 133.364 87.0432 133.607 87.0432C133.81 87.0432 134.013 87.0432 134.215 87.0027C134.418 87.0027 134.621 87.0027 134.783 86.9621C135.189 86.9621 135.594 86.9621 136 86.9621C136.406 86.9621 136.811 86.9621 137.217 86.9621C137.42 86.9621 137.622 86.9621 137.785 87.0027C137.987 87.0027 138.19 87.0027 138.393 87.0432C138.636 87.0432 138.92 87.0838 139.164 87.0838C139.285 87.0838 139.407 87.0838 139.529 87.1244C139.853 87.1649 140.137 87.1649 140.462 87.2055C140.543 87.2055 140.624 87.2055 140.705 87.2461C141.03 87.2866 141.395 87.3272 141.719 87.3677C141.76 87.3677 141.8 87.3677 141.841 87.3677C142.206 87.4083 142.571 87.4489 142.936 87.53H142.976C145.288 87.8545 147.6 88.3817 149.872 89.0307H149.912C150.277 89.1524 150.602 89.2335 150.967 89.3552C151.007 89.3552 151.048 89.3958 151.089 89.3958C151.413 89.5174 151.697 89.5986 152.021 89.7203C152.103 89.7608 152.184 89.7608 152.265 89.8014C152.549 89.8825 152.792 90.0042 153.076 90.0853C153.198 90.1259 153.319 90.1664 153.482 90.2475C153.684 90.3287 153.928 90.4098 154.131 90.4909C154.293 90.572 154.496 90.6532 154.658 90.6937C154.82 90.7748 154.982 90.856 155.185 90.8965C155.388 90.9776 155.631 91.0993 155.834 91.1804C155.956 91.221 156.078 91.3021 156.199 91.3427C156.483 91.4644 156.727 91.586 157.01 91.7077C157.092 91.7483 157.173 91.7888 157.254 91.8294C157.538 91.9916 157.862 92.1133 158.146 92.2756C158.187 92.3161 158.227 92.3161 158.268 92.3567C158.592 92.5189 158.917 92.6812 159.241 92.884H159.282C161.35 94.0197 163.338 95.2771 165.204 96.6967C165.488 96.94 165.812 97.1429 166.096 97.3862C166.137 97.4268 166.137 97.4268 166.177 97.4673C166.461 97.6701 166.704 97.9135 166.988 98.1163C167.029 98.1569 167.11 98.1974 167.151 98.238C167.394 98.4408 167.637 98.6436 167.881 98.8464C167.962 98.9275 168.043 99.0087 168.165 99.0898C168.367 99.252 168.57 99.4548 168.773 99.6171C168.935 99.7387 169.057 99.8604 169.179 100.023C169.341 100.144 169.463 100.307 169.625 100.428C169.909 100.712 170.193 100.956 170.436 101.239C170.477 101.28 170.477 101.28 170.517 101.321C170.801 101.605 171.044 101.848 171.328 102.132C171.45 102.294 171.612 102.416 171.734 102.578C171.856 102.7 171.977 102.862 172.14 102.984C172.342 103.186 172.505 103.389 172.667 103.592C172.748 103.673 172.829 103.754 172.91 103.876C173.113 104.119 173.316 104.363 173.519 104.606C173.559 104.647 173.6 104.728 173.64 104.768C173.843 105.052 174.087 105.296 174.289 105.579C174.33 105.62 174.33 105.62 174.37 105.661C174.614 105.945 174.817 106.269 175.06 106.553C176.48 108.419 177.737 110.406 178.873 112.475C178.873 112.475 178.873 112.475 178.873 112.515C179.035 112.84 179.238 113.164 179.4 113.489C179.4 113.529 179.441 113.57 179.441 113.61C179.603 113.894 179.724 114.219 179.887 114.503C179.927 114.584 179.968 114.665 180.008 114.746C180.13 115.03 180.252 115.273 180.373 115.557C180.414 115.679 180.495 115.801 180.536 115.922C180.617 116.125 180.738 116.369 180.82 116.612C180.901 116.774 180.982 116.936 181.022 117.139C181.103 117.302 181.185 117.504 181.225 117.667C181.306 117.869 181.387 118.113 181.469 118.316C181.509 118.437 181.55 118.559 181.631 118.721C181.712 119.005 181.834 119.248 181.915 119.532C181.955 119.613 181.996 119.695 181.996 119.776C182.32 120.222 182.442 120.546 182.523 120.83ZM189.946 114.422L200.532 110.041C199.396 111.258 198.22 112.962 197.125 115.395C194.732 114.827 192.339 114.503 189.946 114.422ZM189.378 113.124C191.041 111.38 192.501 109.433 193.799 107.324C196.354 108.297 198.423 108.703 200.126 108.703L189.378 113.124ZM205.562 105.336C204.994 106.107 202.114 109.271 194.367 106.31C195.624 104.119 196.719 101.767 197.571 99.252C199.396 99.6576 204.913 101.239 205.562 105.336ZM197.936 98.1163C198.707 95.7638 199.315 93.2896 199.721 90.6937C200.126 90.6937 200.532 90.7343 200.938 90.7343C200.978 90.7343 200.978 90.7343 200.978 90.7343C203.371 91.0588 207.711 92.1133 208.725 95.5204C208.36 96.3722 205.967 99.8604 197.936 98.1163ZM199.924 89.5174C200.329 86.7593 200.492 84.1634 200.573 81.9326C202.033 81.7298 208.32 81.1619 210.388 85.0963C210.104 85.9075 208.523 89.558 201.14 89.6391C200.654 89.558 200.248 89.558 199.924 89.5174ZM200.613 80.7158C200.654 76.3758 200.248 73.496 200.208 73.2932L200.167 72.9687C201.992 72.5225 207.59 71.4679 209.983 74.8345C209.82 75.7674 208.685 79.8234 200.613 80.7158ZM198.95 71.833L198.666 71.7924C198.463 71.7519 195.584 71.3463 191.203 71.3868C192.095 63.2341 196.192 62.139 197.084 61.9767C200.492 64.4104 199.396 70.0078 198.95 71.833ZM189.986 71.4274C187.715 71.4679 185.16 71.6707 182.401 72.0763C182.401 71.7924 182.361 71.3463 182.28 70.819C182.32 63.3964 185.971 61.8551 186.823 61.5711C190.798 63.6397 190.189 70.0483 189.986 71.4274ZM166.786 59.7865C167.394 53.0939 166.623 46.7665 164.96 40.8852C166.421 42.102 168.286 42.7915 170.274 42.7915C170.801 42.7915 171.328 42.751 171.856 42.6293C172.707 42.467 173.519 42.1426 174.208 41.6964L166.786 59.7865ZM157.538 82.0543C157.457 79.6612 157.132 77.2276 156.564 74.8345C159.079 73.7393 160.823 72.5225 161.999 71.3463L157.538 82.0543ZM153.035 65.3838C151.9 63.1936 150.602 61.0438 149.061 58.8941C149.385 58.6102 149.669 58.3263 149.953 58.0424C151.859 56.5822 155.672 54.2296 158.836 55.9332C159.12 56.785 159.931 60.9627 153.035 65.3838ZM148.33 57.9207C146.667 55.6898 144.964 53.7429 143.423 52.1205C144.315 50.9442 148.371 46.1175 152.589 47.4154C152.995 48.1861 154.455 51.8771 149.263 57.15C148.898 57.4339 148.574 57.7179 148.33 57.9207ZM142.611 51.2282C139.569 48.1455 137.217 46.4014 137.055 46.2797L136.811 46.0769C137.785 44.4545 140.989 39.7495 145.086 40.439C145.572 41.2097 147.641 44.9007 142.611 51.2282ZM134.905 46.2797C134.743 46.4014 132.39 48.1455 129.348 51.2687C124.237 44.9007 126.306 41.2097 126.833 40.439C130.93 39.7495 134.175 44.4951 135.108 46.1175L134.905 46.2797ZM128.496 52.1205C126.955 53.7429 125.251 55.6898 123.588 57.9207C123.345 57.7179 123.021 57.4339 122.615 57.1095C117.423 51.8366 118.883 48.1455 119.289 47.3749C123.588 46.0769 127.685 51.0253 128.496 52.1205ZM121.966 58.0424C122.25 58.3263 122.574 58.6102 122.899 58.9347C121.358 61.0844 120.06 63.2341 118.924 65.4244C111.948 60.9627 112.799 56.785 113.043 55.9332C116.247 54.2296 120.06 56.5822 121.966 58.0424ZM115.395 74.8345C114.827 77.2276 114.503 79.6612 114.422 82.0543L110.041 71.4679C111.258 72.6036 112.962 73.7799 115.395 74.8345ZM96.3722 42.2642L103.916 60.3137C99.6171 55.1625 94.5875 51.1876 89.2741 48.2267C91.6672 47.9833 93.9791 46.7259 95.3987 44.5762C95.8449 43.8867 96.1694 43.0755 96.3722 42.2642ZM97.6701 41.6558C98.3597 42.102 99.1709 42.467 100.063 42.6293C100.591 42.751 101.118 42.7915 101.645 42.7915C103.633 42.7915 105.539 42.0614 107.04 40.8041C105.377 46.6854 104.606 53.0534 105.214 59.7865L97.6701 41.6558ZM98.1163 74.0233C95.7638 73.2526 93.2896 72.6442 90.6937 72.2386C90.6937 71.7924 90.7343 71.3868 90.7343 70.9812C91.0588 68.5881 92.0728 64.2481 95.5204 63.1936C96.3316 63.6397 99.8604 66.0328 98.1163 74.0233ZM89.5174 72.0358C86.7593 71.6302 84.1634 71.4679 81.9326 71.3868C81.7298 69.9266 81.1619 63.6397 85.0963 61.5711C85.9481 61.8551 89.558 63.3964 89.6391 70.819C89.558 71.3463 89.558 71.7519 89.5174 72.0358ZM80.7158 71.3868C76.3758 71.3463 73.496 71.7519 73.2932 71.7924L72.9687 71.833C72.5225 69.9672 71.4679 64.4104 74.8345 62.0173C75.7268 62.1795 79.8234 63.3152 80.7158 71.3868ZM71.7924 73.3337C71.7519 73.5365 71.3463 76.4163 71.3868 80.7969C63.2341 79.9046 62.139 75.8079 61.9767 74.9156C64.4104 71.5085 70.0483 72.6036 71.833 73.0498L71.7924 73.3337ZM71.3868 81.9732C71.4274 84.2446 71.6302 86.7999 72.0358 89.558C71.7519 89.558 71.3057 89.5986 70.7784 89.6797C63.3964 89.6391 61.8145 85.9887 61.5306 85.1369C63.6397 81.1619 70.0483 81.8109 71.3868 81.9732ZM70.9812 90.7748C71.3868 90.7748 71.7924 90.7748 72.2386 90.7343C72.6848 93.3302 73.2932 95.8044 74.0233 98.1163C65.9517 99.901 63.5586 96.3722 63.153 95.561C64.2076 92.1133 68.5476 91.0993 70.9406 90.7748H70.9812ZM74.4289 99.2926C75.3212 101.807 76.4163 104.16 77.6737 106.35C69.8455 109.352 66.9657 106.147 66.3979 105.417C67.0063 101.239 72.6442 99.6576 74.4289 99.2926ZM78.201 107.324C79.499 109.433 80.9591 111.38 82.6221 113.124L71.9952 108.703C73.6988 108.662 75.7268 108.256 78.201 107.324ZM73.7393 115.679C71.3057 116.328 68.8721 117.261 66.479 118.397C65.465 116.815 62.6663 111.826 65.1405 108.459C66.0328 108.338 70.3322 108.135 73.7393 115.679ZM58.8941 122.939C58.6102 122.615 58.3263 122.331 58.0424 122.047C56.5822 120.141 54.2296 116.328 55.9332 113.164C56.8255 112.88 60.9627 112.069 65.4244 119.005C63.1936 120.06 61.0438 121.398 58.8941 122.939ZM57.9207 123.629C55.6898 125.292 53.7429 126.996 52.1205 128.537C50.9848 127.644 46.1175 123.588 47.4154 119.37C48.1861 118.965 51.8771 117.504 57.15 122.696C57.4339 123.102 57.7179 123.426 57.9207 123.629ZM51.2282 129.389C48.1455 132.431 46.4014 134.783 46.2797 134.945L46.0769 135.229C44.4545 134.256 39.7495 131.052 40.439 126.955C41.2097 126.387 44.8601 124.319 51.2282 129.389ZM46.2797 137.055C46.4014 137.217 48.1455 139.569 51.2687 142.611C44.9007 147.722 41.2097 145.653 40.439 145.126C39.7495 141.03 44.4951 137.785 46.1175 136.852L46.2797 137.055ZM52.1205 143.463C53.7429 145.004 55.6898 146.708 57.9207 148.371C57.7179 148.614 57.4339 148.939 57.1095 149.344C51.8366 154.536 48.1455 153.076 47.3749 152.67C46.0769 148.412 51.0253 144.315 52.1205 143.463ZM58.0424 149.993C58.3263 149.71 58.6102 149.385 58.9347 149.061C61.0844 150.602 63.2341 151.9 65.4244 153.035C60.9627 160.012 56.785 159.201 55.8926 158.917C54.2296 155.753 56.5822 151.9 58.0424 149.993ZM66.5195 153.563C68.9126 154.698 71.3463 155.631 73.7799 156.28C70.3728 163.906 66.0734 163.703 65.1405 163.581C62.6257 160.174 65.5461 155.104 66.5195 153.563ZM82.6221 158.876C80.9591 160.62 79.499 162.567 78.201 164.676C75.6457 163.703 73.5771 163.297 71.8735 163.297L82.6221 158.876ZM66.4384 166.623C67.0063 165.853 69.8455 162.689 77.6332 165.65C76.3758 167.84 75.2806 170.193 74.4289 172.707C72.5631 172.302 67.0468 170.761 66.4384 166.623ZM74.0233 173.884C73.2526 176.236 72.6442 178.71 72.2386 181.306C71.7924 181.266 71.3868 181.266 70.9812 181.266C68.5881 180.941 64.2481 179.927 63.1936 176.48C63.6397 175.628 65.9922 172.099 74.0233 173.884ZM72.0358 182.483C71.6302 185.241 71.4679 187.837 71.3868 190.067C69.9266 190.27 63.6397 190.838 61.5711 186.904C61.8551 186.052 63.4369 182.442 70.819 182.361C71.3463 182.401 71.7519 182.442 72.0358 182.483ZM71.3868 191.244C71.3463 195.584 71.7519 198.463 71.7924 198.666L71.833 198.991C69.9672 199.437 64.4104 200.491 62.0173 197.125C62.1795 196.233 63.3152 192.136 71.3868 191.244ZM73.0498 200.126L73.3337 200.167C73.5365 200.208 76.2135 200.573 80.3102 200.573C80.4724 200.573 80.6347 200.573 80.7969 200.573C79.9046 208.725 75.8079 209.82 74.9156 209.983C71.5085 207.59 72.5631 201.952 73.0498 200.126ZM81.9732 200.573C84.2446 200.532 86.7999 200.329 89.558 199.924C89.558 200.208 89.5986 200.654 89.6797 201.181C89.6391 208.604 85.9887 210.145 85.1369 210.429C81.1619 208.36 81.8109 201.952 81.9732 200.573ZM105.214 212.173C104.606 218.865 105.377 225.193 107.04 231.074C106.837 230.912 106.634 230.75 106.391 230.588C104.525 229.33 102.294 228.884 100.104 229.33C99.252 229.492 98.4814 229.817 97.7513 230.263L105.214 212.173ZM114.422 189.946C114.503 192.339 114.827 194.772 115.395 197.166C112.88 198.261 111.136 199.477 109.96 200.654L114.422 189.946ZM118.965 206.576C120.1 208.766 121.398 210.916 122.939 213.065C122.615 213.349 122.331 213.633 122.047 213.917C120.141 215.377 116.328 217.73 113.164 216.026C112.84 215.174 112.029 211.037 118.965 206.576ZM123.629 214.079C125.292 216.31 126.996 218.257 128.537 219.879C127.644 221.015 123.588 225.882 119.37 224.585C118.965 223.814 117.504 220.123 122.696 214.85C123.102 214.526 123.426 214.282 123.629 214.079ZM129.389 220.731C132.431 223.814 134.783 225.558 134.945 225.68L135.229 225.883C134.256 227.505 131.052 232.21 126.955 231.52C126.387 230.79 124.278 227.099 129.389 220.731ZM137.055 225.72C137.217 225.599 139.569 223.854 142.611 220.731C147.722 227.099 145.653 230.79 145.126 231.561C141.03 232.251 137.785 227.505 136.852 225.883L137.055 225.72ZM143.463 219.839C145.004 218.217 146.708 216.27 148.371 214.039C148.614 214.242 148.939 214.526 149.344 214.85C154.536 220.123 153.076 223.814 152.67 224.585C148.412 225.923 144.315 220.934 143.463 219.839ZM149.993 213.958C149.71 213.674 149.385 213.39 149.061 213.065C150.602 210.916 151.9 208.766 153.035 206.576C160.012 211.037 159.16 215.215 158.917 216.067C155.753 217.77 151.9 215.418 149.993 213.958ZM156.564 197.125C157.132 194.732 157.457 192.298 157.538 189.905L161.918 200.492C160.742 199.356 158.998 198.22 156.564 197.125ZM174.33 230.304C173.64 229.857 172.829 229.492 171.937 229.33C169.341 228.843 166.826 229.574 164.96 231.155C166.623 225.274 167.394 218.906 166.786 212.173L174.33 230.304ZM173.884 197.936C176.236 198.707 178.71 199.315 181.306 199.721C181.306 200.167 181.266 200.573 181.266 200.978C180.941 203.371 179.927 207.711 176.48 208.766C175.628 208.36 172.099 205.967 173.884 197.936ZM182.483 199.924C185.241 200.329 187.837 200.492 190.067 200.573C190.27 202.033 190.838 208.32 186.904 210.388C186.052 210.104 182.442 208.563 182.361 201.14C182.401 200.654 182.442 200.248 182.483 199.924ZM191.244 200.613C191.406 200.613 191.528 200.613 191.69 200.613C195.786 200.613 198.504 200.208 198.666 200.208L198.991 200.167C199.437 202.033 200.491 207.59 197.125 209.983C196.233 209.82 192.136 208.644 191.244 200.613ZM200.167 198.666C200.208 198.463 200.613 195.584 200.573 191.203C208.725 192.095 209.82 196.192 209.983 197.084C207.549 200.492 201.911 199.396 200.126 198.95L200.167 198.666ZM200.573 189.986C200.532 187.715 200.329 185.16 199.924 182.401C200.208 182.401 200.654 182.361 201.181 182.28C208.604 182.32 210.145 185.971 210.429 186.823C208.36 190.798 201.952 190.189 200.573 189.986ZM201.019 181.185C200.613 181.185 200.167 181.185 199.721 181.225C199.275 178.629 198.666 176.155 197.936 173.843C206.008 172.058 208.401 175.587 208.806 176.398C207.792 179.846 203.412 180.901 201.019 181.185ZM197.571 172.707C196.679 170.193 195.584 167.84 194.326 165.65C202.154 162.648 205.034 165.853 205.602 166.583C204.953 170.761 199.356 172.302 197.571 172.707ZM193.758 164.676C192.46 162.567 191 160.62 189.337 158.876L199.924 163.297C198.301 163.297 196.233 163.703 193.758 164.676ZM198.261 156.28C200.694 155.631 203.128 154.698 205.521 153.563C206.535 155.145 209.334 160.134 206.86 163.5C205.967 163.662 201.627 163.825 198.261 156.28ZM213.106 149.061C213.39 149.385 213.674 149.669 213.958 149.953C215.418 151.859 217.77 155.672 216.067 158.876C215.174 159.16 210.997 159.971 206.576 153.035C208.766 151.9 210.956 150.602 213.106 149.061ZM214.079 148.33C216.31 146.667 218.257 144.964 219.879 143.423C221.056 144.315 225.882 148.371 224.585 152.589C223.814 152.995 220.082 154.415 214.85 149.263C214.526 148.898 214.282 148.574 214.079 148.33ZM220.731 142.611C223.814 139.569 225.558 137.217 225.68 137.055L225.883 136.771C227.505 137.744 232.21 140.948 231.52 145.045C230.79 145.613 227.099 147.681 220.731 142.611ZM225.72 134.905C225.599 134.743 223.854 132.39 220.731 129.348C227.099 124.237 230.79 126.306 231.561 126.833C232.251 130.93 227.505 134.175 225.883 135.108L225.72 134.905ZM219.839 128.496C218.217 126.955 216.27 125.251 214.039 123.588C214.242 123.345 214.526 123.021 214.85 122.615C220.123 117.423 223.814 118.883 224.585 119.289C225.923 123.588 220.934 127.685 219.839 128.496ZM213.958 121.966C213.674 122.25 213.349 122.574 213.065 122.899C210.916 121.358 208.766 120.06 206.576 118.924C211.037 111.948 215.215 112.799 216.067 113.043C217.77 116.247 215.418 120.06 213.958 121.966ZM205.48 118.397C203.087 117.261 200.654 116.328 198.22 115.679C201.627 108.054 205.927 108.256 206.86 108.378C209.334 111.785 206.454 116.896 205.48 118.397ZM230.304 97.6701C229.857 98.4002 229.492 99.1709 229.33 100.063C228.884 102.254 229.371 104.484 230.588 106.35C230.75 106.594 230.912 106.837 231.115 107.04C225.234 105.377 218.865 104.606 212.173 105.214L230.304 97.6701ZM253.18 86.5565L236.956 93.3302C238.537 90.8154 237.807 87.4489 235.333 85.7859C234.319 85.0963 233.102 84.853 231.885 85.0963C230.669 85.3397 229.655 86.0292 228.965 87.0432C228.397 87.895 228.194 88.909 228.397 89.8825C228.6 90.8965 229.168 91.7483 230.02 92.3161C230.709 92.8029 231.561 92.9651 232.413 92.8029C233.224 92.6406 233.954 92.1539 234.441 91.4644C235.252 90.2475 234.928 88.5845 233.711 87.7733C232.697 87.0838 231.277 87.3677 230.588 88.3817C230.304 88.8279 230.182 89.3146 230.304 89.8419C230.385 90.3287 230.709 90.7748 231.115 91.0588C231.48 91.3021 231.926 91.3832 232.372 91.3021C232.818 91.221 233.183 90.9776 233.427 90.6126C233.63 90.3287 233.548 89.9231 233.265 89.7608C232.981 89.558 232.575 89.6391 232.413 89.9231C232.332 90.0042 232.251 90.0853 232.129 90.0853C232.007 90.0853 231.926 90.0853 231.804 90.0042C231.642 89.923 231.561 89.7608 231.52 89.558C231.48 89.3958 231.52 89.193 231.642 89.0713C231.967 88.6251 232.575 88.5034 233.021 88.7874C233.67 89.2335 233.832 90.0853 233.386 90.7343C233.102 91.1399 232.656 91.4644 232.169 91.5455C231.683 91.6266 231.155 91.5455 230.75 91.2616C229.574 90.4909 229.29 88.909 230.06 87.7328C230.547 87.0027 231.318 86.4754 232.21 86.3132C233.102 86.1509 233.954 86.3132 234.725 86.8404C236.712 88.1789 237.239 90.8559 235.901 92.8434C234.197 95.3987 230.709 96.0477 228.154 94.3442C226.572 93.2896 225.517 91.6672 225.152 89.8014C224.909 88.6251 224.99 87.4488 225.315 86.3537C225.599 85.7453 225.882 85.1369 226.166 84.569C226.207 84.5285 226.207 84.4879 226.207 84.4879C226.248 84.4068 226.288 84.3257 226.288 84.2446C226.775 83.1089 227.262 82.0137 227.667 80.878C239.105 80.3507 249.529 84.8124 253.18 86.5565ZM230.871 41.088C231.48 46.2392 235.252 86.7593 206.535 105.863C206.576 105.782 206.616 105.742 206.616 105.742L206.697 105.579L206.657 105.417C206.535 104.444 206.251 103.633 205.764 102.902C206.17 103.268 206.576 103.389 206.941 103.43C207.468 103.511 207.874 103.349 207.874 103.349C207.874 103.349 208.157 103.024 208.279 102.497C208.401 101.97 208.32 101.239 207.711 100.388L205.278 102.091C204.426 101.037 203.29 100.266 202.154 99.6576C208.239 99.6171 209.82 95.926 209.902 95.7232L209.983 95.561L209.942 95.3987C209.212 92.6406 206.9 91.1804 204.629 90.3692C210.672 89.193 211.524 85.2991 211.565 85.0963L211.605 84.9341L211.524 84.7718C210.307 82.176 207.711 81.1619 205.278 80.7969C210.834 78.8094 211.118 74.9156 211.159 74.7128V74.51L211.078 74.3477C208.766 70.7784 203.939 71.0623 201.222 71.5491L204.913 67.858C207.833 64.9377 211.646 64.6132 213.552 64.6537C214.039 65.4244 215.661 66.0328 216.635 66.1139C217.811 66.195 217.568 65.3838 217.608 64.4104C217.649 63.4369 218.014 62.6663 216.837 62.5852C215.905 62.5446 214.404 62.9096 213.755 63.518C212.538 63.4775 210.551 63.5586 208.441 64.3293L213.065 59.7053C214.363 60.0704 216.756 58.8536 217.851 57.799C219.109 56.5416 217.933 56.0549 216.959 55.0814C215.945 54.0674 215.458 52.9317 214.242 54.1891C213.187 55.2437 211.97 57.6773 212.335 58.9752L207.711 63.5992C208.482 61.49 208.563 59.5025 208.523 58.2857C209.131 57.6367 209.537 56.0954 209.455 55.2031C209.374 54.0268 208.604 54.3513 207.63 54.4324C206.657 54.473 205.846 54.2296 205.927 55.4059C205.967 56.3794 206.616 58.0018 207.387 58.4885C207.427 60.3949 207.103 64.2076 204.183 67.1279L200.451 70.8595C200.938 68.1825 201.303 63.2341 197.693 60.8816L197.531 60.8005H197.328C197.125 60.8005 193.231 61.125 191.244 66.6412C190.879 64.2481 189.865 61.6117 187.269 60.3949L187.106 60.3137L186.944 60.3543C186.741 60.3949 182.807 61.2466 181.671 67.2902C180.86 65.0188 179.4 62.7068 176.642 61.9767L176.48 61.9362L176.317 62.0173C176.115 62.0984 172.464 63.6397 172.383 69.7644C171.815 68.6287 171.004 67.5336 169.99 66.6818L171.693 64.2481C170.842 63.5992 170.112 63.5586 169.584 63.6803C169.057 63.802 168.732 64.0859 168.732 64.0859C168.732 64.0859 168.57 64.4915 168.651 65.0188C168.692 65.3433 168.854 65.7489 169.179 66.1545C168.449 65.7083 167.597 65.3838 166.623 65.2622L166.461 65.2216L166.299 65.3027C185.322 36.748 225.72 40.5201 230.871 41.088ZM187.877 45.7119C187.755 45.7119 187.634 45.7525 187.512 45.793C187.35 45.8741 187.228 45.9958 187.066 46.0769C186.741 46.2392 186.376 46.4014 186.052 46.5637C183.05 47.6994 179.522 46.6854 177.656 43.8867C175.952 41.3313 176.601 37.8837 179.157 36.1396C181.144 34.8011 183.821 35.3284 185.16 37.3158C186.174 38.8571 185.768 40.9257 184.267 41.9398C183.091 42.7104 181.509 42.4265 180.738 41.2502C180.13 40.3579 180.373 39.1816 181.266 38.6138C181.59 38.411 181.955 38.3299 182.32 38.411C182.685 38.4921 183.01 38.6949 183.213 39.0194C183.537 39.4656 183.415 40.1145 182.929 40.3984C182.604 40.6013 182.199 40.5201 181.996 40.2362C181.874 40.0334 181.915 39.79 182.118 39.6684C182.401 39.4656 182.483 39.1005 182.28 38.8166C182.077 38.5327 181.712 38.4515 181.428 38.6543C180.657 39.1816 180.455 40.1956 180.982 40.9663C181.59 41.8586 182.766 42.0614 183.659 41.4936C184.673 40.8041 184.957 39.3844 184.267 38.3704C183.456 37.1536 181.793 36.8291 180.576 37.6403C179.116 38.6138 178.751 40.6013 179.724 42.0209C180.901 43.765 183.253 44.2112 184.997 43.0349C186.011 42.3454 186.701 41.2908 186.944 40.1145C187.188 38.8977 186.944 37.6809 186.255 36.6669C184.551 34.1521 181.144 33.4626 178.589 35.085L185.362 18.6579C187.309 22.065 192.46 32.3269 192.663 43.8461C191 44.3734 189.418 44.9818 187.877 45.7119ZM183.902 18.1712L177.21 34.436C176.52 31.5157 173.681 29.6499 170.72 30.2177C168.246 30.7044 166.623 33.0975 167.11 35.6123C167.313 36.6263 167.881 37.4781 168.732 38.0459C169.584 38.6138 170.598 38.8166 171.572 38.6138C173.275 38.2893 174.411 36.6263 174.086 34.9228C173.803 33.5031 172.424 32.5297 170.963 32.8136C170.355 32.9353 169.868 33.2598 169.544 33.7465C169.219 34.2332 169.098 34.8416 169.219 35.45C169.3 35.9368 169.625 36.3829 170.03 36.6669C170.477 36.9508 170.963 37.0725 171.491 36.9508C172.383 36.7885 172.991 35.8962 172.789 35.0039C172.707 34.6794 172.383 34.436 172.058 34.5171C171.734 34.5983 171.491 34.9228 171.572 35.2472C171.612 35.4906 171.45 35.6934 171.247 35.734C171.085 35.7745 170.882 35.734 170.761 35.6123C170.598 35.5312 170.517 35.3689 170.477 35.1661C170.436 34.9228 170.477 34.6388 170.639 34.436C170.801 34.2332 171.004 34.071 171.288 34.0304C172.058 33.8682 172.789 34.3955 172.951 35.1256C173.154 36.1396 172.464 37.1536 171.45 37.3564C170.071 37.6403 168.732 36.7074 168.449 35.3284C168.084 33.5031 169.3 31.759 171.085 31.394C173.438 30.9478 175.709 32.4891 176.155 34.8011C176.358 35.8557 176.236 36.9508 175.871 37.9242L175.831 38.0459C175.709 38.3704 175.547 38.6543 175.344 38.9383C174.533 40.1551 173.235 41.0069 171.775 41.2908C168.611 41.8992 165.528 40.3173 164.109 37.5998C163.906 36.9913 163.662 36.3829 163.46 35.7745C163.46 35.734 163.419 35.6934 163.419 35.6528C163.419 35.5717 163.378 35.4906 163.297 35.4095C162.851 34.2738 162.405 33.1381 161.878 32.0429C169.544 23.7686 180.089 19.5097 183.902 18.1712ZM136 1.78467C140.056 4.98897 171.369 31.0289 164.595 64.816C164.595 64.7349 164.555 64.6943 164.555 64.6537L164.514 64.4915L164.352 64.3698C163.581 63.7614 162.77 63.3964 161.959 63.1936C162.486 63.153 162.892 62.9908 163.176 62.7474C163.581 62.4229 163.784 62.0579 163.784 62.0579C163.784 62.0579 163.744 61.6522 163.46 61.2061C163.176 60.7599 162.608 60.2732 161.553 60.1515L161.026 63.0719C159.687 62.9502 158.349 63.1936 157.132 63.5586C161.391 59.2186 159.89 55.5276 159.809 55.3248L159.728 55.1625L159.566 55.0814C157.132 53.6618 154.415 54.2296 152.265 55.2842C155.712 50.2141 153.522 46.8476 153.441 46.6448L153.319 46.4826L153.157 46.4014C150.44 45.428 147.884 46.5637 145.937 48.0239C148.452 42.6699 145.897 39.7089 145.775 39.5872L145.653 39.4656L145.491 39.425C141.354 38.5732 138.109 42.1831 136.527 44.4545V39.2222C136.527 35.085 139.001 32.1241 140.381 30.8261C141.273 31.0289 142.855 30.3394 143.585 29.6904C144.477 28.8792 143.707 28.5142 143.058 27.7841C142.409 27.054 142.125 26.2428 141.232 27.054C140.543 27.6624 139.732 29.0009 139.732 29.9338C138.839 30.745 137.501 32.2052 136.527 34.2738V27.703C137.663 27.054 138.555 24.4987 138.555 22.9574C138.555 21.2132 137.42 21.6594 136 21.6594C134.58 21.6594 133.445 21.1727 133.445 22.9574C133.445 24.4581 134.296 27.0134 135.473 27.703V34.2332C134.54 32.2052 133.161 30.7044 132.268 29.8932C132.228 28.9603 131.457 27.6624 130.768 27.0134C129.875 26.2022 129.591 27.0134 128.942 27.7435C128.293 28.4736 127.523 28.8387 128.415 29.6499C129.145 30.2988 130.727 30.9884 131.619 30.7856C132.999 32.0835 135.473 35.0039 135.473 39.1816V44.4545C133.931 42.1831 130.687 38.4921 126.468 39.3439L126.306 39.3844L126.184 39.5061C126.063 39.6684 123.507 42.6293 126.022 47.9427C124.075 46.4826 121.52 45.3874 118.802 46.3609L118.64 46.442L118.518 46.6042C118.397 46.7665 116.247 50.1736 119.695 55.2437C117.504 54.1891 114.827 53.5807 112.394 55.0409L112.231 55.122L112.15 55.2842C112.069 55.487 110.568 59.1781 114.827 63.518C113.611 63.153 112.272 62.9096 110.974 63.0313L110.447 60.1109C109.392 60.2732 108.824 60.7194 108.54 61.1655C108.256 61.6117 108.216 62.0173 108.216 62.0173C108.216 62.0173 108.378 62.3823 108.824 62.7068C109.108 62.9096 109.473 63.1124 109.96 63.153C109.108 63.3558 108.297 63.7208 107.526 64.3293L107.364 64.4509L107.324 64.6132C100.712 30.9478 131.944 5.02953 136 1.78467ZM108.824 35.45C108.743 35.5312 108.662 35.6528 108.622 35.7745C108.581 35.9368 108.54 36.1396 108.5 36.3018C108.378 36.6669 108.256 36.9914 108.135 37.3564C106.796 40.2768 103.592 42.0614 100.307 41.4125C98.8464 41.1285 97.589 40.2768 96.7372 39.0599C95.926 37.8431 95.6016 36.3424 95.8855 34.8822C96.3316 32.5297 98.603 30.9884 100.956 31.4751C102.781 31.8401 103.957 33.5843 103.592 35.4095C103.47 36.0585 103.065 36.6669 102.497 37.0319C101.929 37.397 101.239 37.5592 100.591 37.4375C99.5359 37.2347 98.887 36.2207 99.0898 35.2067C99.252 34.436 99.9821 33.9493 100.753 34.1115C100.996 34.1521 101.239 34.3143 101.402 34.5171C101.564 34.72 101.605 35.0039 101.564 35.2472C101.483 35.6123 101.118 35.8557 100.793 35.7745C100.672 35.734 100.591 35.6934 100.509 35.6123C100.428 35.5312 100.428 35.4095 100.428 35.2878C100.509 34.9633 100.266 34.6388 99.9415 34.5577C99.6171 34.4766 99.2926 34.72 99.2115 35.0444C99.1303 35.4906 99.2114 35.9368 99.4548 36.3018C99.6982 36.6669 100.063 36.9102 100.509 36.9913C100.996 37.0725 101.523 36.9913 101.97 36.7074C102.416 36.4235 102.7 35.9773 102.781 35.4906C102.902 34.8822 102.781 34.3143 102.456 33.7871C102.132 33.3003 101.605 32.9353 101.037 32.8542C100.347 32.7325 99.6171 32.8542 99.0492 33.2598C98.4408 33.6654 98.0758 34.2738 97.9135 34.9633C97.589 36.6669 98.6842 38.3299 100.428 38.6543C101.442 38.8571 102.416 38.6543 103.268 38.0865C104.119 37.5186 104.687 36.6669 104.89 35.6528C105.133 34.436 104.89 33.2192 104.2 32.2052C103.511 31.1912 102.456 30.5016 101.28 30.2583C98.2786 29.6904 95.3987 31.5968 94.7498 34.5577L87.9356 18.1712C91.7077 19.2258 102.619 22.8357 110.933 30.8261C110.122 32.2863 109.433 33.8682 108.824 35.45ZM86.5565 18.7796L93.3302 35.0039C90.8154 33.422 87.4489 34.1521 85.7859 36.6263C85.0963 37.6403 84.853 38.8571 85.0963 40.074C85.3397 41.2908 86.0292 42.3048 87.0432 42.9943C88.7874 44.1706 91.1399 43.7244 92.3161 41.9803C93.2896 40.5201 92.9245 38.5732 91.4644 37.5998C90.856 37.1942 90.1664 37.0725 89.4769 37.1942C88.7874 37.3158 88.1789 37.7214 87.7733 38.3299C87.0838 39.3439 87.3677 40.7635 88.3817 41.453C89.2741 42.0614 90.4503 41.8181 91.0588 40.9257C91.586 40.1551 91.3832 39.1411 90.6126 38.6138C90.3287 38.411 89.9231 38.4921 89.7608 38.776C89.558 39.0599 89.6391 39.4656 89.9231 39.6278C90.1259 39.7495 90.1664 39.9928 90.0447 40.1956C89.8419 40.5201 89.4363 40.6013 89.1118 40.3579C88.6657 40.0334 88.544 39.425 88.8279 38.9788C89.0307 38.6543 89.3552 38.4515 89.7203 38.3704C90.0853 38.2893 90.4503 38.3704 90.7748 38.5732C91.6672 39.1816 91.87 40.3579 91.3021 41.2097C90.5315 42.3859 88.9496 42.6698 87.7733 41.8992C86.232 40.8852 85.8264 38.776 86.881 37.2753C88.2195 35.2878 90.8965 34.7605 92.884 36.099C95.4393 37.8026 96.0883 41.2908 94.3847 43.8461C92.6001 46.5231 89.2741 47.5777 86.3537 46.6448C85.7859 46.3609 85.1775 46.0769 84.6096 45.8336C84.569 45.793 84.5285 45.793 84.4879 45.7525C84.4068 45.7119 84.3257 45.6713 84.2446 45.6713C83.1089 45.1846 82.0137 44.6979 80.878 44.2923C80.3507 32.8947 84.8124 22.4301 86.5565 18.7796ZM41.088 41.088C46.2392 40.4796 86.7593 36.748 105.863 65.4244C105.782 65.3838 105.742 65.3433 105.742 65.3433L105.579 65.2622L105.417 65.3027C104.444 65.4244 103.633 65.7083 102.902 66.195C103.268 65.7894 103.389 65.3838 103.43 65.0188C103.511 64.4915 103.349 64.0859 103.349 64.0859C103.349 64.0859 103.024 63.802 102.497 63.6803C101.97 63.5586 101.239 63.6397 100.388 64.2481L102.091 66.6818C101.037 67.5336 100.266 68.6693 99.6576 69.805C99.6171 63.7209 95.926 62.139 95.7232 62.0579L95.561 61.9767L95.3987 62.0173C92.6406 62.7474 91.1804 65.0594 90.3692 67.3307C89.193 61.2872 85.2991 60.4354 85.0963 60.3949L84.9341 60.3543L84.7718 60.4354C82.176 61.6523 81.1619 64.2481 80.7969 66.6818C78.8094 61.125 74.9156 60.841 74.7128 60.8005H74.51L74.3477 60.8816C70.7784 63.1936 71.0623 68.0203 71.5491 70.7378L67.858 67.0468C64.9377 64.1265 64.6132 60.2732 64.6537 58.4074C65.4244 57.9207 66.0328 56.2982 66.1139 55.3248C66.195 54.1485 65.3838 54.3919 64.4104 54.3513C63.4369 54.3108 62.6663 53.9457 62.5852 55.122C62.5446 56.0549 62.9096 57.5556 63.518 58.2046C63.4775 59.4214 63.5586 61.4089 64.3293 63.518L59.7053 58.8941C60.0704 57.5962 58.8536 55.2031 57.799 54.108C56.5416 52.8506 56.0549 54.0268 55.0814 55.0003C54.0674 56.0143 52.9317 56.501 54.1891 57.7179C55.2437 58.7724 57.6773 59.9893 58.9752 59.6242L63.5992 64.2481C61.49 63.4775 59.5025 63.3964 58.2857 63.4369C57.6367 62.8285 56.0954 62.4229 55.2031 62.504C54.0268 62.5851 54.3513 63.3558 54.4324 64.3293C54.473 65.3027 54.2296 66.1139 55.4059 66.0328C56.3794 65.9922 58.0018 65.3433 58.4885 64.5726C60.3949 64.5321 64.2076 64.8566 67.1279 67.7769L70.9001 71.5491C68.2231 71.0623 63.2747 70.6973 60.9222 74.3072L60.841 74.4694V74.6722C60.841 74.875 61.1655 78.7689 66.6818 80.7563C64.2887 81.1214 61.6928 82.1354 60.4354 84.7313L60.3543 84.8935L60.3949 85.0558C60.4354 85.2586 61.2872 89.193 67.3307 90.3287C65.0594 91.1399 62.7474 92.6001 62.0173 95.3582L61.9767 95.5204L62.0579 95.6827C62.139 95.8855 63.6803 99.5359 69.805 99.6171C68.6693 100.185 67.5741 100.996 66.7223 102.01L64.2887 100.307C63.6397 101.158 63.5992 101.888 63.7208 102.416C63.8425 102.943 64.1265 103.268 64.1265 103.268C64.1265 103.268 64.5321 103.43 65.0593 103.349C65.3838 103.308 65.7894 103.146 66.195 102.821C65.7489 103.551 65.4244 104.403 65.3027 105.377L65.2622 105.539L65.3433 105.701C36.748 86.6782 40.5201 46.2392 41.088 41.088ZM45.7119 84.1229C45.7119 84.2446 45.7525 84.3662 45.793 84.4879C45.8741 84.6502 45.9958 84.7718 46.0769 84.9341C46.2392 85.2991 46.4014 85.6236 46.5637 85.9887C47.0098 87.2055 47.1315 88.544 46.8882 89.8419C46.5231 91.7077 45.4685 93.3302 43.8867 94.3847C41.3313 96.0883 37.8837 95.4393 36.1396 92.884C35.4906 91.9105 35.2472 90.7748 35.4906 89.6391C35.6934 88.5034 36.3424 87.53 37.3158 86.881C38.8571 85.867 40.9257 86.2726 41.9398 87.7733C42.7104 88.9496 42.4265 90.5315 41.2502 91.3021C40.3984 91.9105 39.1816 91.6672 38.6138 90.7748C38.1676 90.1259 38.3704 89.2741 38.9788 88.8279C39.425 88.5034 40.074 88.6251 40.3579 89.1118C40.5607 89.4363 40.4796 89.8419 40.1956 90.0447C40.1145 90.1259 39.9928 90.1259 39.8712 90.1259C39.7495 90.0853 39.6684 90.0447 39.5872 89.9636C39.3844 89.6797 39.0194 89.5986 38.7355 89.8014C38.4515 90.0042 38.3704 90.3692 38.5732 90.6531C38.8166 91.0182 39.1816 91.2616 39.6278 91.3427C40.074 91.4238 40.5201 91.3427 40.8852 91.0993C41.7775 90.4909 41.9803 89.3146 41.4125 88.4223C41.088 87.9356 40.5607 87.5705 39.9928 87.4894C39.3844 87.3677 38.8166 87.4894 38.2893 87.8139C37.0725 88.6251 36.748 90.2881 37.5592 91.5049C38.5327 92.9651 40.5201 93.3302 41.9398 92.3567C43.6839 91.1804 44.13 88.8279 42.9538 87.0838C41.5342 84.9746 38.6949 84.4474 36.5857 85.8264C34.071 87.53 33.3815 90.9371 35.0039 93.4924L18.5768 86.7188C21.9839 84.7719 32.2458 79.6206 43.765 79.4178C44.3734 80.9591 44.9818 82.541 45.7119 84.1229ZM18.1712 88.0573L34.436 94.7498C31.5157 95.4393 29.6499 98.2786 30.2177 101.239C30.7044 103.714 33.0975 105.336 35.6123 104.849C36.6263 104.647 37.4781 104.079 38.0459 103.227C38.6138 102.375 38.8166 101.361 38.6138 100.388C38.2893 98.6842 36.6263 97.5485 34.9228 97.873C33.5031 98.1569 32.5297 99.5359 32.8136 100.996C33.057 102.213 34.2332 103.024 35.45 102.781C35.9368 102.7 36.3829 102.375 36.6669 101.97C36.9508 101.523 37.0725 101.037 36.9508 100.509C36.7885 99.6171 35.8962 99.0087 35.0039 99.2115C34.6794 99.2926 34.436 99.6171 34.5171 99.9415C34.5983 100.266 34.9228 100.509 35.2472 100.428C35.3689 100.388 35.45 100.428 35.5717 100.509C35.6528 100.591 35.734 100.672 35.734 100.753C35.7745 100.915 35.734 101.118 35.6123 101.239C35.5312 101.402 35.3689 101.483 35.1661 101.523C34.6388 101.645 34.1115 101.28 33.9899 100.753C33.8276 99.9821 34.3549 99.252 35.085 99.0898C36.1396 98.887 37.113 99.5765 37.3158 100.591C37.4375 101.239 37.3158 101.929 36.9102 102.497C36.5452 103.065 35.9368 103.43 35.2878 103.592C33.4626 103.957 31.7185 102.74 31.3534 100.956C30.9072 98.603 32.4486 96.3316 34.7605 95.8855C35.8151 95.6827 36.9102 95.8044 37.9242 96.1694L38.0459 96.21C38.3704 96.3316 38.6543 96.4939 38.9788 96.6967C40.1956 97.5485 41.0474 98.8058 41.3313 100.266C41.9398 103.43 40.3579 106.472 37.6809 107.932C37.0319 108.135 36.4235 108.378 35.8151 108.622C35.7745 108.622 35.734 108.622 35.734 108.662C35.6528 108.662 35.5717 108.703 35.4906 108.743C34.3549 109.189 33.2192 109.676 32.1241 110.163C23.7686 102.456 19.5097 91.87 18.1712 88.0573ZM1.78467 136C4.98897 131.944 30.9884 100.631 64.816 107.405C64.7349 107.405 64.6943 107.445 64.6537 107.445L64.4915 107.486L64.3698 107.648C63.7614 108.419 63.3964 109.23 63.1936 110.041C63.153 109.514 62.9908 109.108 62.7474 108.824C62.4229 108.419 62.0579 108.216 62.0579 108.216C62.0579 108.216 61.6522 108.256 61.2061 108.54C60.7599 108.824 60.2732 109.392 60.1515 110.447L63.0719 110.974C62.9502 112.313 63.1936 113.651 63.5586 114.868C59.2186 110.609 55.5276 112.11 55.3248 112.191L55.1625 112.272L55.0814 112.434C53.6618 114.868 54.2296 117.585 55.2842 119.735C50.2141 116.288 46.8476 118.437 46.6448 118.559L46.4826 118.681L46.4014 118.843C45.428 121.56 46.5637 124.116 48.0239 126.063C42.6699 123.548 39.7089 126.103 39.5872 126.225L39.4656 126.347L39.425 126.509C38.5732 130.687 42.1831 133.891 44.4545 135.473H39.2222C35.085 135.473 32.1241 132.999 30.8261 131.619C31.0289 130.727 30.3394 129.145 29.6904 128.415C28.8792 127.523 28.5142 128.293 27.7841 128.942C27.054 129.591 26.2428 129.875 27.054 130.768C27.6624 131.457 29.0009 132.268 29.9338 132.268C30.745 133.161 32.2052 134.499 34.2738 135.473H27.703C27.054 134.337 24.4987 133.445 22.9574 133.445C21.2132 133.445 21.6594 134.58 21.6594 136C21.6594 137.42 21.2132 138.555 22.9574 138.555C24.4581 138.555 27.0134 137.704 27.703 136.527H34.2332C32.2052 137.46 30.7044 138.839 29.8932 139.732C28.9603 139.772 27.6624 140.543 27.0134 141.232C26.2022 142.125 27.0134 142.409 27.7435 143.058C28.4736 143.707 28.8387 144.477 29.6499 143.585C30.2988 142.855 30.9884 141.273 30.7856 140.381C32.0835 139.001 35.0444 136.527 39.1816 136.527H44.4545C42.1831 138.069 38.4921 141.313 39.3439 145.532L39.3844 145.694L39.5061 145.816C39.6278 145.897 40.9663 147.073 43.4811 147.073C44.6979 147.073 46.1986 146.789 47.9427 145.978C46.4826 147.925 45.3874 150.48 46.3609 153.198L46.442 153.36L46.6042 153.482C46.6854 153.563 47.8211 154.252 49.6868 154.252C51.147 154.252 53.0128 153.806 55.2437 152.305C54.1891 154.496 53.5807 157.173 55.0409 159.606L55.122 159.769L55.2842 159.85C55.3653 159.89 56.0549 160.174 57.1906 160.174C58.7319 160.174 61.0033 159.647 63.518 157.173C63.153 158.39 62.9096 159.728 63.0313 161.026L60.1109 161.553C60.2732 162.608 60.7194 163.176 61.1655 163.46C61.6117 163.744 62.0173 163.784 62.0173 163.784C62.0173 163.784 62.3823 163.622 62.7068 163.176C62.9096 162.892 63.1124 162.527 63.153 161.999C63.3558 162.851 63.7208 163.662 64.3293 164.433L64.4509 164.595L64.6132 164.636C30.9478 171.288 5.02953 140.056 1.78467 136ZM35.45 163.176C35.5312 163.257 35.6528 163.338 35.7745 163.378C35.9368 163.419 36.099 163.46 36.2613 163.5C36.6263 163.622 36.9914 163.784 37.3564 163.906C40.2768 165.244 42.0209 168.449 41.3719 171.734C41.088 173.194 40.2362 174.452 39.0194 175.303C37.8026 176.155 36.3018 176.439 34.8416 176.155C32.4891 175.709 30.9478 173.438 31.4345 171.085C31.7996 169.26 33.5437 168.084 35.3689 168.449C36.748 168.732 37.6403 170.071 37.397 171.45C37.1942 172.464 36.1801 173.154 35.1661 172.951C34.3955 172.789 33.9087 172.058 34.071 171.288C34.1927 170.761 34.6794 170.395 35.2472 170.517C35.4095 170.558 35.5717 170.639 35.6934 170.801C35.7745 170.963 35.8151 171.126 35.8151 171.288C35.7745 171.409 35.734 171.491 35.6528 171.531C35.5717 171.612 35.45 171.612 35.3284 171.612C35.0039 171.531 34.6794 171.775 34.5983 172.099C34.5172 172.424 34.7605 172.748 35.085 172.829C35.9773 172.991 36.8697 172.423 37.0319 171.531C37.113 171.044 37.0319 170.517 36.748 170.071C36.4641 169.625 36.0179 169.341 35.5312 169.26C34.9228 169.138 34.3549 169.26 33.8276 169.584C33.3409 169.909 32.9758 170.436 32.8947 171.004C32.6108 172.423 33.5437 173.843 35.0039 174.127C36.7074 174.452 38.3704 173.356 38.6949 171.612C38.8977 170.598 38.6949 169.625 38.1271 168.773C37.5592 167.921 36.7074 167.353 35.6934 167.151C33.2192 166.664 30.7856 168.286 30.2988 170.761C29.731 173.762 31.6373 176.642 34.5983 177.291L18.1306 184.146C19.1852 180.373 22.7951 169.463 30.7856 161.148C32.2863 161.878 33.8682 162.527 35.45 163.176ZM18.7796 185.403L35.0039 178.629C33.422 181.144 34.1521 184.511 36.6263 186.174C38.7355 187.593 41.5747 187.025 42.9943 184.916C44.1706 183.172 43.7244 180.82 41.9803 179.643C41.2908 179.157 40.439 178.994 39.5872 179.157C38.776 179.319 38.0459 179.806 37.5592 180.495C36.748 181.712 37.0725 183.375 38.2893 184.186C39.3033 184.876 40.7229 184.592 41.4125 183.578C42.0209 182.685 41.7775 181.509 40.8852 180.901C40.1145 180.373 39.1005 180.576 38.5732 181.347C38.3704 181.631 38.4515 182.036 38.7355 182.199C39.0194 182.401 39.425 182.32 39.5872 182.036C39.7089 181.834 39.9523 181.793 40.1551 181.915C40.4796 182.118 40.5607 182.523 40.3173 182.848C39.9928 183.294 39.3844 183.415 38.9383 183.132C38.2893 182.685 38.1271 181.834 38.5732 181.185C39.1816 180.292 40.3579 180.089 41.2097 180.657C42.3859 181.428 42.6698 183.01 41.8992 184.186C40.8852 185.727 38.776 186.133 37.2753 185.078C36.3018 184.429 35.6529 183.456 35.45 182.32C35.2472 181.185 35.45 180.049 36.099 179.075C36.748 178.143 37.6403 177.412 38.6138 177.047C40.2768 176.398 42.2237 176.52 43.8055 177.575C45.3874 178.629 46.442 180.252 46.807 182.118C47.0504 183.294 46.9693 184.47 46.6448 185.565C46.3609 186.174 46.0769 186.782 45.793 187.35C45.7525 187.39 45.7525 187.431 45.7525 187.431C45.7119 187.512 45.6713 187.593 45.6713 187.674C45.1846 188.81 44.6979 189.905 44.2923 191.041C32.8947 191.649 22.4301 187.188 18.7796 185.403ZM41.088 230.871C40.4796 225.72 36.7074 185.2 65.4244 166.096C65.3838 166.177 65.3433 166.218 65.3433 166.218L65.2622 166.38L65.3027 166.542C65.4244 167.516 65.7083 168.327 66.195 169.057C65.7894 168.692 65.3838 168.57 65.0188 168.53C64.4915 168.449 64.0859 168.611 64.0859 168.611C64.0859 168.611 63.802 168.935 63.6803 169.463C63.5586 169.99 63.6397 170.72 64.2481 171.572L66.6818 169.868C67.5336 170.923 68.6693 171.693 69.805 172.302C63.7209 172.342 62.139 176.033 62.0579 176.236L61.9767 176.398L62.0173 176.561C62.7474 179.319 65.0594 180.779 67.3307 181.59C61.3278 182.766 60.4354 186.66 60.3949 186.863L60.3543 187.025L60.4354 187.188C61.6523 189.783 64.2481 190.797 66.6818 191.163C61.125 193.15 60.841 197.044 60.841 197.247V197.449L60.9222 197.612C62.504 200.045 65.3027 200.694 67.7364 200.694C68.8721 200.694 69.9266 200.573 70.7784 200.41L67.0874 204.101C64.167 207.022 60.3138 207.346 58.448 207.306C57.9612 206.535 56.3388 205.927 55.3653 205.846C54.1891 205.764 54.4325 206.576 54.3919 207.549C54.3513 208.523 53.9863 209.293 55.1625 209.374C56.0954 209.415 57.5962 209.05 58.2452 208.441C58.4074 208.441 58.6102 208.441 58.8536 208.441C60.0704 208.441 61.7739 208.279 63.5992 207.63L58.9752 212.254C57.6773 211.889 55.2842 213.106 54.1891 214.16C52.9317 215.418 54.108 215.905 55.0814 216.878C56.0954 217.892 56.5822 219.028 57.799 217.77C58.8536 216.716 60.0704 214.282 59.7053 212.984L64.3293 208.36C63.5586 210.469 63.4775 212.457 63.518 213.674C62.9096 214.323 62.504 215.864 62.5852 216.756C62.6663 217.933 63.4369 217.608 64.4104 217.527C65.3838 217.486 66.195 217.73 66.1139 216.554C66.0734 215.58 65.4244 213.958 64.6537 213.471C64.6132 211.565 64.9377 207.752 67.858 204.831L71.5896 201.1C71.1029 203.777 70.7378 208.725 74.3477 211.078L74.51 211.159H74.7128C74.9156 211.159 78.8094 210.834 80.7969 205.318C81.1619 207.711 82.176 210.348 84.7718 211.565L84.9341 211.646L85.0963 211.605C85.2991 211.565 89.2335 210.713 90.3692 204.669C91.1804 206.941 92.6406 209.253 95.3987 209.983L95.561 210.023L95.7232 209.942C95.926 209.861 99.5765 208.32 99.6576 202.195C100.225 203.331 101.037 204.426 102.051 205.278L100.347 207.711C101.199 208.36 101.929 208.401 102.456 208.279C102.984 208.157 103.308 207.874 103.308 207.874C103.308 207.874 103.47 207.468 103.389 206.941C103.349 206.616 103.186 206.211 102.862 205.805C103.592 206.251 104.444 206.576 105.417 206.697L105.579 206.738L105.742 206.657C86.6782 235.211 46.2392 231.48 41.088 230.871ZM84.1229 226.288C84.2446 226.288 84.3662 226.248 84.4879 226.207C84.6096 226.126 84.7719 226.045 84.8935 225.964C85.2586 225.801 85.6236 225.639 85.9887 225.436C87.2055 224.99 88.5034 224.868 89.8014 225.112C91.6672 225.477 93.2896 226.531 94.3442 228.113C96.0477 230.669 95.3987 234.116 92.8434 235.86C90.8559 237.199 88.1789 236.672 86.8404 234.684C86.3537 233.954 86.1509 233.062 86.3132 232.169C86.4754 231.277 87.0027 230.547 87.7328 230.02C88.3006 229.655 88.9902 229.492 89.6391 229.614C90.2881 229.736 90.8965 230.141 91.2616 230.709C91.5455 231.115 91.6672 231.642 91.5455 232.129C91.4644 232.616 91.1804 233.062 90.7343 233.346C90.4098 233.548 90.0447 233.63 89.6797 233.548C89.3146 233.467 88.9902 233.265 88.7874 232.94C88.6251 232.737 88.5846 232.453 88.6251 232.21C88.6657 231.967 88.8279 231.723 89.0307 231.561C89.3552 231.358 89.7608 231.439 89.9636 231.723C90.0447 231.804 90.0447 231.926 90.0447 232.048C90.0042 232.169 89.9636 232.251 89.8825 232.291C89.5986 232.494 89.5174 232.859 89.7203 233.143C89.9231 233.427 90.2881 233.508 90.572 233.305C90.9371 233.062 91.1804 232.697 91.2616 232.251C91.3427 231.804 91.2616 231.358 91.0182 230.993C90.4098 230.101 89.2335 229.898 88.3412 230.466C87.8545 230.79 87.4894 231.318 87.4083 231.885C87.2866 232.494 87.4083 233.062 87.7328 233.589C88.1384 234.197 88.7468 234.562 89.4363 234.725C90.1259 234.846 90.8559 234.725 91.4238 234.319C92.1133 233.832 92.6001 233.143 92.7623 232.291C92.9245 231.48 92.7623 230.628 92.2756 229.898C91.0993 228.154 88.7468 227.708 87.0027 228.884C85.9887 229.574 85.2991 230.628 85.0558 231.804C84.8124 233.021 85.0558 234.238 85.7453 235.252C86.8404 236.834 88.5846 237.726 90.3692 237.726C91.4238 237.726 92.4378 237.442 93.3707 236.834L86.5971 253.261C84.6502 249.813 79.499 239.592 79.2962 228.073C80.9591 227.627 82.541 226.978 84.1229 226.288ZM88.0573 253.829L94.7498 237.564C95.3582 240.119 97.6296 241.863 100.185 241.863C100.55 241.863 100.915 241.823 101.239 241.742C102.456 241.498 103.47 240.809 104.16 239.795C104.849 238.781 105.093 237.564 104.849 236.347C104.444 234.279 102.456 232.94 100.388 233.346C98.6842 233.67 97.5485 235.333 97.873 237.037C97.9946 237.726 98.4002 238.335 99.0087 238.74C99.6171 239.146 100.307 239.268 100.996 239.146C102.213 238.902 103.024 237.726 102.781 236.509C102.578 235.455 101.564 234.806 100.509 234.968C99.6171 235.13 99.0087 236.023 99.2115 236.915C99.2926 237.239 99.6171 237.483 99.9415 237.402C100.266 237.321 100.509 236.996 100.428 236.672C100.388 236.428 100.55 236.225 100.753 236.185C101.118 236.104 101.483 236.347 101.523 236.712C101.645 237.239 101.28 237.767 100.753 237.888C100.388 237.97 100.023 237.888 99.6982 237.686C99.3737 237.483 99.1709 237.158 99.0898 236.793C98.887 235.779 99.5765 234.765 100.591 234.562C101.97 234.279 103.308 235.211 103.592 236.591C103.754 237.483 103.592 238.335 103.065 239.105C102.578 239.835 101.807 240.363 100.915 240.525C98.5625 240.971 96.2911 239.43 95.8449 237.118C95.6421 236.063 95.7638 234.968 96.1288 233.995L96.1694 233.873C96.2911 233.548 96.4533 233.265 96.6561 232.94C97.4673 231.723 98.7653 230.871 100.225 230.588C102.091 230.222 103.998 230.628 105.579 231.683C106.553 232.332 107.364 233.224 107.891 234.238C108.094 234.887 108.338 235.495 108.581 236.104C108.581 236.144 108.581 236.185 108.622 236.225C108.622 236.307 108.662 236.388 108.743 236.469C109.189 237.605 109.636 238.74 110.163 239.835C102.456 248.231 91.87 252.49 88.0573 253.829ZM136 270.175C131.944 266.97 100.631 240.971 107.405 207.143C107.405 207.225 107.445 207.265 107.445 207.306L107.486 207.468L107.648 207.59C108.419 208.198 109.23 208.563 110.041 208.766C109.514 208.806 109.108 208.969 108.824 209.212C108.419 209.537 108.216 209.902 108.216 209.902C108.216 209.902 108.256 210.307 108.54 210.753C108.824 211.2 109.392 211.686 110.447 211.808L110.974 208.888C111.217 208.928 111.501 208.928 111.745 208.928C112.84 208.928 113.894 208.725 114.908 208.401C110.609 212.741 112.11 216.432 112.191 216.635L112.272 216.797L112.434 216.878C113.489 217.486 114.543 217.73 115.598 217.73C117.058 217.73 118.478 217.284 119.735 216.675C116.288 221.745 118.437 225.152 118.559 225.315L118.681 225.477L118.843 225.558C119.532 225.801 120.262 225.923 120.911 225.923C122.818 225.923 124.602 225.031 126.063 223.976C123.548 229.33 126.103 232.251 126.225 232.413L126.347 232.534L126.509 232.575C126.955 232.656 127.361 232.697 127.766 232.697C131.295 232.697 134.053 229.574 135.432 227.545V232.737C135.432 236.874 132.958 239.835 131.579 241.133C130.687 240.931 129.105 241.62 128.375 242.269C127.482 243.08 128.253 243.445 128.902 244.175C129.551 244.905 129.835 245.717 130.727 244.905C131.417 244.297 132.228 242.959 132.228 242.026C133.12 241.214 134.459 239.754 135.432 237.686V244.216C134.296 244.865 133.404 247.42 133.404 248.962C133.404 250.706 134.54 250.259 135.959 250.259C137.379 250.259 138.515 250.746 138.515 248.962C138.515 247.461 137.663 244.905 136.487 244.216V237.686C137.42 239.714 138.799 241.214 139.691 242.026C139.732 242.959 140.502 244.256 141.192 244.905C142.084 245.717 142.368 244.905 143.017 244.175C143.666 243.445 144.437 243.08 143.544 242.269C142.814 241.62 141.232 240.931 140.34 241.133C138.961 239.835 136.487 236.874 136.487 232.737V227.464C137.866 229.492 140.624 232.697 144.234 232.697C144.639 232.697 145.086 232.656 145.491 232.575L145.653 232.534L145.775 232.413C145.897 232.251 148.452 229.29 145.937 223.976C147.398 225.031 149.142 225.923 151.089 225.923C151.778 225.923 152.468 225.801 153.157 225.558L153.319 225.477L153.441 225.315C153.563 225.152 155.712 221.745 152.265 216.675C153.522 217.284 154.942 217.73 156.402 217.73C157.457 217.73 158.552 217.486 159.566 216.878L159.728 216.797L159.809 216.635C159.89 216.432 161.391 212.741 157.092 208.401C158.106 208.725 159.16 208.928 160.255 208.928C160.499 208.928 160.742 208.928 160.945 208.888L161.472 211.808C162.527 211.646 163.095 211.2 163.378 210.753C163.662 210.307 163.703 209.902 163.703 209.902C163.703 209.902 163.541 209.537 163.095 209.212C162.811 209.009 162.446 208.806 161.918 208.766C162.77 208.563 163.581 208.198 164.352 207.59L164.514 207.468L164.555 207.306C171.288 241.012 140.056 266.97 136 270.175ZM163.176 236.509C163.257 236.428 163.338 236.307 163.338 236.185C163.378 236.023 163.419 235.86 163.46 235.658C163.581 235.293 163.703 234.928 163.825 234.603C165.163 231.683 168.367 229.898 171.653 230.547C173.113 230.831 174.37 231.683 175.222 232.899C176.033 234.116 176.358 235.617 176.074 237.077C175.628 239.43 173.316 240.971 171.004 240.484C170.112 240.322 169.381 239.795 168.854 239.065C168.367 238.335 168.165 237.442 168.327 236.55C168.611 235.171 169.949 234.279 171.328 234.522C172.383 234.725 173.032 235.739 172.829 236.753C172.748 237.118 172.545 237.442 172.221 237.645C171.896 237.848 171.531 237.929 171.166 237.848C170.639 237.726 170.274 237.199 170.395 236.672C170.477 236.307 170.842 236.063 171.166 236.144C171.409 236.185 171.531 236.388 171.491 236.631C171.409 236.956 171.653 237.28 171.977 237.361C172.302 237.442 172.626 237.199 172.707 236.874C172.87 235.982 172.302 235.09 171.409 234.928C170.355 234.725 169.341 235.414 169.138 236.469C168.895 237.686 169.706 238.862 170.923 239.105C171.612 239.227 172.342 239.105 172.91 238.7C173.519 238.294 173.884 237.686 174.046 236.996C174.37 235.293 173.275 233.63 171.531 233.305C169.463 232.9 167.475 234.238 167.069 236.307C166.826 237.523 167.069 238.74 167.759 239.754C168.449 240.768 169.503 241.458 170.679 241.701C171.044 241.782 171.409 241.823 171.734 241.823C174.33 241.823 176.642 240.038 177.169 237.402L183.983 253.788C180.211 252.734 169.3 249.164 160.985 241.133C161.878 239.673 162.527 238.132 163.176 236.509ZM185.403 253.18L178.629 236.956C179.522 237.523 180.536 237.807 181.55 237.807C183.334 237.807 185.119 236.956 186.174 235.333C187.593 233.224 187.025 230.385 184.916 228.965C184.064 228.397 183.05 228.194 182.077 228.397C181.063 228.6 180.211 229.168 179.643 230.02C179.157 230.709 178.994 231.561 179.157 232.372C179.319 233.183 179.806 233.914 180.495 234.4C181.103 234.806 181.793 234.928 182.483 234.806C183.172 234.684 183.781 234.279 184.186 233.67C184.511 233.183 184.632 232.575 184.511 231.967C184.389 231.358 184.064 230.871 183.578 230.547C183.132 230.263 182.645 230.141 182.118 230.263C181.631 230.344 181.185 230.669 180.901 231.074C180.657 231.439 180.576 231.885 180.657 232.332C180.738 232.778 180.982 233.143 181.347 233.386C181.631 233.589 182.036 233.508 182.199 233.224C182.401 232.94 182.32 232.534 182.036 232.372C181.955 232.291 181.874 232.21 181.874 232.129C181.834 232.007 181.874 231.926 181.955 231.804C182.036 231.642 182.199 231.561 182.401 231.52C182.564 231.48 182.766 231.52 182.888 231.642C183.091 231.804 183.253 232.007 183.294 232.291C183.334 232.534 183.294 232.818 183.132 233.021C182.929 233.346 182.604 233.548 182.239 233.63C181.874 233.711 181.509 233.63 181.185 233.427C180.779 233.143 180.495 232.697 180.373 232.21C180.292 231.723 180.373 231.196 180.657 230.79C181.022 230.222 181.631 229.857 182.28 229.695C182.969 229.574 183.618 229.695 184.186 230.101C185.727 231.115 186.133 233.224 185.078 234.725C183.74 236.712 181.063 237.239 179.075 235.901C178.183 235.293 177.494 234.441 177.047 233.467L177.007 233.346C176.885 233.021 176.764 232.697 176.723 232.332C176.439 230.871 176.723 229.371 177.575 228.154C178.629 226.572 180.252 225.517 182.118 225.152C183.294 224.909 184.429 224.99 185.565 225.315C186.174 225.599 186.782 225.882 187.39 226.166C187.431 226.166 187.431 226.207 187.472 226.207C187.553 226.248 187.634 226.288 187.715 226.288C188.851 226.775 189.946 227.262 191.081 227.667C191.649 239.065 187.188 249.529 185.403 253.18ZM230.871 230.871C225.72 231.48 185.2 235.252 166.096 206.535C166.177 206.576 166.218 206.616 166.218 206.616L166.38 206.697L166.542 206.657C167.516 206.535 168.327 206.251 169.057 205.764C168.692 206.17 168.57 206.576 168.53 206.941C168.449 207.468 168.611 207.874 168.611 207.874C168.611 207.874 168.935 208.157 169.463 208.279C169.99 208.401 170.72 208.32 171.572 207.711L169.868 205.278C170.923 204.426 171.693 203.29 172.302 202.154C172.342 208.239 176.033 209.82 176.236 209.902L176.398 209.983L176.561 209.942C179.319 209.212 180.779 206.9 181.59 204.629C182.766 210.672 186.66 211.524 186.863 211.565L187.025 211.605L187.188 211.524C189.783 210.307 190.797 207.711 191.163 205.278C193.15 210.834 197.044 211.118 197.247 211.118H197.449L197.612 211.037C201.181 208.725 200.897 203.899 200.41 201.181L204.101 204.872C207.022 207.792 207.346 211.646 207.306 213.511C206.535 213.998 205.927 215.621 205.846 216.594C205.764 217.77 206.576 217.527 207.549 217.568C208.523 217.608 209.293 217.973 209.374 216.797C209.415 215.864 209.05 214.363 208.441 213.714C208.482 212.497 208.401 210.51 207.63 208.401L212.254 213.025C211.889 214.323 213.106 216.716 214.16 217.811C215.418 219.068 215.905 217.892 216.878 216.919C217.892 215.905 219.028 215.418 217.77 214.201C216.716 213.146 214.282 211.93 212.984 212.295L208.36 207.671C210.145 208.32 211.889 208.482 213.106 208.482C213.309 208.482 213.512 208.482 213.714 208.482C214.363 209.09 215.905 209.496 216.797 209.415C217.973 209.334 217.649 208.563 217.568 207.59C217.527 206.616 217.77 205.805 216.594 205.886C215.621 205.927 213.998 206.576 213.511 207.346C211.605 207.387 207.792 207.062 204.872 204.142L201.14 200.41C201.992 200.573 203.128 200.735 204.304 200.735C206.778 200.735 209.537 200.086 211.118 197.652L211.2 197.49V197.287C211.2 197.084 210.875 193.191 205.359 191.203C207.752 190.838 210.388 189.824 211.605 187.228L211.686 187.066L211.646 186.904C211.605 186.701 210.753 182.766 204.71 181.631C206.981 180.82 209.293 179.359 210.023 176.601L210.064 176.439L209.983 176.277C209.902 176.074 208.36 172.424 202.236 172.342C203.371 171.775 204.466 170.963 205.318 169.949L207.752 171.653C208.401 170.801 208.441 170.071 208.32 169.544C208.198 169.016 207.914 168.692 207.914 168.692C207.914 168.692 207.508 168.53 206.981 168.611C206.657 168.651 206.251 168.814 205.846 169.138C206.292 168.408 206.616 167.556 206.738 166.583L206.778 166.421L206.697 166.258C235.211 185.322 231.48 225.72 230.871 230.871ZM226.288 187.877C226.288 187.755 226.248 187.634 226.207 187.512C226.126 187.35 226.004 187.228 225.923 187.066C225.761 186.701 225.599 186.376 225.436 186.011C224.99 184.795 224.868 183.456 225.112 182.158C225.477 180.292 226.531 178.67 228.113 177.615C229.33 176.763 230.831 176.48 232.291 176.763C233.751 177.047 235.009 177.899 235.86 179.116C237.199 181.103 236.672 183.78 234.684 185.119C233.143 186.133 231.074 185.727 230.06 184.227C229.695 183.659 229.533 182.969 229.655 182.32C229.776 181.671 230.182 181.063 230.75 180.698C231.642 180.089 232.818 180.333 233.386 181.225C233.589 181.55 233.67 181.915 233.589 182.28C233.508 182.645 233.305 182.969 232.981 183.172C232.778 183.334 232.494 183.375 232.251 183.334C232.007 183.294 231.764 183.132 231.602 182.929C231.52 182.766 231.48 182.604 231.48 182.442C231.52 182.28 231.602 182.118 231.764 181.996C231.845 181.915 231.967 181.915 232.088 181.915C232.21 181.955 232.291 181.996 232.332 182.077C232.534 182.361 232.9 182.442 233.183 182.239C233.467 182.036 233.548 181.671 233.346 181.387C232.818 180.617 231.804 180.414 231.034 180.941C230.588 181.225 230.304 181.671 230.222 182.158C230.141 182.645 230.222 183.172 230.506 183.618C230.831 184.105 231.358 184.47 231.926 184.551C232.534 184.673 233.102 184.551 233.63 184.227C234.846 183.415 235.171 181.752 234.36 180.536C233.873 179.846 233.183 179.359 232.332 179.197C231.52 179.035 230.669 179.197 229.939 179.684C229.087 180.252 228.519 181.103 228.316 182.118C228.113 183.132 228.316 184.105 228.884 184.957C230.304 187.066 233.143 187.593 235.252 186.214C237.767 184.511 238.456 181.103 236.834 178.548L253.261 185.322C249.854 187.269 239.592 192.42 228.073 192.623C227.586 191 226.978 189.418 226.288 187.877ZM253.829 183.902L237.564 177.21C240.484 176.52 242.35 173.681 241.782 170.72C241.539 169.503 240.849 168.489 239.835 167.8C238.821 167.11 237.605 166.867 236.388 167.11C234.319 167.516 232.981 169.503 233.386 171.572C233.711 173.275 235.374 174.411 237.077 174.086C238.497 173.803 239.47 172.424 239.186 170.963C238.943 169.746 237.767 168.935 236.55 169.179C236.063 169.26 235.617 169.584 235.333 169.99C235.049 170.436 234.928 170.923 235.049 171.45C235.211 172.342 236.104 172.951 236.996 172.748C237.321 172.667 237.564 172.342 237.483 172.018C237.402 171.693 237.077 171.45 236.753 171.531C236.509 171.572 236.307 171.409 236.266 171.207C236.225 171.044 236.266 170.842 236.388 170.72C236.469 170.558 236.631 170.477 236.834 170.436C237.361 170.314 237.888 170.679 238.01 171.207C238.172 171.977 237.645 172.707 236.915 172.87C235.86 173.072 234.887 172.383 234.684 171.369C234.4 169.99 235.333 168.651 236.712 168.367C237.605 168.205 238.497 168.367 239.227 168.895C239.957 169.381 240.484 170.152 240.647 171.044C241.093 173.397 239.551 175.668 237.239 176.115C236.185 176.317 235.09 176.196 234.116 175.831L233.995 175.79C233.67 175.668 233.386 175.506 233.062 175.303C231.845 174.492 230.993 173.194 230.709 171.734C230.344 169.868 230.75 167.962 231.804 166.38C232.453 165.407 233.346 164.595 234.36 164.068C235.009 163.865 235.617 163.622 236.266 163.378C236.307 163.378 236.307 163.378 236.347 163.338C236.428 163.338 236.509 163.297 236.591 163.216C237.726 162.77 238.862 162.324 239.957 161.797C248.231 169.544 252.49 180.089 253.829 183.902ZM207.184 164.595C207.265 164.595 207.306 164.555 207.346 164.555L207.509 164.514L207.63 164.352C208.239 163.581 208.604 162.77 208.806 161.959C208.847 162.486 209.009 162.892 209.253 163.176C209.577 163.581 209.942 163.784 209.942 163.784C209.942 163.784 210.348 163.744 210.794 163.46C211.24 163.176 211.727 162.608 211.848 161.553L208.928 161.026C209.05 159.687 208.806 158.349 208.441 157.132C210.956 159.606 213.268 160.134 214.769 160.134C215.864 160.134 216.594 159.85 216.675 159.809L216.837 159.728L216.919 159.566C218.338 157.132 217.73 154.415 216.716 152.265C218.947 153.766 220.853 154.212 222.273 154.212C224.138 154.212 225.234 153.482 225.355 153.441L225.517 153.319L225.599 153.157C226.572 150.44 225.436 147.884 224.017 145.937C225.761 146.749 227.262 147.033 228.478 147.033C230.993 147.033 232.372 145.856 232.453 145.775L232.575 145.653L232.616 145.491C233.467 141.313 229.857 138.109 227.586 136.527H232.778C236.915 136.527 239.876 139.001 241.174 140.381C240.971 141.273 241.661 142.855 242.31 143.585C243.121 144.477 243.486 143.707 244.216 143.058C244.946 142.409 245.757 142.125 244.946 141.232C244.338 140.543 242.999 139.732 242.066 139.732C241.255 138.839 239.795 137.501 237.726 136.527H244.256C244.905 137.663 247.461 138.555 249.002 138.555C250.746 138.555 250.3 137.42 250.3 136C250.3 134.58 250.746 133.445 249.002 133.445C247.501 133.445 244.946 134.296 244.256 135.473H237.726C239.754 134.54 241.255 133.161 242.066 132.268C242.999 132.228 244.297 131.457 244.946 130.768C245.757 129.875 244.946 129.591 244.216 128.942C243.486 128.293 243.121 127.523 242.31 128.415C241.661 129.145 240.971 130.727 241.174 131.619C239.876 132.999 236.915 135.473 232.778 135.473H227.505C229.776 133.931 233.467 130.687 232.616 126.468L232.575 126.306L232.413 126.144C232.251 126.022 229.29 123.467 223.976 125.982C225.436 124.035 226.531 121.479 225.599 118.762L225.517 118.599L225.355 118.478C225.193 118.356 221.786 116.206 216.716 119.654C217.77 117.464 218.379 114.787 216.919 112.353L216.837 112.191L216.675 112.11C216.472 112.029 212.781 110.528 208.441 114.787C208.806 113.57 209.05 112.231 208.928 110.933L211.848 110.406C211.686 109.352 211.24 108.784 210.794 108.5C210.348 108.216 209.942 108.175 209.942 108.175C209.942 108.175 209.577 108.338 209.253 108.784C209.05 109.068 208.847 109.433 208.806 109.96C208.604 109.108 208.239 108.297 207.63 107.526L207.509 107.364L207.346 107.324C241.052 100.672 267.011 131.903 270.215 135.959C266.97 140.056 240.971 171.369 207.184 164.595Z" fill="#019147"/>
</svg>
