<svg width="360" height="381" viewBox="0 0 360 381" fill="none" xmlns="http://www.w3.org/2000/svg">
<path opacity="0.2" d="M359.546 191.068L360 190.443L359.546 189.818C359.318 189.477 343.524 168.626 318.752 156.127C332.502 141.469 336.99 121.697 337.047 121.527L337.217 120.788L336.592 120.447C336.422 120.334 318.696 110.618 298.64 111.13C308.185 84.1427 304.378 56.9284 304.322 56.4739L304.208 55.7353L303.469 55.6217C303.072 55.5649 277.107 51.9855 250.802 60.6214C250.177 40.6226 239.325 23.4645 239.212 23.2941L238.814 22.6691L238.075 22.8964C237.848 22.9532 218.474 28.5778 204.668 43.1224C192.34 17.2717 170.409 0.738592 170.068 0.454518L169.5 0L168.875 0.454518C168.534 0.681778 147.683 16.4763 135.184 41.2475C120.526 27.4984 100.754 23.01 100.584 22.9532L99.8451 22.7827L99.5042 23.4077C99.3906 23.5781 89.6752 41.3044 90.1866 61.36C63.1995 51.8151 35.9852 55.6217 35.5307 55.6785L34.7921 55.7921L34.6785 56.5307C34.6217 56.9284 31.0424 82.8928 39.6782 109.198C19.5658 109.823 2.46451 120.618 2.23725 120.731L1.61229 121.129L1.83955 121.868C1.89636 122.095 7.52103 141.469 22.0656 155.275C-3.7283 167.604 -20.3182 189.534 -20.5455 189.875L-21 190.5L-20.5455 191.125C-20.3182 191.466 -4.52371 212.374 20.2475 224.816C6.49836 239.474 2.00999 259.246 1.95318 259.416L1.78273 260.155L2.4077 260.496C2.57814 260.609 19.3385 269.813 38.7123 269.813C39.2805 269.813 39.7918 269.813 40.36 269.813C30.8151 296.8 34.6217 324.015 34.6785 324.469L34.7921 325.208L35.5307 325.322C35.7012 325.322 41.2122 326.117 49.6776 326.117C59.7338 326.117 73.8807 325.037 88.198 320.322C88.823 340.377 99.6178 357.535 99.7314 357.706L100.129 358.331L100.868 358.104C101.095 358.047 120.469 352.422 134.275 337.878C146.604 363.728 168.534 380.261 168.875 380.546L169.5 381L170.125 380.546C170.466 380.318 191.317 364.524 203.816 339.752C218.474 353.502 238.246 357.99 238.416 358.047L239.155 358.217L239.496 357.592C239.609 357.422 249.325 339.696 248.813 319.64C263.756 324.924 278.812 326.117 289.322 326.117C297.731 326.117 303.242 325.322 303.469 325.322L304.208 325.208L304.322 324.469C304.378 324.072 307.958 298.107 299.322 271.802C319.434 271.177 336.536 260.382 336.763 260.269L337.388 259.871L337.16 259.132C337.104 258.905 331.479 239.531 316.934 225.725C342.672 213.396 359.261 191.409 359.546 191.068ZM310.287 152.434C310.173 152.32 310.003 152.207 309.833 152.15C309.605 152.093 309.321 152.036 309.094 151.98C308.583 151.809 308.128 151.639 307.617 151.468C305.969 150.73 304.492 149.537 303.469 147.946C301.992 145.73 301.424 143.06 301.935 140.446C302.731 136.242 306.878 133.458 311.082 134.253C314.378 134.878 316.537 138.06 315.855 141.355C315.628 142.605 314.889 143.628 313.866 144.366C312.844 145.048 311.594 145.332 310.344 145.105C308.412 144.707 307.162 142.832 307.503 140.901C307.787 139.48 309.208 138.514 310.628 138.799C311.707 139.026 312.389 140.048 312.162 141.128C311.992 141.867 311.253 142.378 310.514 142.207C310.287 142.151 310.06 142.037 309.889 141.81C309.776 141.582 309.719 141.355 309.719 141.128C309.776 140.787 310.06 140.617 310.401 140.673C310.855 140.787 311.31 140.446 311.423 139.992C311.537 139.537 311.196 139.083 310.742 138.969C310.117 138.855 309.492 138.969 308.98 139.31C308.469 139.651 308.128 140.162 308.014 140.787C307.73 142.264 308.696 143.685 310.173 143.969C311.878 144.31 313.526 143.173 313.866 141.469C314.264 139.48 312.957 137.492 310.912 137.094C308.526 136.64 306.196 138.174 305.742 140.617C305.174 143.514 307.049 146.298 309.946 146.866C311.651 147.207 313.355 146.866 314.775 145.9C316.196 144.935 317.162 143.457 317.503 141.81C318.298 137.605 315.628 133.572 311.48 132.663L334.433 123.118C332.956 128.401 327.956 143.685 316.707 155.332C314.719 154.252 312.56 153.286 310.287 152.434ZM300.231 240.781C300.458 241.974 300.913 243.054 301.538 244.076L276.198 233.622C278.357 233.85 280.516 233.907 282.618 233.907C289.663 233.907 296.367 232.827 302.674 231.066C302.447 231.35 302.219 231.634 301.992 231.975C300.288 234.588 299.663 237.713 300.231 240.781ZM275.46 235.497L300.856 245.951C299.663 246.179 298.583 246.69 297.561 247.372C294.493 249.417 292.731 252.655 292.447 256.064C288.243 248.565 282.732 241.52 275.46 235.497ZM212.395 287.937C211.373 287.199 206.941 283.108 211.032 272.257C214.1 274.018 217.395 275.552 220.917 276.745C220.349 279.302 218.19 287.028 212.395 287.937ZM225.008 321.742L214.497 296.46C220.52 303.675 227.565 309.186 235.007 313.39C231.655 313.731 228.474 315.493 226.428 318.504C225.747 319.526 225.235 320.606 225.008 321.742ZM194.101 287.824C195.692 284.472 196.998 281.063 197.907 277.654C208.589 282.426 208.305 288.449 208.134 289.755C203.362 293.221 196.26 289.187 194.101 287.824ZM130.923 289.755C130.752 288.506 130.468 282.483 141.036 277.711C141.945 281.12 143.252 284.529 144.842 287.881C142.683 289.301 135.638 293.221 130.923 289.755ZM112.628 318.561C110.583 315.493 107.345 313.731 103.936 313.447C111.435 309.243 118.48 303.732 124.503 296.46L114.049 321.856C113.765 320.72 113.31 319.583 112.628 318.561ZM118.083 276.745C121.605 275.495 124.9 273.961 127.968 272.2C132.173 283.165 127.684 287.199 126.662 287.994C120.81 287.085 118.594 279.188 118.083 276.745ZM106.152 281.574C106.152 281.006 106.152 280.381 106.095 279.756C109.731 279.131 113.197 278.279 116.435 277.256C118.935 288.562 113.992 291.914 112.856 292.483C108.083 291.062 106.606 284.926 106.152 281.574ZM46.6096 256.007C46.2687 252.655 44.5075 249.474 41.4963 247.428C40.4736 246.747 39.3941 246.292 38.2578 246.008L63.5404 235.497C56.2681 241.463 50.7571 248.508 46.6096 256.007ZM36.2125 231.066C42.5758 232.884 49.2799 233.907 56.3818 233.907C58.4839 233.907 60.6429 233.793 62.8018 233.622L37.4056 244.19C38.0306 243.167 38.5419 242.088 38.7692 240.838C39.4509 237.202 38.3715 233.679 36.2125 231.066ZM38.7123 140.219C38.4851 139.026 38.0306 137.89 37.4056 136.924L62.745 147.378C53.3706 146.525 44.5075 147.605 36.2693 149.934C38.4283 147.264 39.4509 143.798 38.7123 140.219ZM46.5528 124.936C50.7571 132.435 56.2681 139.48 63.5404 145.503L38.0874 135.049C39.2237 134.822 40.36 134.31 41.3826 133.628C43.9961 131.867 45.7574 129.197 46.3255 126.129C46.4392 125.731 46.496 125.333 46.5528 124.936ZM126.548 93.0626C127.628 93.858 132.059 97.8351 127.912 108.744C124.844 106.982 121.548 105.448 118.026 104.255C118.594 101.642 120.753 93.9149 126.548 93.0626ZM144.842 93.1194C143.252 96.4715 141.945 99.8804 141.036 103.289C130.355 98.5169 130.639 92.4945 130.809 91.1877C135.638 87.722 142.74 91.7559 144.842 93.1194ZM208.02 91.2446C208.248 92.5513 208.532 98.5169 197.907 103.289C196.998 99.8804 195.692 96.4715 194.101 93.1194C196.317 91.6991 203.305 87.7789 208.02 91.2446ZM226.372 62.4395C228.417 65.5075 231.655 67.2687 235.064 67.5528C227.565 71.7571 220.52 77.2681 214.441 84.5404L224.894 59.1442C225.178 60.2805 225.633 61.4168 226.372 62.4395ZM220.917 104.255C217.395 105.505 214.1 107.039 211.032 108.8C206.827 97.8351 211.316 93.8012 212.338 93.0058C218.19 93.858 220.349 101.755 220.917 104.255ZM232.792 99.3691C232.792 99.9372 232.792 100.562 232.848 101.187C229.212 101.812 225.747 102.664 222.508 103.687C220.008 92.3809 224.951 89.0288 226.088 88.4606C230.917 89.9378 232.394 96.0738 232.792 99.3691ZM292.39 124.993C292.731 128.345 294.493 131.526 297.504 133.572C298.526 134.253 299.606 134.708 300.742 134.992L275.46 145.503C282.675 139.48 288.186 132.435 292.39 124.993ZM289.891 190.5C284.607 196.75 262.79 220.271 235.178 214.93C235.292 214.589 235.405 214.249 235.519 213.908C235.576 213.794 235.576 213.68 235.632 213.567C235.803 213.112 235.917 212.658 236.087 212.203C236.087 212.146 236.144 212.09 236.144 212.09C236.201 212.203 236.257 212.317 236.371 212.374C236.826 212.942 237.394 213.226 237.394 213.226C237.394 213.226 237.564 213.226 237.735 213.169C237.962 213.112 238.246 212.942 238.587 212.715C239.212 212.26 239.837 211.465 239.95 209.987L236.939 209.59C237.735 206.692 238.36 203.681 238.814 200.67V200.613C238.871 200.102 238.984 199.534 239.041 199.022C239.041 198.965 239.041 198.909 239.041 198.852C239.098 198.34 239.155 197.886 239.212 197.375C239.212 197.261 239.212 197.147 239.269 197.034C239.325 196.579 239.325 196.181 239.382 195.727C239.382 195.557 239.382 195.329 239.439 195.159C239.439 194.761 239.496 194.42 239.496 194.023C239.496 193.738 239.496 193.398 239.553 193.113C239.553 192.829 239.553 192.602 239.609 192.318C239.666 191.182 239.666 189.989 239.609 188.852C239.609 188.568 239.609 188.341 239.553 188.057C239.553 187.773 239.553 187.432 239.496 187.148C239.496 186.75 239.439 186.409 239.439 186.012C239.439 185.841 239.439 185.614 239.382 185.443C239.325 184.989 239.325 184.591 239.269 184.137C239.269 184.023 239.269 183.91 239.212 183.796C239.155 183.285 239.098 182.83 239.041 182.319C239.041 182.262 239.041 182.205 239.041 182.148C238.984 181.637 238.928 181.069 238.814 180.557V180.501C238.36 177.433 237.735 174.478 236.939 171.581L239.95 171.183C239.837 169.706 239.212 168.91 238.587 168.456C238.303 168.229 237.962 168.115 237.735 168.001C237.507 167.945 237.394 167.945 237.394 167.945C237.394 167.945 236.826 168.172 236.371 168.797C236.314 168.91 236.257 168.967 236.144 169.081C236.144 169.024 236.087 168.967 236.087 168.967C235.917 168.513 235.803 168.058 235.632 167.604C235.576 167.49 235.519 167.376 235.519 167.263C235.405 166.922 235.292 166.581 235.178 166.24C262.79 160.672 284.607 184.194 289.891 190.5ZM245.007 220.669C248.359 220.555 251.768 220.101 255.12 219.305C256.654 222.828 258.358 225.271 260.006 226.918L245.007 220.669ZM254.609 275.609C246.427 276.347 214.384 277.54 198.646 254.189C198.987 254.019 199.271 253.905 199.612 253.735C199.725 253.678 199.839 253.621 199.953 253.564C200.35 253.337 200.805 253.167 201.203 252.939C201.259 252.939 201.316 252.883 201.316 252.883C201.259 252.996 201.259 253.11 201.259 253.224C201.146 253.962 201.373 254.53 201.373 254.53C201.373 254.53 201.487 254.644 201.657 254.758C201.884 254.871 202.169 254.985 202.566 255.042C203.305 255.155 204.327 255.042 205.464 254.076L203.646 251.633C206.259 250.156 208.816 248.508 211.259 246.633C211.259 246.633 211.316 246.633 211.316 246.576C211.713 246.235 212.168 245.951 212.566 245.61C212.622 245.554 212.679 245.554 212.736 245.497C213.134 245.213 213.475 244.872 213.872 244.588C213.986 244.531 214.043 244.417 214.156 244.36C214.497 244.076 214.838 243.792 215.179 243.508C215.35 243.395 215.463 243.224 215.634 243.111C215.918 242.883 216.202 242.599 216.429 242.372C216.656 242.145 216.884 241.974 217.111 241.747C217.281 241.577 217.509 241.406 217.679 241.236C218.531 240.44 219.327 239.588 220.122 238.793C220.292 238.622 220.463 238.395 220.633 238.224C220.861 237.997 221.031 237.77 221.258 237.543C221.486 237.259 221.77 236.975 221.997 236.747C222.111 236.577 222.281 236.463 222.395 236.293C222.679 235.952 222.963 235.611 223.247 235.27C223.304 235.156 223.417 235.1 223.474 234.986C223.758 234.588 224.099 234.247 224.383 233.85C224.44 233.793 224.44 233.736 224.497 233.679C224.838 233.282 225.122 232.827 225.463 232.429C225.463 232.429 225.463 232.373 225.519 232.373C227.337 229.929 229.042 227.373 230.519 224.759L232.962 226.577C233.928 225.441 234.042 224.418 233.928 223.68C233.871 223.282 233.758 222.998 233.644 222.771C233.53 222.544 233.417 222.487 233.417 222.487C233.417 222.487 232.849 222.259 232.11 222.373C231.996 222.373 231.883 222.43 231.769 222.43C231.769 222.373 231.826 222.316 231.826 222.316C232.053 221.919 232.224 221.464 232.451 221.066C232.508 220.953 232.564 220.839 232.621 220.725C232.792 220.385 232.905 220.101 233.076 219.76C256.54 235.384 255.347 267.484 254.609 275.609ZM201.544 265.268C203.987 267.598 206.714 269.643 209.668 271.461C208.305 275.04 207.736 277.938 207.736 280.324L201.544 265.268ZM169.5 310.891C163.25 305.664 139.672 283.847 145.07 256.178C145.411 256.292 145.751 256.405 146.092 256.576C146.206 256.632 146.32 256.632 146.433 256.689C146.888 256.86 147.342 256.973 147.797 257.144C147.854 257.144 147.854 257.144 147.91 257.201C147.797 257.257 147.683 257.314 147.626 257.428C147.058 257.882 146.774 258.451 146.774 258.451C146.774 258.451 146.774 258.621 146.831 258.791C146.888 259.019 147.058 259.303 147.285 259.644C147.74 260.269 148.535 260.894 150.013 261.007L150.41 257.996C153.308 258.791 156.319 259.416 159.33 259.871C159.841 259.928 160.41 260.041 160.921 260.098C160.978 260.098 161.035 260.098 161.091 260.098C161.603 260.155 162.114 260.212 162.569 260.269C162.682 260.269 162.796 260.269 162.853 260.269C163.307 260.325 163.762 260.325 164.216 260.382C164.387 260.382 164.557 260.382 164.728 260.439C165.125 260.439 165.523 260.496 165.921 260.496C166.205 260.496 166.489 260.496 166.716 260.553C167 260.553 167.284 260.553 167.625 260.609C168.136 260.609 168.705 260.609 169.216 260.609C169.273 260.609 169.273 260.609 169.33 260.609C169.386 260.609 169.386 260.609 169.443 260.609C169.955 260.609 170.523 260.609 171.034 260.609C171.318 260.609 171.602 260.609 171.943 260.553C172.227 260.553 172.511 260.553 172.738 260.496C173.136 260.496 173.534 260.439 173.932 260.439C174.102 260.439 174.272 260.439 174.443 260.382C174.897 260.325 175.352 260.325 175.806 260.269C175.92 260.269 176.034 260.269 176.091 260.269C176.602 260.212 177.113 260.155 177.568 260.098C177.625 260.098 177.681 260.098 177.738 260.098C178.249 260.041 178.818 259.984 179.329 259.871C179.329 259.871 179.329 259.871 179.386 259.871C182.454 259.416 185.408 258.791 188.306 257.996L188.703 261.007C190.181 260.894 190.976 260.269 191.431 259.644C191.658 259.36 191.771 259.019 191.885 258.791C191.942 258.564 191.942 258.451 191.942 258.451C191.942 258.451 191.715 257.882 191.09 257.428C190.976 257.371 190.919 257.314 190.806 257.201C190.862 257.201 190.862 257.201 190.919 257.144C191.374 256.973 191.828 256.86 192.283 256.689C192.396 256.632 192.51 256.632 192.624 256.576C192.965 256.462 193.305 256.348 193.646 256.178C199.271 283.79 175.75 305.664 169.5 310.891ZM131.264 280.097C131.207 277.768 130.639 274.87 129.332 271.404C132.286 269.586 135.013 267.541 137.456 265.211L131.264 280.097ZM84.3346 275.609C83.596 267.484 82.4029 235.384 105.754 219.646C105.924 219.987 106.038 220.271 106.208 220.612C106.265 220.725 106.322 220.839 106.379 220.953C106.606 221.407 106.776 221.805 107.004 222.259C107.004 222.316 107.061 222.316 107.061 222.373C106.947 222.316 106.833 222.316 106.72 222.316C105.981 222.203 105.413 222.43 105.413 222.43C105.413 222.43 105.299 222.544 105.186 222.714C105.072 222.941 104.958 223.225 104.902 223.623C104.788 224.362 104.902 225.384 105.867 226.521L108.31 224.703C109.788 227.316 111.435 229.873 113.31 232.373C113.31 232.373 113.31 232.373 113.31 232.429C113.651 232.884 113.935 233.282 114.276 233.679C114.333 233.736 114.333 233.793 114.39 233.793C114.674 234.191 115.015 234.588 115.299 234.929C115.355 235.043 115.469 235.1 115.526 235.156C115.81 235.497 116.094 235.838 116.378 236.179C116.492 236.293 116.605 236.463 116.719 236.577C116.946 236.861 117.23 237.145 117.458 237.429C117.628 237.656 117.855 237.827 118.026 238.054C118.196 238.281 118.424 238.452 118.594 238.679C118.992 239.077 119.389 239.531 119.787 239.929C120.185 240.327 120.582 240.724 121.037 241.122C121.264 241.292 121.435 241.52 121.662 241.69C121.889 241.861 122.06 242.088 122.287 242.258C122.571 242.486 122.855 242.77 123.139 242.997C123.253 243.111 123.423 243.224 123.537 243.338C123.878 243.622 124.219 243.906 124.56 244.19C124.673 244.247 124.73 244.36 124.844 244.417C125.241 244.758 125.582 245.042 125.98 245.326C126.037 245.383 126.094 245.383 126.094 245.44C126.491 245.781 126.946 246.065 127.343 246.406C127.343 246.406 127.4 246.406 127.4 246.463C129.843 248.281 132.4 249.985 135.07 251.462L133.252 253.905C134.388 254.871 135.411 254.985 136.15 254.871C136.547 254.814 136.832 254.701 137.059 254.587C137.286 254.473 137.343 254.36 137.343 254.36C137.343 254.36 137.57 253.792 137.456 253.053C137.456 252.939 137.4 252.826 137.4 252.712C137.456 252.712 137.513 252.769 137.513 252.769C137.911 252.996 138.366 253.167 138.763 253.394C138.877 253.451 138.99 253.508 139.104 253.564C139.445 253.735 139.729 253.849 140.07 254.019C124.56 277.54 92.516 276.347 84.3346 275.609ZM79.1077 226.805C80.6985 225.1 82.3461 222.714 83.8801 219.305C87.2322 220.101 90.6411 220.555 93.9931 220.669L79.1077 226.805ZM49.0526 190.5C54.2796 184.25 76.0965 160.672 103.765 166.07C103.652 166.411 103.538 166.751 103.424 167.092C103.368 167.206 103.311 167.32 103.311 167.49C103.14 167.945 103.027 168.399 102.856 168.854C102.856 168.91 102.799 168.967 102.799 169.024C102.743 168.91 102.686 168.797 102.572 168.74C102.118 168.172 101.55 167.888 101.55 167.888C101.55 167.888 101.379 167.888 101.209 167.945C100.981 168.001 100.697 168.172 100.356 168.399C99.7314 168.854 99.1065 169.649 98.9928 171.126L102.004 171.524C101.209 174.421 100.584 177.376 100.129 180.444V180.501C100.072 181.012 99.9587 181.523 99.9019 182.091C99.9019 182.148 99.9019 182.205 99.9019 182.262C99.8451 182.773 99.7883 183.228 99.7314 183.739C99.7314 183.853 99.7314 183.966 99.6746 184.08C99.6178 184.534 99.6178 184.932 99.561 185.387C99.561 185.557 99.561 185.784 99.5042 185.955C99.5042 186.296 99.4474 186.693 99.4474 187.034C99.4474 187.318 99.4474 187.659 99.3905 187.943C99.3905 188.227 99.3905 188.455 99.3905 188.739C99.3337 189.875 99.3337 191.068 99.3905 192.204C99.3905 192.489 99.3905 192.716 99.3905 193C99.3905 193.284 99.3905 193.625 99.4474 193.909C99.4474 194.25 99.5042 194.647 99.5042 194.988C99.5042 195.159 99.5042 195.386 99.561 195.557C99.6178 196.011 99.6178 196.409 99.6746 196.863C99.6746 196.977 99.6746 197.091 99.7314 197.204C99.7883 197.715 99.8451 198.17 99.9019 198.681C99.9019 198.738 99.9019 198.795 99.9019 198.852C99.9587 199.363 100.016 199.931 100.129 200.443V200.499C100.584 203.567 101.209 206.522 102.004 209.419L98.9928 209.817C99.1065 211.294 99.7314 212.09 100.356 212.544C100.64 212.771 100.981 212.885 101.209 212.999C101.436 213.055 101.55 213.055 101.55 213.055C101.55 213.055 102.118 212.828 102.572 212.203C102.629 212.09 102.686 212.033 102.799 211.919C102.799 211.976 102.856 212.033 102.856 212.033C103.027 212.487 103.14 212.942 103.311 213.396C103.368 213.51 103.424 213.624 103.424 213.737C103.538 214.078 103.652 214.419 103.765 214.76C76.2101 220.271 54.3364 196.75 49.0526 190.5ZM93.9363 160.275C90.5843 160.388 87.1754 160.843 83.8233 161.638C82.2893 158.116 80.5849 155.673 78.9372 154.025L93.9363 160.275ZM84.3346 105.335C92.516 104.596 124.56 103.403 140.297 126.754C139.956 126.924 139.672 127.038 139.331 127.208C139.218 127.265 139.104 127.322 138.99 127.379C138.593 127.606 138.138 127.776 137.741 128.004C137.684 128.004 137.627 128.061 137.627 128.061C137.684 127.947 137.684 127.833 137.684 127.72C137.797 126.981 137.57 126.413 137.57 126.413C137.57 126.413 137.456 126.299 137.286 126.186C137.059 126.072 136.775 125.958 136.377 125.902C135.638 125.788 134.616 125.902 133.479 126.867L135.298 129.31C132.684 130.788 130.127 132.435 127.628 134.31C127.628 134.31 127.571 134.31 127.571 134.367C127.173 134.708 126.718 134.992 126.321 135.333C126.264 135.39 126.207 135.39 126.207 135.446C125.809 135.731 125.412 136.071 125.071 136.356C124.957 136.412 124.9 136.526 124.787 136.583C124.446 136.867 124.105 137.151 123.764 137.435C123.594 137.549 123.48 137.662 123.366 137.833C123.082 138.06 122.798 138.344 122.514 138.571C122.287 138.742 122.06 138.969 121.889 139.139C121.662 139.31 121.492 139.537 121.264 139.708C120.412 140.503 119.617 141.298 118.821 142.151C118.651 142.378 118.424 142.548 118.253 142.776C118.083 143.003 117.855 143.173 117.685 143.401C117.401 143.685 117.174 143.969 116.946 144.253C116.833 144.366 116.719 144.537 116.605 144.65C116.321 144.991 116.037 145.332 115.753 145.673C115.696 145.73 115.64 145.844 115.526 145.9C115.185 146.298 114.901 146.696 114.56 147.094C114.503 147.15 114.503 147.15 114.446 147.207C114.106 147.605 113.765 148.059 113.481 148.514C111.663 150.957 109.958 153.514 108.481 156.184L106.038 154.366C105.072 155.502 104.958 156.525 105.072 157.263C105.129 157.661 105.242 157.945 105.356 158.172C105.47 158.4 105.583 158.456 105.583 158.456C105.583 158.456 106.152 158.684 106.89 158.57C107.004 158.57 107.117 158.513 107.231 158.513C107.231 158.57 107.174 158.57 107.174 158.627C106.947 159.081 106.72 159.479 106.549 159.934C106.492 160.047 106.436 160.161 106.379 160.275C106.208 160.615 106.095 160.899 105.924 161.24C82.4597 145.559 83.6528 113.516 84.3346 105.335ZM137.456 115.732C135.013 113.402 132.286 111.357 129.332 109.539C130.696 105.96 131.264 103.062 131.264 100.676L137.456 115.732ZM169.5 70.0526C175.75 75.2796 199.328 97.0965 193.93 124.765C193.589 124.652 193.249 124.538 192.908 124.368C192.794 124.311 192.68 124.311 192.567 124.254C192.112 124.084 191.658 123.97 191.203 123.799C191.146 123.799 191.146 123.799 191.09 123.743C191.203 123.686 191.317 123.629 191.374 123.515C191.942 123.061 192.226 122.493 192.226 122.493C192.226 122.493 192.226 122.322 192.169 122.152C192.112 121.925 191.942 121.64 191.715 121.3C191.26 120.675 190.465 120.05 188.987 119.936L188.59 122.947C185.692 122.152 182.681 121.527 179.67 121.072C179.159 121.016 178.59 120.902 178.079 120.845C178.022 120.845 177.965 120.845 177.909 120.845C177.397 120.788 176.886 120.731 176.431 120.675C176.318 120.675 176.261 120.675 176.147 120.675C175.693 120.618 175.238 120.618 174.784 120.561C174.613 120.561 174.443 120.561 174.272 120.504C173.875 120.504 173.477 120.447 173.079 120.447C172.795 120.447 172.568 120.447 172.284 120.391C172 120.391 171.659 120.391 171.375 120.334C170.864 120.334 170.352 120.334 169.841 120.334C169.784 120.334 169.727 120.334 169.67 120.334C169.614 120.334 169.557 120.334 169.5 120.334C168.989 120.334 168.477 120.334 167.966 120.334C167.682 120.334 167.341 120.334 167.057 120.391C166.773 120.391 166.546 120.391 166.262 120.447C165.864 120.447 165.466 120.504 165.068 120.504C164.898 120.504 164.728 120.504 164.557 120.561C164.103 120.618 163.648 120.618 163.194 120.675C163.08 120.675 163.023 120.675 162.91 120.675C162.398 120.731 161.887 120.788 161.375 120.845C161.319 120.845 161.262 120.845 161.205 120.845C160.637 120.902 160.126 120.959 159.614 121.072C156.546 121.527 153.592 122.152 150.694 122.947L150.297 119.936C148.819 120.05 148.024 120.675 147.57 121.3C147.342 121.584 147.229 121.925 147.115 122.152C147.058 122.379 147.058 122.493 147.058 122.493C147.058 122.493 147.285 123.061 147.91 123.515C148.024 123.572 148.081 123.629 148.194 123.743C148.138 123.743 148.138 123.743 148.081 123.799C147.626 123.97 147.172 124.084 146.717 124.254C146.604 124.311 146.49 124.311 146.376 124.368C146.036 124.481 145.695 124.595 145.354 124.765C139.672 97.2101 163.194 75.3364 169.5 70.0526ZM207.736 100.846C207.793 103.176 208.361 106.073 209.668 109.539C206.714 111.357 203.987 113.402 201.544 115.732L207.736 100.846ZM254.609 105.335C255.347 113.516 256.483 145.56 233.189 161.297C233.019 160.956 232.905 160.672 232.735 160.331C232.678 160.218 232.621 160.104 232.564 159.99C232.337 159.536 232.167 159.138 231.939 158.741C231.939 158.684 231.883 158.627 231.883 158.627C231.996 158.684 232.11 158.684 232.224 158.684C232.962 158.797 233.53 158.57 233.53 158.57C233.53 158.57 233.644 158.456 233.758 158.286C233.871 158.059 233.985 157.775 234.042 157.377C234.155 156.638 234.042 155.616 233.076 154.479L230.633 156.298C229.156 153.684 227.508 151.127 225.633 148.628C225.633 148.628 225.633 148.628 225.576 148.571C225.235 148.116 224.951 147.718 224.61 147.321C224.554 147.264 224.554 147.207 224.497 147.207C224.213 146.809 223.872 146.412 223.588 146.071C223.531 145.957 223.417 145.9 223.36 145.787C223.076 145.446 222.792 145.105 222.508 144.764C222.395 144.594 222.224 144.48 222.111 144.31C221.883 144.026 221.656 143.741 221.372 143.514C221.145 143.287 220.974 143.06 220.747 142.832C220.577 142.662 220.406 142.435 220.236 142.264C219.44 141.412 218.588 140.617 217.793 139.821C217.622 139.651 217.395 139.48 217.224 139.31C216.997 139.083 216.77 138.912 216.543 138.685C216.259 138.458 215.975 138.174 215.747 137.946C215.577 137.833 215.463 137.662 215.293 137.549C214.952 137.265 214.611 136.98 214.27 136.696C214.156 136.64 214.1 136.526 213.986 136.469C213.588 136.185 213.247 135.844 212.85 135.56C212.793 135.503 212.736 135.503 212.679 135.446C212.282 135.106 211.827 134.822 211.429 134.481C211.429 134.481 211.373 134.481 211.373 134.424C208.929 132.606 206.373 130.901 203.759 129.424L205.577 126.981C204.441 126.015 203.418 125.902 202.68 126.015C202.282 126.072 201.998 126.186 201.771 126.299C201.544 126.413 201.487 126.527 201.487 126.527C201.487 126.527 201.259 127.095 201.373 127.833C201.373 127.947 201.43 128.061 201.43 128.174C201.373 128.174 201.316 128.117 201.316 128.117C200.919 127.89 200.464 127.72 200.066 127.492C199.953 127.436 199.839 127.379 199.725 127.322C199.385 127.152 199.101 127.038 198.76 126.867C214.384 103.46 246.484 104.653 254.609 105.335ZM234.667 169.251C234.667 169.308 234.723 169.365 234.723 169.479C234.894 169.99 235.007 170.444 235.178 170.956V171.013C236.087 174.194 236.826 177.376 237.28 180.614V180.671C237.337 181.182 237.451 181.694 237.507 182.205C237.507 182.262 237.507 182.319 237.507 182.375C237.564 182.83 237.621 183.341 237.678 183.796C237.678 183.91 237.678 184.023 237.735 184.137C237.791 184.591 237.791 184.989 237.848 185.443C237.848 185.614 237.848 185.784 237.905 186.012C237.905 186.353 237.962 186.75 237.962 187.091C237.962 187.375 237.962 187.659 238.019 187.943C238.019 188.227 238.019 188.512 238.075 188.739C238.075 189.307 238.075 189.875 238.075 190.443C238.075 191.011 238.075 191.579 238.075 192.148C238.075 192.432 238.075 192.716 238.019 192.943C238.019 193.227 238.019 193.511 237.962 193.795C237.962 194.136 237.905 194.534 237.905 194.875C237.905 195.045 237.905 195.216 237.848 195.443C237.791 195.897 237.791 196.295 237.735 196.75C237.735 196.863 237.735 196.977 237.678 197.091C237.621 197.545 237.564 198.056 237.507 198.511C237.507 198.568 237.507 198.625 237.507 198.681C237.451 199.193 237.394 199.704 237.28 200.215V200.272C236.826 203.511 236.087 206.749 235.178 209.931V209.987C235.007 210.499 234.894 210.953 234.723 211.465C234.723 211.521 234.667 211.578 234.667 211.692C234.496 212.146 234.383 212.544 234.212 212.999C234.155 213.112 234.155 213.226 234.098 213.34C233.985 213.737 233.814 214.078 233.701 214.476C233.644 214.646 233.587 214.817 233.473 215.044C233.36 215.328 233.246 215.669 233.133 215.953C233.019 216.18 232.905 216.464 232.848 216.692C232.735 216.919 232.621 217.203 232.564 217.43C232.451 217.714 232.28 218.055 232.167 218.339C232.11 218.51 231.996 218.68 231.939 218.851C231.769 219.248 231.599 219.589 231.428 219.987C231.371 220.101 231.315 220.214 231.258 220.328C231.03 220.725 230.86 221.18 230.633 221.578C230.576 221.635 230.576 221.691 230.519 221.748C230.292 222.203 230.065 222.657 229.781 223.112V223.169C228.19 226.066 226.428 228.85 224.44 231.463C224.099 231.861 223.815 232.316 223.474 232.713C223.417 232.77 223.417 232.77 223.36 232.827C223.076 233.225 222.735 233.566 222.451 233.963C222.395 234.02 222.338 234.134 222.281 234.191C221.997 234.531 221.713 234.872 221.429 235.213C221.315 235.327 221.201 235.441 221.088 235.611C220.861 235.895 220.577 236.179 220.349 236.463C220.179 236.69 220.008 236.861 219.781 237.031C219.611 237.259 219.383 237.429 219.213 237.656C218.815 238.054 218.474 238.452 218.077 238.793C218.02 238.849 218.02 238.849 217.963 238.906C217.565 239.304 217.224 239.645 216.827 240.043C216.599 240.213 216.429 240.44 216.202 240.611C216.031 240.781 215.804 241.008 215.634 241.179C215.35 241.406 215.065 241.69 214.781 241.917C214.668 242.031 214.554 242.145 214.384 242.258C214.043 242.542 213.702 242.826 213.361 243.111C213.304 243.167 213.191 243.224 213.134 243.281C212.736 243.565 212.395 243.906 211.997 244.19C211.941 244.247 211.941 244.247 211.884 244.304C211.486 244.645 211.032 244.929 210.634 245.269C208.02 247.258 205.237 249.019 202.339 250.61C202.339 250.61 202.339 250.61 202.282 250.61C201.828 250.837 201.373 251.121 200.919 251.349C200.862 251.405 200.805 251.405 200.748 251.462C200.35 251.69 199.896 251.86 199.498 252.087C199.385 252.144 199.271 252.201 199.157 252.258C198.816 252.428 198.419 252.599 198.021 252.769C197.851 252.826 197.68 252.939 197.51 252.996C197.226 253.11 196.885 253.28 196.601 253.394C196.373 253.508 196.146 253.621 195.862 253.678C195.635 253.792 195.351 253.905 195.123 253.962C194.839 254.076 194.499 254.189 194.214 254.303C194.044 254.36 193.874 254.417 193.646 254.53C193.249 254.644 192.908 254.814 192.51 254.928C192.396 254.985 192.283 255.042 192.169 255.042C191.715 255.212 191.317 255.326 190.862 255.496C190.806 255.496 190.749 255.553 190.635 255.553C190.124 255.723 189.669 255.837 189.158 256.007H189.101C185.919 256.917 182.738 257.655 179.443 258.11H179.386C178.874 258.166 178.363 258.28 177.852 258.337C177.795 258.337 177.738 258.337 177.681 258.337C177.227 258.394 176.715 258.451 176.261 258.507C176.147 258.507 176.034 258.507 175.92 258.564C175.466 258.621 175.068 258.621 174.613 258.678C174.443 258.678 174.272 258.678 174.045 258.735C173.704 258.735 173.307 258.791 172.966 258.791C172.682 258.791 172.398 258.791 172.113 258.848C171.829 258.848 171.545 258.848 171.318 258.905C170.75 258.905 170.182 258.905 169.614 258.905C169.045 258.905 168.477 258.905 167.909 258.905C167.625 258.905 167.341 258.905 167.114 258.848C166.83 258.848 166.546 258.848 166.262 258.791C165.921 258.791 165.523 258.735 165.182 258.735C165.012 258.735 164.841 258.735 164.614 258.678C164.159 258.621 163.762 258.621 163.307 258.564C163.194 258.564 163.08 258.564 162.966 258.507C162.512 258.451 162 258.394 161.546 258.337C161.489 258.337 161.432 258.337 161.375 258.337C160.864 258.28 160.353 258.223 159.841 258.11H159.785C156.546 257.655 153.308 256.917 150.183 256.007H150.126C149.615 255.837 149.16 255.723 148.649 255.553C148.592 255.553 148.535 255.496 148.422 255.496C147.967 255.383 147.569 255.212 147.115 255.042C147.001 254.985 146.888 254.928 146.774 254.928C146.376 254.814 146.035 254.644 145.638 254.53C145.467 254.473 145.297 254.417 145.07 254.303C144.786 254.189 144.445 254.076 144.161 253.962C143.933 253.849 143.649 253.735 143.422 253.678C143.195 253.564 142.967 253.451 142.683 253.394C142.343 253.28 142.058 253.11 141.774 252.996C141.604 252.939 141.434 252.826 141.263 252.769C140.865 252.599 140.524 252.428 140.127 252.258C140.013 252.201 139.9 252.144 139.786 252.087C139.388 251.86 138.934 251.69 138.536 251.462C138.479 251.405 138.422 251.405 138.366 251.349C137.911 251.121 137.456 250.894 137.002 250.61C137.002 250.61 137.002 250.61 136.945 250.61C134.048 249.019 131.264 247.258 128.65 245.269C128.252 244.929 127.798 244.645 127.4 244.304C127.343 244.247 127.343 244.247 127.287 244.19C126.889 243.906 126.548 243.565 126.15 243.281C126.094 243.224 125.98 243.167 125.923 243.111C125.582 242.826 125.241 242.542 124.9 242.258C124.787 242.145 124.673 242.031 124.503 241.917C124.219 241.69 123.935 241.406 123.65 241.179C123.423 241.008 123.253 240.838 123.082 240.611C122.855 240.44 122.685 240.213 122.457 240.043C122.06 239.645 121.662 239.304 121.321 238.906C121.264 238.849 121.264 238.849 121.207 238.793C120.81 238.395 120.469 237.997 120.071 237.656C119.901 237.429 119.673 237.259 119.503 237.031C119.333 236.804 119.105 236.634 118.935 236.406C118.708 236.122 118.424 235.838 118.196 235.554C118.083 235.441 117.969 235.27 117.855 235.156C117.571 234.816 117.287 234.475 117.003 234.134C116.946 234.077 116.89 233.963 116.776 233.907C116.492 233.509 116.151 233.168 115.867 232.77C115.81 232.713 115.81 232.713 115.753 232.657C115.412 232.259 115.128 231.804 114.787 231.407C114.787 231.407 114.787 231.407 114.787 231.35C112.799 228.736 111.038 225.952 109.447 223.055V222.998C109.22 222.544 108.935 222.089 108.708 221.635C108.651 221.578 108.651 221.521 108.595 221.464C108.367 221.066 108.197 220.612 107.97 220.214C107.913 220.101 107.856 219.987 107.799 219.873C107.629 219.532 107.458 219.135 107.288 218.794C107.231 218.623 107.117 218.453 107.061 218.282C106.947 217.998 106.776 217.657 106.663 217.373C106.549 217.146 106.436 216.862 106.379 216.635C106.265 216.408 106.152 216.123 106.095 215.896C105.981 215.612 105.867 215.271 105.754 214.93C105.697 214.76 105.64 214.589 105.527 214.362C105.413 213.965 105.242 213.624 105.129 213.226C105.072 213.112 105.072 212.999 105.015 212.885C104.845 212.431 104.731 212.033 104.561 211.578C104.561 211.521 104.504 211.465 104.504 211.408C104.333 210.897 104.22 210.442 104.049 209.931V209.874C103.14 206.692 102.402 203.511 101.947 200.215C101.947 200.215 101.947 200.215 101.947 200.159C101.89 199.647 101.777 199.136 101.72 198.625C101.72 198.568 101.72 198.511 101.72 198.454C101.663 198 101.606 197.488 101.55 197.034C101.55 196.92 101.55 196.806 101.493 196.693C101.436 196.238 101.436 195.841 101.379 195.386C101.379 195.216 101.379 195.045 101.322 194.875C101.322 194.477 101.265 194.136 101.265 193.738C101.265 193.454 101.265 193.17 101.209 192.886C101.209 192.602 101.209 192.318 101.152 192.034C101.152 191.466 101.152 190.898 101.152 190.33C101.152 189.761 101.152 189.193 101.152 188.625C101.152 188.341 101.152 188.057 101.209 187.773C101.209 187.489 101.209 187.205 101.265 186.921C101.265 186.523 101.322 186.182 101.322 185.784C101.322 185.614 101.322 185.443 101.379 185.273C101.436 184.819 101.436 184.421 101.493 183.966C101.493 183.853 101.493 183.739 101.55 183.625C101.606 183.171 101.663 182.66 101.72 182.205C101.72 182.148 101.72 182.091 101.72 182.035C101.777 181.523 101.834 181.012 101.947 180.501V180.444C102.402 177.205 103.14 173.967 104.049 170.785V170.728C104.22 170.217 104.333 169.763 104.504 169.251C104.504 169.194 104.561 169.138 104.561 169.024C104.731 168.57 104.845 168.172 105.015 167.717C105.072 167.604 105.072 167.49 105.129 167.376C105.242 166.979 105.413 166.638 105.527 166.24C105.583 166.07 105.64 165.899 105.754 165.672C105.867 165.388 105.981 165.047 106.095 164.763C106.208 164.536 106.322 164.252 106.379 164.024C106.492 163.797 106.606 163.513 106.663 163.286C106.776 163.002 106.947 162.661 107.061 162.377C107.117 162.206 107.231 162.036 107.288 161.865C107.458 161.468 107.629 161.127 107.799 160.729C107.856 160.615 107.913 160.502 107.97 160.388C108.197 159.99 108.367 159.536 108.595 159.138C108.595 159.081 108.651 159.025 108.708 158.968C108.935 158.513 109.163 158.059 109.447 157.604V157.547C111.038 154.65 112.799 151.866 114.787 149.252C115.128 148.855 115.412 148.4 115.753 148.003C115.81 147.946 115.81 147.946 115.867 147.889C116.151 147.491 116.492 147.094 116.776 146.753C116.833 146.696 116.89 146.582 116.946 146.525C117.23 146.184 117.514 145.844 117.799 145.503C117.912 145.389 118.026 145.275 118.139 145.105C118.367 144.821 118.651 144.537 118.878 144.253C119.048 144.025 119.219 143.855 119.446 143.685C119.617 143.457 119.844 143.287 120.014 143.06C120.412 142.662 120.753 142.264 121.151 141.923C121.207 141.867 121.207 141.867 121.264 141.81C121.662 141.412 122.003 141.071 122.401 140.673C122.628 140.503 122.798 140.276 123.026 140.105C123.196 139.935 123.423 139.708 123.594 139.537C123.878 139.31 124.162 139.026 124.446 138.799C124.56 138.685 124.673 138.571 124.844 138.458C125.184 138.174 125.525 137.89 125.866 137.605C125.923 137.549 126.037 137.492 126.094 137.435C126.491 137.151 126.832 136.81 127.23 136.526C127.287 136.469 127.287 136.469 127.343 136.412C127.741 136.071 128.196 135.787 128.593 135.446C131.207 133.458 133.991 131.697 136.888 130.106H136.945C137.4 129.879 137.854 129.595 138.309 129.367C138.365 129.31 138.422 129.31 138.479 129.254C138.877 129.026 139.331 128.856 139.729 128.629C139.843 128.572 139.956 128.515 140.07 128.458C140.411 128.288 140.809 128.117 141.206 127.947C141.377 127.89 141.547 127.776 141.718 127.72C142.002 127.606 142.343 127.436 142.627 127.322C142.854 127.208 143.081 127.095 143.365 127.038C143.592 126.924 143.877 126.811 144.104 126.754C144.388 126.64 144.729 126.527 145.013 126.413C145.183 126.356 145.354 126.299 145.581 126.186C145.979 126.072 146.32 125.902 146.717 125.788C146.831 125.731 146.945 125.731 147.058 125.674C147.513 125.504 147.91 125.39 148.365 125.22C148.422 125.22 148.479 125.163 148.535 125.163C149.047 124.993 149.501 124.879 150.013 124.708H150.069C153.251 123.799 156.433 123.061 159.728 122.606H159.785C160.296 122.55 160.807 122.436 161.319 122.379C161.375 122.379 161.432 122.379 161.489 122.379C161.944 122.322 162.455 122.265 162.91 122.209C163.023 122.209 163.137 122.209 163.25 122.152C163.705 122.095 164.103 122.095 164.557 122.038C164.728 122.038 164.898 122.038 165.068 121.981C165.409 121.981 165.807 121.925 166.148 121.925C166.432 121.925 166.716 121.925 167 121.868C167.284 121.868 167.568 121.868 167.796 121.811C168.364 121.811 168.932 121.811 169.5 121.811C170.068 121.811 170.636 121.811 171.204 121.811C171.489 121.811 171.773 121.811 172 121.868C172.284 121.868 172.568 121.868 172.852 121.925C173.193 121.925 173.591 121.981 173.932 121.981C174.102 121.981 174.272 121.981 174.443 122.038C174.897 122.095 175.295 122.095 175.75 122.152C175.863 122.152 175.977 122.152 176.091 122.209C176.545 122.265 177.056 122.322 177.511 122.379C177.568 122.379 177.625 122.379 177.681 122.379C178.193 122.436 178.704 122.493 179.215 122.606H179.272C182.511 123.061 185.749 123.799 188.931 124.708H188.987C189.499 124.879 189.953 124.993 190.465 125.163C190.521 125.163 190.578 125.22 190.635 125.22C191.09 125.39 191.487 125.504 191.942 125.674C192.055 125.731 192.169 125.731 192.283 125.788C192.68 125.902 193.021 126.072 193.419 126.186C193.589 126.242 193.76 126.299 193.987 126.413C194.271 126.527 194.612 126.64 194.896 126.754C195.123 126.867 195.408 126.981 195.635 127.038C195.862 127.152 196.089 127.265 196.373 127.322C196.657 127.436 196.998 127.606 197.282 127.72C197.453 127.776 197.623 127.89 197.794 127.947C198.191 128.117 198.532 128.288 198.93 128.458C199.044 128.515 199.157 128.572 199.271 128.629C199.669 128.856 200.123 129.026 200.521 129.254C200.578 129.31 200.635 129.31 200.691 129.367C201.146 129.595 201.6 129.822 202.055 130.106H202.112C205.009 131.697 207.793 133.458 210.407 135.446C210.804 135.787 211.259 136.071 211.657 136.412C211.713 136.469 211.713 136.469 211.77 136.526C212.168 136.81 212.509 137.151 212.907 137.435C212.963 137.492 213.077 137.549 213.134 137.605C213.475 137.89 213.816 138.174 214.156 138.458C214.27 138.571 214.384 138.685 214.554 138.799C214.838 139.026 215.122 139.31 215.406 139.537C215.634 139.708 215.804 139.878 215.975 140.105C216.202 140.276 216.372 140.503 216.599 140.673C216.997 141.071 217.395 141.412 217.736 141.81C217.793 141.867 217.793 141.867 217.849 141.923C218.247 142.321 218.588 142.662 218.986 143.06C219.156 143.287 219.383 143.457 219.554 143.685C219.724 143.855 219.895 144.082 220.122 144.253C220.406 144.537 220.633 144.821 220.861 145.105C220.974 145.219 221.088 145.332 221.201 145.503C221.486 145.844 221.77 146.184 222.054 146.525C222.111 146.582 222.167 146.696 222.224 146.753C222.508 147.15 222.849 147.491 223.133 147.889C223.19 147.946 223.19 147.946 223.247 148.003C223.588 148.4 223.872 148.855 224.213 149.252C226.201 151.866 227.962 154.65 229.553 157.547C229.553 157.547 229.553 157.547 229.553 157.604C229.781 158.059 230.065 158.513 230.292 158.968C230.292 159.025 230.349 159.081 230.349 159.138C230.576 159.536 230.746 159.99 230.974 160.388C231.03 160.502 231.087 160.615 231.144 160.729C231.314 161.127 231.485 161.468 231.655 161.865C231.712 162.036 231.826 162.206 231.883 162.377C231.996 162.661 232.167 163.002 232.28 163.343C232.394 163.57 232.508 163.797 232.564 164.081C232.678 164.308 232.792 164.592 232.848 164.82C232.962 165.104 233.076 165.445 233.189 165.729C233.246 165.899 233.303 166.07 233.417 166.297C233.53 166.695 233.701 167.036 233.814 167.433C233.871 167.547 233.928 167.66 233.928 167.774C234.383 168.399 234.553 168.854 234.667 169.251ZM245.064 160.275L259.892 154.139C258.302 155.843 256.654 158.229 255.12 161.638C251.768 160.843 248.416 160.388 245.064 160.275ZM244.268 158.456C246.598 156.013 248.643 153.286 250.461 150.332C254.04 151.696 256.938 152.264 259.324 152.264L244.268 158.456ZM266.937 147.548C266.142 148.628 262.108 153.059 251.257 148.912C253.018 145.844 254.552 142.548 255.745 139.026C258.302 139.594 266.028 141.81 266.937 147.548ZM256.256 137.435C257.336 134.14 258.188 130.674 258.756 127.038C259.324 127.038 259.892 127.095 260.46 127.095C260.517 127.095 260.517 127.095 260.517 127.095C263.869 127.549 269.949 129.026 271.369 133.799C270.858 134.992 267.506 139.878 256.256 137.435ZM259.04 125.39C259.608 121.527 259.836 117.891 259.949 114.766C261.995 114.482 270.801 113.686 273.698 119.197C273.301 120.334 271.085 125.447 260.745 125.561C260.063 125.447 259.495 125.447 259.04 125.39ZM260.006 113.061C260.063 106.982 259.495 102.948 259.438 102.664L259.381 102.21C261.938 101.585 269.778 100.108 273.13 104.823C272.903 106.13 271.312 111.812 260.006 113.061ZM257.677 100.619L257.279 100.562C256.995 100.505 252.961 99.9372 246.825 99.994C248.075 88.5743 253.813 87.0403 255.063 86.813C259.836 90.2219 258.302 98.0623 257.677 100.619ZM245.121 100.051C241.939 100.108 238.36 100.392 234.496 100.96C234.496 100.562 234.439 99.9372 234.326 99.1986C234.383 88.8015 239.496 86.6426 240.689 86.2449C246.257 89.1424 245.405 98.1192 245.121 100.051ZM212.622 83.745C213.475 74.3706 212.395 65.5075 210.066 57.2693C212.111 58.9738 214.725 59.9396 217.508 59.9396C218.247 59.9396 218.986 59.8828 219.724 59.7123C220.917 59.4851 222.054 59.0306 223.02 58.4056L212.622 83.745ZM199.669 114.936C199.555 111.584 199.101 108.175 198.305 104.823C201.828 103.289 204.271 101.585 205.918 99.9372L199.669 114.936ZM193.362 91.5854C191.771 88.5174 189.953 85.5063 187.794 82.4951C188.249 82.0974 188.647 81.6997 189.044 81.302C191.715 79.2566 197.055 75.9614 201.487 78.3476C201.884 79.5407 203.021 85.3926 193.362 91.5854ZM186.772 81.1315C184.442 78.0067 182.056 75.2796 179.897 73.007C181.147 71.3594 186.829 64.5984 192.737 66.4165C193.305 67.496 195.351 72.6661 188.078 80.052C187.567 80.4497 187.113 80.8475 186.772 81.1315ZM178.761 71.7571C174.5 67.4392 171.204 64.9961 170.977 64.8257L170.636 64.5416C172 62.269 176.488 55.6785 182.227 56.6443C182.908 57.7238 185.806 62.894 178.761 71.7571ZM167.966 64.8257C167.739 64.9961 164.443 67.4392 160.182 71.8139C153.024 62.894 155.921 57.7238 156.66 56.6443C162.398 55.6785 166.943 62.3258 168.25 64.5984L167.966 64.8257ZM158.989 73.007C156.83 75.2796 154.444 78.0067 152.115 81.1315C151.774 80.8475 151.319 80.4498 150.751 79.9952C143.479 72.6093 145.524 67.4392 146.092 66.3597C152.115 64.5416 157.853 71.473 158.989 73.007ZM149.842 81.302C150.24 81.6997 150.694 82.0974 151.149 82.5519C148.99 85.5631 147.172 88.5743 145.581 91.6423C135.809 85.3926 137.002 79.5407 137.343 78.3476C141.831 75.9614 147.172 79.2566 149.842 81.302ZM140.638 104.823C139.843 108.175 139.388 111.584 139.275 114.936L133.139 100.108C134.843 101.698 137.229 103.346 140.638 104.823ZM113.992 59.201L124.56 84.4836C118.537 77.2681 111.492 71.7003 104.049 67.5528C107.401 67.2119 110.64 65.4506 112.628 62.4395C113.253 61.4736 113.708 60.3373 113.992 59.201ZM115.81 58.3488C116.776 58.9738 117.912 59.4851 119.162 59.7123C119.901 59.8828 120.639 59.9396 121.378 59.9396C124.162 59.9396 126.832 58.9169 128.934 57.1557C126.605 65.3938 125.525 74.3138 126.378 83.745L115.81 58.3488ZM116.435 103.687C113.14 102.608 109.674 101.755 106.038 101.187C106.038 100.562 106.095 99.994 106.095 99.4259C106.549 96.0738 107.97 89.9946 112.799 88.5175C113.935 89.1424 118.878 92.4945 116.435 103.687ZM104.39 100.903C100.527 100.335 96.8907 100.108 93.7659 99.994C93.4818 97.9487 92.6864 89.1424 98.1974 86.2449C99.3906 86.6426 104.447 88.8015 104.561 99.1986C104.447 99.9372 104.447 100.505 104.39 100.903ZM92.0614 99.994C85.9823 99.9372 81.9484 100.505 81.6643 100.562L81.2098 100.619C80.5849 98.0055 79.1077 90.2219 83.8233 86.8698C85.0732 87.0971 90.8115 88.6879 92.0614 99.994ZM79.5622 102.721C79.5054 103.005 78.9372 107.039 78.994 113.175C67.5743 111.925 66.0403 106.187 65.813 104.937C69.2219 100.164 77.1192 101.698 79.619 102.323L79.5622 102.721ZM78.994 114.823C79.0509 118.004 79.3349 121.584 79.9031 125.447C79.5054 125.447 78.8804 125.504 78.1418 125.618C67.8015 125.561 65.5857 120.447 65.188 119.254C68.1424 113.686 77.1192 114.595 78.994 114.823ZM78.4259 127.152C78.994 127.152 79.5622 127.152 80.1872 127.095C80.8121 130.731 81.6643 134.197 82.687 137.435C71.3809 139.935 68.0288 134.992 67.4606 133.856C68.9378 129.026 75.017 127.606 78.3691 127.152H78.4259ZM83.2551 139.083C84.5051 142.605 86.0391 145.9 87.8003 148.968C76.8351 153.173 72.8012 148.684 72.0058 147.662C72.858 141.81 80.7553 139.594 83.2551 139.083ZM88.5389 150.332C90.357 153.286 92.4023 156.013 94.7317 158.456L79.8463 152.264C82.2325 152.207 85.0732 151.639 88.5389 150.332ZM82.2893 162.036C78.8804 162.945 75.4715 164.252 72.1194 165.842C70.6991 163.627 66.7789 156.638 70.2446 151.923C71.4945 151.752 77.5169 151.468 82.2893 162.036ZM61.4951 172.206C61.0974 171.751 60.6997 171.353 60.302 170.956C58.2566 168.285 54.9614 162.945 57.3476 158.513C58.5975 158.116 64.3926 156.979 70.6423 166.695C67.5175 168.172 64.5063 170.047 61.4951 172.206ZM60.1315 173.171C57.0067 175.501 54.2796 177.887 52.007 180.046C50.4162 178.796 43.5984 173.115 45.4165 167.206C46.496 166.638 51.6661 164.592 59.052 171.865C59.4497 172.433 59.8475 172.887 60.1315 173.171ZM50.7571 181.239C46.4392 185.5 43.9961 188.796 43.8257 189.023L43.5416 189.421C41.269 188.057 34.6785 183.569 35.6443 177.83C36.7238 177.035 41.8372 174.137 50.7571 181.239ZM43.8257 191.977C43.9961 192.204 46.4392 195.5 50.8139 199.761C41.894 206.919 36.7238 204.022 35.6443 203.283C34.6785 197.545 41.3258 193 43.5984 191.693L43.8257 191.977ZM52.007 200.954C54.2796 203.113 57.0067 205.499 60.1315 207.829C59.8475 208.169 59.4498 208.624 58.9952 209.192C51.6093 216.464 46.4392 214.419 45.3597 213.851C43.5416 207.885 50.473 202.147 52.007 200.954ZM60.302 210.101C60.6997 209.703 61.0974 209.249 61.5519 208.794C64.5631 210.953 67.5743 212.771 70.6423 214.362C64.3926 224.134 58.5407 222.998 57.2908 222.6C54.9614 218.169 58.2566 212.771 60.302 210.101ZM72.1763 215.101C75.5283 216.692 78.9372 217.998 82.3461 218.907C77.5737 229.589 71.5513 229.305 70.2446 229.134C66.722 224.362 70.8127 217.26 72.1763 215.101ZM94.7317 222.544C92.4023 224.987 90.357 227.714 88.5389 230.668C84.9596 229.305 82.062 228.736 79.6758 228.736L94.7317 222.544ZM72.0626 233.395C72.858 232.316 76.8351 227.884 87.7435 232.032C85.9823 235.1 84.4483 238.395 83.2551 241.917C80.6417 241.349 72.9149 239.19 72.0626 233.395ZM82.687 243.565C81.6075 246.86 80.7553 250.326 80.1872 253.962C79.5622 253.905 78.994 253.905 78.4259 253.905C75.0738 253.451 68.9946 252.03 67.5175 247.201C68.1424 246.008 71.4377 241.065 82.687 243.565ZM79.9031 255.61C79.3349 259.473 79.1077 263.109 78.994 266.234C76.9487 266.518 68.1424 267.314 65.2449 261.803C65.6426 260.609 67.8583 255.553 78.1986 255.439C78.9372 255.496 79.5054 255.553 79.9031 255.61ZM78.994 267.882C78.9372 273.961 79.5054 277.995 79.5622 278.279L79.619 278.733C77.0055 279.358 69.2219 280.836 65.8698 276.12C66.0971 274.87 67.6879 269.132 78.994 267.882ZM81.3234 280.324L81.7212 280.381C82.0052 280.438 85.755 280.949 91.4933 280.949C91.7206 280.949 91.9478 280.949 92.1751 280.949C90.9251 292.369 85.1869 293.903 83.9369 294.13C79.1645 290.778 80.6417 282.881 81.3234 280.324ZM93.8227 280.949C97.0043 280.892 100.584 280.608 104.447 280.04C104.447 280.438 104.504 281.063 104.618 281.801C104.561 292.198 99.4474 294.357 98.2542 294.755C92.6864 291.858 93.5954 282.881 93.8227 280.949ZM126.378 297.198C125.525 306.573 126.605 315.436 128.934 323.674C128.65 323.447 128.366 323.219 128.025 322.992C125.412 321.231 122.287 320.606 119.219 321.231C118.026 321.458 116.946 321.913 115.924 322.538L126.378 297.198ZM139.275 266.064C139.388 269.416 139.843 272.825 140.638 276.177C137.116 277.711 134.673 279.415 133.025 281.063L139.275 266.064ZM145.638 289.358C147.229 292.426 149.047 295.437 151.206 298.448C150.751 298.846 150.353 299.244 149.956 299.641C147.285 301.687 141.945 304.982 137.513 302.596C137.059 301.402 135.922 295.607 145.638 289.358ZM152.171 299.868C154.501 302.993 156.887 305.72 159.046 307.993C157.796 309.584 152.115 316.402 146.206 314.584C145.638 313.504 143.592 308.334 150.865 300.948C151.433 300.493 151.887 300.153 152.171 299.868ZM160.239 309.186C164.5 313.504 167.796 315.947 168.023 316.118L168.421 316.402C167.057 318.674 162.569 325.265 156.83 324.299C156.035 323.276 153.081 318.106 160.239 309.186ZM170.977 316.174C171.204 316.004 174.5 313.561 178.761 309.186C185.919 318.106 183.022 323.276 182.283 324.356C176.545 325.322 172 318.674 170.693 316.402L170.977 316.174ZM179.954 307.936C182.113 305.664 184.499 302.936 186.829 299.812C187.169 300.096 187.624 300.493 188.192 300.948C195.464 308.334 193.419 313.504 192.851 314.584C186.885 316.458 181.147 309.47 179.954 307.936ZM189.101 299.698C188.703 299.3 188.249 298.903 187.794 298.448C189.953 295.437 191.771 292.426 193.362 289.358C203.134 295.607 201.941 301.459 201.6 302.652C197.169 305.039 191.771 301.743 189.101 299.698ZM198.305 276.12C199.101 272.768 199.555 269.359 199.669 266.007L205.805 280.836C204.157 279.245 201.714 277.654 198.305 276.12ZM223.19 322.594C222.224 321.969 221.088 321.458 219.838 321.231C216.202 320.549 212.679 321.572 210.066 323.788C212.395 315.549 213.475 306.629 212.622 297.198L223.19 322.594ZM222.565 277.256C225.86 278.336 229.326 279.188 232.962 279.756C232.962 280.381 232.905 280.949 232.905 281.517C232.451 284.869 231.03 290.949 226.201 292.426C225.008 291.858 220.065 288.506 222.565 277.256ZM234.61 280.04C238.473 280.608 242.109 280.836 245.234 280.949C245.518 282.995 246.314 291.801 240.803 294.698C239.609 294.301 234.553 292.142 234.439 281.745C234.496 281.063 234.553 280.495 234.61 280.04ZM246.882 281.006C247.109 281.006 247.279 281.006 247.507 281.006C253.245 281.006 257.052 280.438 257.279 280.438L257.733 280.381C258.358 282.995 259.836 290.778 255.12 294.13C253.87 293.903 248.132 292.255 246.882 281.006ZM259.381 278.279C259.438 277.995 260.006 273.961 259.949 267.825C271.369 269.075 272.903 274.813 273.13 276.063C269.721 280.836 261.824 279.302 259.324 278.677L259.381 278.279ZM259.949 266.121C259.892 262.939 259.608 259.36 259.04 255.496C259.438 255.496 260.063 255.439 260.801 255.326C271.198 255.383 273.357 260.496 273.755 261.689C270.858 267.257 261.881 266.405 259.949 266.121ZM260.574 253.792C260.006 253.792 259.381 253.792 258.756 253.848C258.131 250.212 257.279 246.747 256.256 243.508C267.562 241.008 270.914 245.951 271.483 247.088C270.062 251.917 263.926 253.394 260.574 253.792ZM255.745 241.917C254.495 238.395 252.961 235.1 251.2 232.032C262.165 227.827 266.199 232.316 266.994 233.338C266.085 239.19 258.245 241.349 255.745 241.917ZM250.404 230.668C248.586 227.714 246.541 224.987 244.211 222.544L259.04 228.736C256.768 228.736 253.87 229.305 250.404 230.668ZM256.711 218.907C260.12 217.998 263.529 216.692 266.881 215.101C268.301 217.317 272.221 224.305 268.755 229.02C267.506 229.248 261.426 229.475 256.711 218.907ZM277.505 208.794C277.903 209.249 278.3 209.647 278.698 210.044C280.743 212.715 284.039 218.055 281.652 222.544C280.402 222.941 274.551 224.078 268.358 214.362C271.426 212.771 274.494 210.953 277.505 208.794ZM278.868 207.772C281.993 205.442 284.72 203.056 286.993 200.897C288.641 202.147 295.402 207.829 293.584 213.737C292.504 214.305 287.277 216.294 279.948 209.078C279.493 208.567 279.153 208.113 278.868 207.772ZM288.186 199.761C292.504 195.5 294.947 192.204 295.118 191.977L295.402 191.579C297.674 192.943 304.265 197.431 303.299 203.17C302.276 203.965 297.106 206.863 288.186 199.761ZM295.174 188.966C295.004 188.739 292.561 185.443 288.186 181.182C297.106 174.024 302.276 176.921 303.356 177.66C304.322 183.398 297.674 187.943 295.402 189.25L295.174 188.966ZM286.936 179.989C284.664 177.83 281.936 175.444 278.812 173.115C279.096 172.774 279.493 172.319 279.948 171.751C287.334 164.479 292.504 166.524 293.584 167.092C295.458 173.115 288.47 178.853 286.936 179.989ZM278.698 170.842C278.3 171.24 277.846 171.694 277.448 172.149C274.437 169.99 271.426 168.172 268.358 166.581C274.607 156.809 280.459 158.002 281.652 158.343C284.039 162.831 280.743 168.172 278.698 170.842ZM266.824 165.842C263.472 164.252 260.063 162.945 256.654 162.036C261.426 151.355 267.449 151.639 268.755 151.809C272.221 156.582 268.187 163.74 266.824 165.842ZM301.594 136.81C300.969 137.833 300.458 138.912 300.231 140.162C299.606 143.23 300.288 146.355 301.992 148.968C302.219 149.309 302.447 149.65 302.731 149.934C294.493 147.605 285.573 146.525 276.198 147.378L301.594 136.81ZM333.638 121.243L310.912 130.731C313.128 127.208 312.105 122.493 308.639 120.163C307.219 119.197 305.515 118.857 303.81 119.197C302.106 119.538 300.685 120.504 299.72 121.925C298.924 123.118 298.64 124.538 298.924 125.902C299.208 127.322 300.004 128.515 301.197 129.31C302.163 129.992 303.356 130.22 304.549 129.992C305.685 129.765 306.708 129.083 307.39 128.117C308.526 126.413 308.071 124.084 306.367 122.947C304.947 121.981 302.958 122.379 301.992 123.799C301.594 124.424 301.424 125.106 301.594 125.845C301.708 126.527 302.163 127.152 302.731 127.549C303.242 127.89 303.867 128.004 304.492 127.89C305.117 127.776 305.628 127.436 305.969 126.924C306.253 126.527 306.14 125.958 305.742 125.731C305.344 125.447 304.776 125.561 304.549 125.958C304.435 126.072 304.322 126.186 304.151 126.186C303.981 126.186 303.867 126.186 303.697 126.072C303.469 125.958 303.356 125.731 303.299 125.447C303.242 125.22 303.299 124.936 303.469 124.765C303.924 124.14 304.776 123.97 305.401 124.368C306.31 124.993 306.537 126.186 305.912 127.095C305.515 127.663 304.89 128.117 304.208 128.231C303.526 128.345 302.788 128.231 302.219 127.833C300.572 126.754 300.174 124.538 301.254 122.89C301.935 121.868 303.015 121.129 304.265 120.902C305.515 120.675 306.708 120.902 307.787 121.64C310.571 123.515 311.31 127.265 309.435 130.049C307.049 133.628 302.163 134.537 298.583 132.151C296.367 130.674 294.89 128.401 294.379 125.788C294.038 124.14 294.152 122.493 294.606 120.959C295.004 120.106 295.402 119.254 295.799 118.459C295.856 118.402 295.856 118.345 295.856 118.345C295.913 118.232 295.97 118.118 295.97 118.004C296.652 116.414 297.333 114.88 297.901 113.289C313.923 112.55 328.525 118.8 333.638 121.243ZM302.39 57.5534C303.242 64.7689 308.526 121.527 268.301 148.287C268.358 148.173 268.415 148.116 268.415 148.116L268.528 147.889L268.471 147.662C268.301 146.298 267.903 145.162 267.221 144.139C267.79 144.65 268.358 144.821 268.869 144.878C269.608 144.991 270.176 144.764 270.176 144.764C270.176 144.764 270.574 144.31 270.744 143.571C270.914 142.832 270.801 141.81 269.949 140.617L266.54 143.003C265.347 141.526 263.756 140.446 262.165 139.594C270.687 139.537 272.903 134.367 273.017 134.083L273.13 133.856L273.073 133.628C272.051 129.765 268.812 127.72 265.631 126.583C274.096 124.936 275.289 119.482 275.346 119.197L275.403 118.97L275.289 118.743C273.585 115.107 269.949 113.686 266.54 113.175C274.323 110.391 274.721 104.937 274.778 104.653V104.369L274.664 104.142C271.426 99.1418 264.665 99.5395 260.858 100.221L266.028 95.0512C270.119 90.9605 275.46 90.506 278.13 90.5628C278.812 91.6423 281.084 92.4945 282.448 92.6081C284.095 92.7217 283.755 91.5854 283.811 90.2219C283.868 88.8583 284.38 87.7789 282.732 87.6652C281.425 87.6084 279.323 88.1198 278.414 88.972C276.71 88.9152 273.926 89.0288 270.971 90.1083L277.448 83.6314C279.266 84.1427 282.618 82.4383 284.152 80.9611C285.914 79.1998 284.266 78.5181 282.902 77.1545C281.482 75.7341 280.8 74.1433 279.096 75.9046C277.619 77.3818 275.914 80.7906 276.425 82.6087L269.949 89.0856C271.028 86.1312 271.142 83.3473 271.085 81.6429C271.937 80.7338 272.505 78.5749 272.392 77.3249C272.278 75.6773 271.198 76.1318 269.835 76.2455C268.471 76.3023 267.335 75.9614 267.449 77.609C267.506 78.9726 268.415 81.2452 269.494 81.9269C269.551 84.5972 269.096 89.9378 265.006 94.0285L259.779 99.2554C260.461 95.5057 260.972 88.5743 255.915 85.279L255.688 85.1654H255.404C255.12 85.1654 249.666 85.6199 246.882 93.3467C246.37 89.9946 244.95 86.3017 241.314 84.5972L241.087 84.4836L240.859 84.5404C240.575 84.5972 235.064 85.7903 233.473 94.2557C232.337 91.0741 230.292 87.8357 226.428 86.813L226.201 86.7562L225.974 86.8698C225.69 86.9835 220.577 89.1424 220.463 97.7215C219.667 96.1306 218.531 94.5966 217.111 93.4035L219.497 89.9946C218.304 89.0856 217.281 89.0288 216.543 89.1992C215.804 89.3697 215.35 89.7674 215.35 89.7674C215.35 89.7674 215.122 90.3355 215.236 91.0741C215.293 91.5286 215.52 92.0968 215.975 92.6649C214.952 92.04 213.759 91.5854 212.395 91.415L212.168 91.3582L211.941 91.4718C238.587 51.4742 295.174 56.758 302.39 57.5534ZM242.166 64.0303C241.996 64.0303 241.825 64.0871 241.655 64.1439C241.428 64.2575 241.257 64.428 241.03 64.5416C240.575 64.7689 240.064 64.9961 239.609 65.2234C235.405 66.8142 230.462 65.3938 227.849 61.4736C225.463 57.8943 226.372 53.065 229.951 50.622C232.735 48.7471 236.485 49.4857 238.36 52.2696C239.78 54.4286 239.212 57.3261 237.11 58.7465C235.462 59.826 233.246 59.4283 232.167 57.7806C231.315 56.5307 231.655 54.8831 232.905 54.0877C233.36 53.8036 233.871 53.69 234.383 53.8036C234.894 53.9172 235.348 54.2013 235.632 54.6558C236.087 55.2808 235.917 56.1898 235.235 56.5875C234.78 56.8716 234.212 56.758 233.928 56.3603C233.758 56.0762 233.814 55.7353 234.098 55.5649C234.496 55.2808 234.61 54.7695 234.326 54.3718C234.042 53.9741 233.53 53.8604 233.133 54.1445C232.053 54.8831 231.769 56.3035 232.508 57.3829C233.36 58.6329 235.007 58.9169 236.257 58.1215C237.678 57.1557 238.075 55.1672 237.11 53.7468C235.973 52.0424 233.644 51.5878 231.939 52.7241C229.894 54.0877 229.383 56.8716 230.746 58.8601C232.394 61.3032 235.689 61.9281 238.132 60.2805C239.553 59.3146 240.518 57.8375 240.859 56.1898C241.2 54.4854 240.859 52.7809 239.894 51.3606C237.507 47.8381 232.735 46.8722 229.156 49.1448L238.644 26.1348C241.371 30.9072 248.586 45.2814 248.87 61.4168C246.541 62.1554 244.325 63.0076 242.166 64.0303ZM236.598 25.453L227.224 48.2358C226.258 44.1451 222.281 41.5316 218.133 42.327C214.668 43.0088 212.395 46.3609 213.077 49.8834C213.361 51.3038 214.156 52.4969 215.35 53.2923C216.543 54.0877 217.963 54.3718 219.327 54.0877C221.713 53.6332 223.304 51.3038 222.849 48.9175C222.451 46.929 220.52 45.5655 218.474 45.9632C217.622 46.1336 216.94 46.5881 216.486 47.2699C216.031 47.9517 215.861 48.8039 216.031 49.6561C216.145 50.3379 216.599 50.9629 217.168 51.3606C217.793 51.7583 218.474 51.9287 219.213 51.7583C220.463 51.531 221.315 50.2811 221.031 49.0312C220.917 48.5767 220.463 48.2358 220.008 48.3494C219.554 48.463 219.213 48.9175 219.327 49.3721C219.383 49.7129 219.156 49.997 218.872 50.0538C218.645 50.1106 218.361 50.0538 218.19 49.8834C217.963 49.7698 217.849 49.5425 217.793 49.2584C217.736 48.9175 217.793 48.5198 218.02 48.2358C218.247 47.9517 218.531 47.7244 218.929 47.6676C220.008 47.4404 221.031 48.1789 221.258 49.2016C221.542 50.622 220.577 52.0424 219.156 52.3264C217.224 52.7241 215.35 51.4174 214.952 49.4857C214.441 46.929 216.145 44.486 218.645 43.9747C221.94 43.3497 225.122 45.5087 225.747 48.7471C226.031 50.2243 225.86 51.7583 225.349 53.1218L225.292 53.2923C225.122 53.7468 224.894 54.1445 224.61 54.5422C223.474 56.2466 221.656 57.4398 219.611 57.8375C215.179 58.6897 210.861 56.4739 208.873 52.6673C208.589 51.8151 208.248 50.9629 207.964 50.1106C207.964 50.0538 207.907 49.997 207.907 49.9402C207.907 49.8266 207.85 49.7129 207.736 49.5993C207.111 48.0085 206.486 46.4177 205.748 44.8837C216.486 33.2935 231.258 27.3279 236.598 25.453ZM169.5 2.49985C175.181 6.98822 219.043 43.4633 209.554 90.79C209.554 90.6764 209.498 90.6196 209.498 90.5628L209.441 90.3355L209.214 90.1651C208.134 89.3129 206.998 88.8015 205.861 88.5175C206.6 88.4606 207.168 88.2334 207.566 87.8925C208.134 87.438 208.418 86.9266 208.418 86.9266C208.418 86.9266 208.361 86.3585 207.964 85.7335C207.566 85.1086 206.771 84.4268 205.293 84.2563L204.555 88.347C202.68 88.1766 200.805 88.5174 199.101 89.0288C205.066 82.9496 202.964 77.7794 202.85 77.4954L202.737 77.2681L202.509 77.1545C199.101 75.166 195.294 75.9614 192.283 77.4386C197.112 70.3367 194.044 65.6211 193.93 65.337L193.76 65.1098L193.533 64.9961C189.726 63.6326 186.147 65.2234 183.42 67.2687C186.942 59.7692 183.363 55.6217 183.192 55.4512L183.022 55.2808L182.795 55.224C177 54.0309 172.454 59.0874 170.239 62.269V54.9399C170.239 49.1448 173.704 44.9973 175.636 43.1792C176.886 43.4633 179.102 42.4975 180.124 41.5884C181.374 40.4521 180.295 39.9408 179.386 38.9181C178.477 37.8955 178.079 36.7592 176.829 37.8955C175.863 38.7477 174.727 40.6226 174.727 41.9293C173.477 43.0656 171.602 45.1109 170.239 48.0085V38.8045C171.829 37.8955 173.079 34.3161 173.079 32.1572C173.079 29.7141 171.489 30.3391 169.5 30.3391C167.511 30.3391 165.921 29.6573 165.921 32.1572C165.921 34.2593 167.114 37.8387 168.761 38.8045V47.9517C167.455 45.111 165.523 43.0088 164.273 41.8725C164.216 40.5658 163.137 38.7477 162.171 37.8387C160.921 36.7024 160.523 37.8387 159.614 38.8613C158.705 39.884 157.626 40.3953 158.876 41.5316C159.898 42.4407 162.114 43.4065 163.364 43.1224C165.296 44.9405 168.761 49.0312 168.761 54.8831V62.269C166.602 59.0874 162.057 53.9172 156.149 55.1104L155.921 55.1672L155.751 55.3376C155.58 55.5649 152.001 59.7123 155.524 67.1551C152.796 65.1098 149.217 63.5758 145.411 64.9393L145.183 65.0529L145.013 65.2802C144.842 65.5075 141.831 70.2799 146.66 77.3818C143.592 75.9046 139.843 75.0523 136.434 77.0977L136.207 77.2113L136.093 77.4386C135.979 77.7226 133.877 82.8928 139.843 88.972C138.138 88.4606 136.263 88.1197 134.445 88.2902L133.707 84.1995C132.229 84.4268 131.434 85.0518 131.036 85.6767C130.639 86.3017 130.582 86.8698 130.582 86.8698C130.582 86.8698 130.809 87.3812 131.434 87.8357C131.832 88.1198 132.343 88.4038 133.025 88.4606C131.832 88.7447 130.696 89.2561 129.616 90.1083L129.389 90.2787L129.332 90.506C120.071 43.3497 163.819 7.04503 169.5 2.49985ZM131.434 49.6561C131.32 49.7698 131.207 49.9402 131.15 50.1106C131.093 50.3379 131.036 50.622 130.98 50.8492C130.809 51.3606 130.639 51.8151 130.468 52.3264C128.593 56.4171 124.105 58.9169 119.503 58.0079C117.458 57.6102 115.696 56.4171 114.503 54.7127C113.367 53.0082 112.912 50.9061 113.31 48.8607C113.935 45.5655 117.117 43.4065 120.412 44.0883C122.969 44.5996 124.616 47.0427 124.105 49.5993C123.935 50.5084 123.366 51.3606 122.571 51.8719C121.776 52.3832 120.81 52.6105 119.901 52.4401C118.424 52.156 117.514 50.7356 117.799 49.3152C118.026 48.2358 119.048 47.554 120.128 47.7812C120.469 47.8381 120.81 48.0653 121.037 48.3494C121.264 48.6335 121.321 49.0312 121.264 49.3721C121.151 49.8834 120.639 50.2243 120.185 50.1106C120.014 50.0538 119.901 49.997 119.787 49.8834C119.673 49.7698 119.673 49.5993 119.673 49.4289C119.787 48.9744 119.446 48.5198 118.992 48.4062C118.537 48.2926 118.083 48.6335 117.969 49.088C117.855 49.7129 117.969 50.3379 118.31 50.8492C118.651 51.3606 119.162 51.7015 119.787 51.8151C120.469 51.9287 121.207 51.8151 121.832 51.4174C122.457 51.0197 122.855 50.3947 122.969 49.7129C123.139 48.8607 122.969 48.0653 122.514 47.3267C122.06 46.645 121.321 46.1336 120.526 46.02C119.56 45.8495 118.537 46.02 117.742 46.5881C116.89 47.1563 116.378 48.0085 116.151 48.9744C115.696 51.3606 117.23 53.69 119.673 54.1445C121.094 54.4286 122.457 54.1445 123.65 53.3491C124.844 52.5537 125.639 51.3606 125.923 49.9402C126.264 48.2358 125.923 46.5313 124.957 45.111C123.991 43.6906 122.514 42.7247 120.867 42.3838C116.662 41.5884 112.628 44.2587 111.719 48.4062L102.174 25.453C107.458 26.9302 122.741 31.9867 134.388 43.1792C133.252 45.2246 132.286 47.4404 131.434 49.6561ZM100.243 26.3053L109.731 49.0312C106.208 46.8154 101.493 47.8381 99.1633 51.3038C98.1974 52.7241 97.8566 54.4286 98.1974 56.133C98.5383 57.8375 99.5042 59.2578 100.925 60.2237C103.368 61.8713 106.663 61.2463 108.31 58.8033C109.674 56.758 109.163 54.0309 107.117 52.6673C106.265 52.0992 105.299 51.9287 104.333 52.0992C103.368 52.2696 102.515 52.8378 101.947 53.69C100.981 55.1104 101.379 57.0989 102.799 58.0647C104.049 58.9169 105.697 58.5761 106.549 57.3261C107.288 56.2466 107.004 54.8263 105.924 54.0877C105.527 53.8036 104.958 53.9172 104.731 54.3149C104.447 54.7126 104.561 55.2808 104.958 55.5081C105.242 55.6785 105.299 56.0194 105.129 56.3035C104.845 56.758 104.277 56.8716 103.822 56.5307C103.197 56.0762 103.027 55.224 103.424 54.599C103.708 54.1445 104.163 53.8604 104.674 53.7468C105.186 53.6332 105.697 53.7468 106.152 54.0309C107.401 54.8831 107.686 56.5307 106.89 57.7238C105.811 59.3715 103.595 59.7692 101.947 58.6897C99.7883 57.2693 99.2201 54.3149 100.697 52.2128C102.572 49.4289 106.322 48.6903 109.106 50.5652C112.685 52.9514 113.594 57.8375 111.208 61.4168C108.708 65.1666 104.049 66.6438 99.9587 65.337C99.1633 64.9393 98.3111 64.5416 97.5157 64.2007C97.4589 64.1439 97.402 64.1439 97.3452 64.0871C97.2316 64.0303 97.118 63.9735 97.0043 63.9735C95.4135 63.2917 93.8795 62.6099 92.2887 62.0418C91.5501 46.0768 97.7997 31.4186 100.243 26.3053ZM36.5534 57.5534C43.7689 56.7012 100.527 51.4742 127.287 91.6423C127.173 91.5854 127.116 91.5286 127.116 91.5286L126.889 91.415L126.662 91.4718C125.298 91.6423 124.162 92.04 123.139 92.7217C123.65 92.1536 123.821 91.5854 123.878 91.0741C123.991 90.3355 123.764 89.7674 123.764 89.7674C123.764 89.7674 123.31 89.3697 122.571 89.1992C121.832 89.0288 120.81 89.1424 119.617 89.9946L122.003 93.4035C120.526 94.5966 119.446 96.1875 118.594 97.7783C118.537 89.2561 113.367 87.0403 113.083 86.9266L112.856 86.813L112.628 86.8698C108.765 87.8925 106.72 91.1309 105.583 94.3126C103.936 85.8472 98.4815 84.654 98.1974 84.5972L97.9702 84.5404L97.7429 84.654C94.1068 86.3585 92.6864 89.9946 92.1751 93.4035C89.3911 85.6199 83.9369 85.2222 83.6529 85.1654H83.3688L83.1415 85.279C78.1418 88.5175 78.5395 95.2784 79.2213 99.085L74.0512 93.9149C69.9605 89.8242 69.506 84.4268 69.5628 81.8133C70.6423 81.1315 71.4945 78.8589 71.6081 77.4954C71.7217 75.8477 70.5854 76.1886 69.2219 76.1318C67.8583 76.075 66.7789 75.5637 66.6652 77.2113C66.6084 78.518 67.1198 80.6202 67.972 81.5292C67.9152 83.2337 68.0288 86.0176 69.1083 88.972L62.6314 82.4951C63.1427 80.677 61.4383 77.3249 59.9611 75.7909C58.1998 74.0297 57.5181 75.6773 56.1545 77.0409C54.7341 78.4612 53.1433 79.143 54.9046 80.8475C56.3818 82.3246 59.7906 84.0291 61.6087 83.5177L68.0856 89.9946C65.1312 88.9152 62.3473 88.8015 60.6429 88.8583C59.7338 88.0061 57.5749 87.438 56.3249 87.5516C54.6773 87.6652 55.1318 88.7447 55.2455 90.1083C55.3023 91.4718 54.9614 92.6081 56.609 92.4945C57.9726 92.4377 60.2452 91.5286 60.9269 90.4492C63.5972 90.3923 68.9378 90.8469 73.0285 94.9375L78.3123 100.221C74.5625 99.5395 67.6311 99.0282 64.3358 104.085L64.2222 104.312V104.596C64.2222 104.88 64.6767 110.334 72.4035 113.118C69.0514 113.63 65.4153 115.05 63.654 118.686L63.5404 118.913L63.5972 119.141C63.654 119.425 64.8472 124.936 73.3126 126.527C70.1309 127.663 66.8925 129.708 65.8698 133.572L65.813 133.799L65.9266 134.026C66.0403 134.31 68.1992 139.424 76.7783 139.537C75.1875 140.333 73.6535 141.469 72.4603 142.889L69.0515 140.503C68.1424 141.696 68.0856 142.719 68.2561 143.457C68.4265 144.196 68.8242 144.65 68.8242 144.65C68.8242 144.65 69.3923 144.878 70.1309 144.764C70.5854 144.707 71.1536 144.48 71.7217 144.026C71.0968 145.048 70.6423 146.241 70.4718 147.605L70.415 147.832L70.5286 148.059C30.4742 121.413 35.758 64.7689 36.5534 57.5534ZM43.0303 117.834C43.0303 118.004 43.0871 118.175 43.1439 118.345C43.2575 118.572 43.428 118.743 43.5416 118.97C43.7689 119.482 43.9961 119.936 44.2234 120.447C44.8484 122.152 45.0188 124.027 44.6779 125.845C44.1666 128.458 42.6894 130.731 40.4736 132.208C36.8943 134.594 32.065 133.685 29.622 130.106C28.7129 128.742 28.3721 127.152 28.7129 125.561C28.997 123.97 29.9061 122.606 31.2696 121.697C33.4286 120.277 36.3261 120.845 37.7465 122.947C38.826 124.595 38.4283 126.811 36.7806 127.89C35.5875 128.742 33.8831 128.401 33.0877 127.152C32.4627 126.242 32.7468 125.049 33.599 124.424C34.224 123.97 35.133 124.14 35.5307 124.822C35.8148 125.277 35.7012 125.845 35.3035 126.129C35.1898 126.242 35.0194 126.242 34.8489 126.242C34.6785 126.186 34.5649 126.129 34.4512 126.015C34.1672 125.618 33.6558 125.504 33.2581 125.788C32.8604 126.072 32.7468 126.583 33.0309 126.981C33.3718 127.492 33.8831 127.833 34.5081 127.947C35.133 128.061 35.758 127.947 36.2693 127.606C37.5192 126.754 37.8033 125.106 37.0079 123.856C36.5534 123.174 35.8148 122.663 35.0194 122.55C34.1672 122.379 33.3718 122.55 32.6332 123.004C30.9287 124.14 30.4742 126.47 31.6105 128.174C32.9741 130.22 35.758 130.731 37.7465 129.367C40.1895 127.72 40.8145 124.424 39.1669 121.981C37.1784 119.027 33.2013 118.288 30.2469 120.22C26.7244 122.606 25.7586 127.379 28.0312 130.958L5.02118 121.47C9.79362 118.743 24.1678 111.527 40.3032 111.243C41.1554 113.402 42.0076 115.618 43.0303 117.834ZM4.45303 123.345L27.2358 132.719C23.1451 133.685 20.5316 137.662 21.327 141.81C22.0088 145.275 25.3609 147.548 28.8834 146.866C30.3038 146.582 31.4969 145.787 32.2923 144.594C33.0877 143.401 33.3718 141.98 33.0877 140.617C32.6332 138.23 30.3038 136.64 27.9175 137.094C25.929 137.492 24.5655 139.424 24.9632 141.469C25.3041 143.173 26.9517 144.31 28.6561 143.969C29.3379 143.855 29.9629 143.401 30.3606 142.832C30.7583 142.207 30.9287 141.526 30.7583 140.787C30.531 139.537 29.2811 138.685 28.0312 138.969C27.5767 139.083 27.2358 139.537 27.3494 139.992C27.463 140.446 27.9175 140.787 28.3721 140.673C28.5425 140.617 28.6561 140.673 28.8266 140.787C28.9402 140.901 29.0538 141.014 29.0538 141.128C29.1106 141.355 29.0538 141.639 28.8834 141.81C28.7698 142.037 28.5425 142.151 28.2584 142.207C27.5198 142.378 26.7812 141.867 26.6108 141.128C26.3835 140.048 27.1221 139.026 28.1448 138.799C29.622 138.514 30.9855 139.48 31.2696 140.901C31.4401 141.81 31.2696 142.776 30.7015 143.571C30.1901 144.366 29.3379 144.878 28.4289 145.105C25.8722 145.616 23.4292 143.912 22.9178 141.412C22.2929 138.117 24.4518 134.935 27.6903 134.31C29.1675 134.026 30.7015 134.197 32.1218 134.708L32.2923 134.765C32.7468 134.935 33.1445 135.162 33.599 135.446C35.3035 136.64 36.4966 138.401 36.8943 140.446C37.7465 144.878 35.5307 149.139 31.7809 151.184C30.8719 151.468 30.0197 151.809 29.1675 152.15C29.1107 152.15 29.0538 152.15 29.0538 152.207C28.9402 152.207 28.8266 152.264 28.7129 152.32C27.1221 152.945 25.5313 153.627 23.9973 154.309C12.2935 143.514 6.32792 128.686 4.45303 123.345ZM-18.5001 190.5C-14.0118 184.819 22.4065 140.958 69.79 150.446C69.6764 150.446 69.6196 150.502 69.5628 150.502L69.3355 150.559L69.1651 150.786C68.3129 151.866 67.8015 153.002 67.5175 154.139C67.4606 153.4 67.2334 152.832 66.8925 152.434C66.438 151.866 65.9266 151.582 65.9266 151.582C65.9266 151.582 65.3585 151.639 64.7335 152.036C64.1086 152.434 63.4268 153.229 63.2563 154.707L67.347 155.445C67.1766 157.32 67.5174 159.195 68.0288 160.9C61.9496 154.934 56.7794 157.036 56.4954 157.15L56.2681 157.263L56.1545 157.491C54.166 160.9 54.9614 164.706 56.4386 167.717C49.3367 162.888 44.6211 165.899 44.337 166.07L44.1098 166.24L43.9961 166.467C42.6326 170.274 44.2234 173.853 46.2687 176.58C38.7692 173.058 34.6217 176.637 34.4512 176.808L34.2808 176.978L34.224 177.205C33.0309 183.057 38.0874 187.546 41.269 189.761H33.9399C28.1448 189.761 23.9973 186.296 22.1792 184.364C22.4633 183.114 21.4975 180.898 20.5884 179.876C19.4521 178.626 18.9408 179.705 17.9181 180.614C16.8955 181.523 15.7592 181.921 16.8955 183.171C17.7477 184.137 19.6226 185.273 20.9293 185.273C22.0656 186.523 24.1109 188.398 27.0085 189.761H17.8045C16.8955 188.171 13.3161 186.921 11.1572 186.921C8.71414 186.921 9.3391 188.511 9.3391 190.5C9.3391 192.489 8.71414 194.079 11.1572 194.079C13.2593 194.079 16.8387 192.886 17.8045 191.239H26.9517C24.111 192.545 22.0088 194.477 20.8725 195.727C19.5658 195.784 17.7477 196.863 16.8387 197.829C15.7024 199.079 16.8387 199.477 17.8613 200.386C18.884 201.295 19.3953 202.374 20.5316 201.124C21.4407 200.102 22.4065 197.886 22.1224 196.636C23.9405 194.704 28.088 191.239 33.8831 191.239H41.269C38.0874 193.398 32.9172 197.943 34.1104 203.851L34.1672 204.079L34.3376 204.249C34.5081 204.363 36.3829 206.01 39.9055 206.01C41.6099 206.01 43.7121 205.613 46.1551 204.476C44.1098 207.204 42.5758 210.783 43.9393 214.589L44.0529 214.817L44.2802 214.987C44.3938 215.101 45.9846 216.067 48.5981 216.067C50.6435 216.067 53.2569 215.442 56.3818 213.34C54.9046 216.408 54.0523 220.157 56.0977 223.566L56.2113 223.793L56.4386 223.907C56.5522 223.964 57.5181 224.362 59.1089 224.362C61.2678 224.362 64.4495 223.623 67.972 220.157C67.4606 221.862 67.1197 223.737 67.2902 225.555L63.1995 226.293C63.4268 227.771 64.0518 228.566 64.6767 228.964C65.3017 229.361 65.8698 229.418 65.8698 229.418C65.8698 229.418 66.3812 229.191 66.8357 228.566C67.1198 228.168 67.4038 227.657 67.4606 226.918C67.7447 228.111 68.2561 229.248 69.1083 230.327L69.2787 230.554L69.506 230.611C22.3497 239.929 -13.955 196.181 -18.5001 190.5ZM28.6561 228.566C28.7698 228.68 28.9402 228.793 29.1106 228.85C29.3379 228.907 29.5652 228.964 29.7924 229.02C30.3038 229.191 30.8151 229.418 31.3264 229.589C35.4171 231.463 37.8601 235.952 36.9511 240.554C36.5534 242.599 35.3603 244.36 33.6558 245.554C31.9514 246.747 29.8492 247.144 27.8039 246.747C24.5087 246.122 22.3497 242.94 23.0315 239.645C23.5428 237.088 25.9858 235.441 28.5425 235.952C30.4742 236.35 31.7241 238.224 31.3832 240.156C31.0992 241.577 29.6788 242.542 28.2584 242.258C27.1789 242.031 26.4972 241.008 26.7244 239.929C26.8949 239.19 27.5767 238.679 28.3721 238.849C28.5993 238.906 28.8266 239.02 28.997 239.247C29.1106 239.474 29.1675 239.702 29.1675 239.929C29.1107 240.099 29.0538 240.213 28.9402 240.27C28.8266 240.383 28.6561 240.383 28.4857 240.383C28.0312 240.27 27.5767 240.611 27.463 241.065C27.3494 241.52 27.6903 241.974 28.1448 242.088C29.3947 242.315 30.6446 241.52 30.8719 240.27C30.9855 239.588 30.8719 238.849 30.4742 238.224C30.0765 237.599 29.4515 237.202 28.7698 237.088C27.9175 236.918 27.1221 237.088 26.3835 237.543C25.7018 237.997 25.1904 238.736 25.0768 239.531C24.6791 241.52 25.9858 243.508 28.0312 243.906C30.4174 244.36 32.7468 242.826 33.2013 240.383C33.4854 238.963 33.2013 237.599 32.4059 236.406C31.6105 235.213 30.4174 234.418 28.997 234.134C25.5313 233.452 22.1224 235.725 21.4407 239.19C20.6452 243.395 23.3155 247.428 27.463 248.337L4.39621 257.939C5.8734 252.655 10.9299 237.372 22.1224 225.725C24.2246 226.748 26.4404 227.657 28.6561 228.566ZM5.30525 259.7L28.0312 250.212C25.8154 253.735 26.8381 258.451 30.3038 260.78C33.2581 262.768 37.2352 261.973 39.2237 259.019C40.8713 256.576 40.2463 253.28 37.8033 251.633C36.8375 250.951 35.6444 250.724 34.4512 250.951C33.3149 251.178 32.2923 251.86 31.6105 252.826C30.4742 254.53 30.9287 256.86 32.6332 257.996C34.0535 258.962 36.0421 258.564 37.0079 257.144C37.8601 255.894 37.5192 254.246 36.2693 253.394C35.1898 252.655 33.7695 252.939 33.0309 254.019C32.7468 254.417 32.8604 254.985 33.2581 255.212C33.6558 255.496 34.224 255.383 34.4512 254.985C34.6217 254.701 34.9626 254.644 35.2466 254.814C35.7012 255.098 35.8148 255.667 35.4739 256.121C35.0194 256.746 34.1672 256.917 33.5422 256.519C32.6332 255.894 32.4059 254.701 33.0309 253.792C33.8831 252.542 35.5307 252.258 36.7238 253.053C38.3715 254.133 38.7692 256.348 37.6897 257.996C36.2693 260.155 33.3149 260.723 31.2128 259.246C29.8492 258.337 28.9402 256.973 28.6561 255.383C28.3721 253.792 28.6561 252.201 29.5652 250.837C30.4742 249.531 31.7241 248.508 33.0877 247.997C35.4171 247.088 38.1442 247.258 40.36 248.735C42.5758 250.212 44.0529 252.485 44.5643 255.098C44.9052 256.746 44.7915 258.394 44.337 259.928C43.9393 260.78 43.5416 261.632 43.1439 262.428C43.0871 262.484 43.0871 262.541 43.0871 262.541C43.0303 262.655 42.9735 262.768 42.9735 262.882C42.2917 264.473 41.6099 266.007 41.0418 267.598C25.0768 268.45 10.4186 262.2 5.30525 259.7ZM36.5534 323.39C35.7012 316.174 30.4174 259.416 70.6423 232.657C70.5854 232.77 70.5286 232.827 70.5286 232.827L70.415 233.054L70.4718 233.282C70.6423 234.645 71.04 235.781 71.7217 236.804C71.1536 236.293 70.5854 236.122 70.0741 236.065C69.3355 235.952 68.7674 236.179 68.7674 236.179C68.7674 236.179 68.3697 236.634 68.1992 237.372C68.0288 238.111 68.1424 239.133 68.9946 240.327L72.4035 237.94C73.5966 239.418 75.1875 240.497 76.7783 241.349C68.2561 241.406 66.0403 246.576 65.9266 246.86L65.813 247.088L65.8698 247.315C66.8925 251.178 70.1309 253.224 73.3126 254.36C64.904 256.007 63.654 261.462 63.5972 261.746L63.5404 261.973L63.654 262.2C65.3585 265.836 68.9946 267.257 72.4035 267.768C64.6199 270.552 64.2222 276.006 64.2222 276.29V276.574L64.3358 276.802C66.5516 280.211 70.4718 281.12 73.8807 281.12C75.4715 281.12 76.9487 280.949 78.1418 280.722L72.9717 285.892C68.881 289.983 63.4836 290.437 60.8701 290.38C60.1883 289.301 57.9157 288.449 56.5522 288.335C54.9046 288.221 55.2455 289.358 55.1886 290.721C55.1318 292.085 54.6205 293.164 56.2681 293.278C57.5749 293.335 59.677 292.823 60.5861 291.971C60.8133 291.971 61.0974 291.971 61.4383 291.971C63.1427 291.971 65.5289 291.744 68.0856 290.835L61.6087 297.312C59.7906 296.8 56.4386 298.505 54.9046 299.982C53.1433 301.743 54.7909 302.425 56.1545 303.789C57.5749 305.209 58.2566 306.8 59.9611 305.039C61.4383 303.561 63.1427 300.153 62.6314 298.334L69.1083 291.858C68.0288 294.812 67.9152 297.596 67.972 299.3C67.1198 300.209 66.5516 302.368 66.6652 303.618C66.7789 305.266 67.8583 304.811 69.2219 304.698C70.5854 304.641 71.7217 304.982 71.6081 303.334C71.5513 301.971 70.6423 299.698 69.5628 299.016C69.506 296.346 69.9605 291.005 74.0512 286.915L79.2781 281.688C78.5963 285.438 78.085 292.369 83.1415 295.664L83.3688 295.778H83.6529C83.9369 295.778 89.3911 295.323 92.1751 287.596C92.6864 290.949 94.1068 294.642 97.7429 296.346L97.9702 296.46L98.1974 296.403C98.4815 296.346 103.993 295.153 105.583 286.687C106.72 289.869 108.765 293.108 112.628 294.13L112.856 294.187L113.083 294.073C113.367 293.96 118.48 291.801 118.594 283.222C119.389 284.813 120.526 286.347 121.946 287.54L119.56 290.949C120.753 291.858 121.776 291.914 122.514 291.744C123.253 291.574 123.707 291.176 123.707 291.176C123.707 291.176 123.935 290.608 123.821 289.869C123.764 289.415 123.537 288.846 123.082 288.278C124.105 288.903 125.298 289.358 126.662 289.528L126.889 289.585L127.116 289.471C100.413 329.469 43.7689 324.242 36.5534 323.39ZM96.8339 316.97C97.0043 316.97 97.1748 316.913 97.3452 316.856C97.5157 316.742 97.7429 316.629 97.9134 316.515C98.4247 316.288 98.936 316.061 99.4474 315.777C101.152 315.152 102.97 314.981 104.788 315.322C107.401 315.833 109.674 317.311 111.151 319.526C113.537 323.106 112.628 327.935 109.049 330.378C106.265 332.253 102.515 331.514 100.64 328.73C99.9587 327.708 99.6746 326.458 99.9019 325.208C100.129 323.958 100.868 322.935 101.89 322.197C102.686 321.685 103.652 321.458 104.561 321.629C105.47 321.799 106.322 322.367 106.833 323.163C107.231 323.731 107.401 324.469 107.231 325.151C107.117 325.833 106.72 326.458 106.095 326.855C105.64 327.14 105.129 327.253 104.618 327.14C104.106 327.026 103.652 326.742 103.368 326.287C103.14 326.003 103.084 325.606 103.14 325.265C103.197 324.924 103.424 324.583 103.708 324.356C104.163 324.072 104.731 324.185 105.015 324.583C105.129 324.697 105.129 324.867 105.129 325.037C105.072 325.208 105.015 325.322 104.902 325.378C104.504 325.662 104.39 326.174 104.674 326.571C104.958 326.969 105.47 327.083 105.867 326.799C106.379 326.458 106.72 325.946 106.833 325.322C106.947 324.697 106.833 324.072 106.492 323.56C105.64 322.31 103.993 322.026 102.743 322.822C102.061 323.276 101.55 324.015 101.436 324.81C101.265 325.662 101.436 326.458 101.89 327.196C102.459 328.049 103.311 328.56 104.277 328.787C105.242 328.958 106.265 328.787 107.061 328.219C108.026 327.537 108.708 326.571 108.935 325.378C109.163 324.242 108.935 323.049 108.254 322.026C106.606 319.583 103.311 318.958 100.868 320.606C99.4474 321.572 98.4815 323.049 98.1406 324.697C97.7997 326.401 98.1406 328.105 99.1065 329.526C100.64 331.742 103.084 332.992 105.583 332.992C107.061 332.992 108.481 332.594 109.788 331.742L100.3 354.752C97.5725 349.922 90.357 335.605 90.0729 319.47C92.4023 318.845 94.6181 317.936 96.8339 316.97ZM102.345 355.547L111.719 332.764C112.572 336.344 115.753 338.787 119.333 338.787C119.844 338.787 120.355 338.73 120.81 338.616C122.514 338.275 123.935 337.309 124.9 335.889C125.866 334.469 126.207 332.764 125.866 331.06C125.298 328.162 122.514 326.287 119.617 326.855C117.23 327.31 115.64 329.639 116.094 332.026C116.265 332.992 116.833 333.844 117.685 334.412C118.537 334.98 119.503 335.15 120.469 334.98C122.173 334.639 123.31 332.992 122.969 331.287C122.685 329.81 121.264 328.901 119.787 329.128C118.537 329.355 117.685 330.605 117.969 331.855C118.083 332.31 118.537 332.651 118.992 332.537C119.446 332.423 119.787 331.969 119.673 331.514C119.617 331.173 119.844 330.889 120.128 330.833C120.639 330.719 121.151 331.06 121.207 331.571C121.378 332.31 120.867 333.048 120.128 333.219C119.617 333.332 119.105 333.219 118.651 332.935C118.196 332.651 117.912 332.196 117.799 331.685C117.514 330.264 118.48 328.844 119.901 328.56C121.832 328.162 123.707 329.469 124.105 331.401C124.332 332.651 124.105 333.844 123.366 334.923C122.685 335.946 121.605 336.684 120.355 336.912C117.06 337.537 113.878 335.378 113.253 332.139C112.969 330.662 113.14 329.128 113.651 327.765L113.708 327.594C113.878 327.14 114.106 326.742 114.39 326.287C115.526 324.583 117.344 323.39 119.389 322.992C122.003 322.481 124.673 323.049 126.889 324.526C128.252 325.435 129.389 326.685 130.127 328.105C130.411 329.014 130.752 329.867 131.093 330.719C131.093 330.776 131.093 330.833 131.15 330.889C131.15 331.003 131.207 331.117 131.32 331.23C131.945 332.821 132.57 334.412 133.309 335.946C122.514 347.707 107.686 353.672 102.345 355.547ZM169.5 378.443C163.819 373.955 119.958 337.537 129.446 290.153C129.446 290.267 129.502 290.324 129.502 290.38L129.559 290.608L129.786 290.778C130.866 291.63 132.002 292.142 133.139 292.426C132.4 292.483 131.832 292.71 131.434 293.051C130.866 293.505 130.582 294.017 130.582 294.017C130.582 294.017 130.639 294.585 131.036 295.21C131.434 295.835 132.229 296.516 133.707 296.687L134.445 292.596C134.786 292.653 135.184 292.653 135.525 292.653C137.059 292.653 138.536 292.369 139.956 291.914C133.934 297.994 136.036 303.164 136.15 303.448L136.263 303.675L136.491 303.789C137.968 304.641 139.445 304.982 140.922 304.982C142.967 304.982 144.956 304.357 146.717 303.505C141.888 310.607 144.899 315.379 145.07 315.606L145.24 315.833L145.467 315.947C146.433 316.288 147.456 316.458 148.365 316.458C151.035 316.458 153.535 315.208 155.58 313.731C152.058 321.231 155.637 325.322 155.808 325.549L155.978 325.719L156.205 325.776C156.83 325.89 157.398 325.947 157.967 325.947C162.91 325.947 166.773 321.572 168.705 318.731V326.003C168.705 331.798 165.239 335.946 163.307 337.764C162.057 337.48 159.841 338.446 158.819 339.355C157.569 340.491 158.648 341.002 159.557 342.025C160.466 343.048 160.864 344.184 162.114 343.048C163.08 342.195 164.216 340.321 164.216 339.014C165.466 337.878 167.341 335.832 168.705 332.935V342.082C167.114 342.991 165.864 346.57 165.864 348.729C165.864 351.172 167.455 350.547 169.443 350.547C171.432 350.547 173.023 351.229 173.023 348.729C173.023 346.627 171.829 343.048 170.182 342.082V332.935C171.489 335.775 173.42 337.878 174.67 339.014C174.727 340.321 175.806 342.139 176.772 343.048C178.022 344.184 178.42 343.048 179.329 342.025C180.238 341.002 181.317 340.491 180.068 339.355C179.045 338.446 176.829 337.48 175.579 337.764C173.647 335.946 170.182 331.798 170.182 326.003V318.617C172.113 321.458 175.977 325.947 181.033 325.947C181.602 325.947 182.227 325.89 182.795 325.776L183.022 325.719L183.192 325.549C183.363 325.322 186.942 321.174 183.42 313.731C185.465 315.208 187.908 316.458 190.635 316.458C191.601 316.458 192.567 316.288 193.533 315.947L193.76 315.833L193.93 315.606C194.101 315.379 197.112 310.607 192.283 303.505C194.044 304.357 196.033 304.982 198.078 304.982C199.555 304.982 201.089 304.641 202.509 303.789L202.737 303.675L202.85 303.448C202.964 303.164 205.066 297.994 199.044 291.914C200.464 292.369 201.941 292.653 203.475 292.653C203.816 292.653 204.157 292.653 204.441 292.596L205.18 296.687C206.657 296.46 207.452 295.835 207.85 295.21C208.248 294.585 208.305 294.017 208.305 294.017C208.305 294.017 208.077 293.505 207.452 293.051C207.055 292.767 206.543 292.483 205.805 292.426C206.998 292.142 208.134 291.63 209.214 290.778L209.441 290.608L209.498 290.38C218.929 337.594 175.181 373.955 169.5 378.443ZM207.566 331.287C207.68 331.173 207.793 331.003 207.793 330.833C207.85 330.605 207.907 330.378 207.964 330.094C208.134 329.583 208.305 329.071 208.475 328.617C210.35 324.526 214.838 322.026 219.44 322.935C221.486 323.333 223.247 324.526 224.44 326.231C225.576 327.935 226.031 330.037 225.633 332.082C225.008 335.378 221.77 337.537 218.531 336.855C217.281 336.628 216.259 335.889 215.52 334.866C214.838 333.844 214.554 332.594 214.781 331.344C215.179 329.412 217.054 328.162 218.986 328.503C220.463 328.787 221.372 330.208 221.088 331.628C220.974 332.139 220.69 332.594 220.236 332.878C219.781 333.162 219.27 333.276 218.758 333.162C218.02 332.992 217.509 332.253 217.679 331.514C217.793 331.003 218.304 330.662 218.758 330.776C219.099 330.833 219.27 331.117 219.213 331.458C219.099 331.912 219.44 332.367 219.895 332.48C220.349 332.594 220.804 332.253 220.917 331.798C221.145 330.548 220.349 329.299 219.099 329.071C217.622 328.787 216.202 329.753 215.918 331.23C215.577 332.935 216.713 334.582 218.418 334.923C219.383 335.094 220.406 334.923 221.201 334.355C222.054 333.787 222.565 332.935 222.792 331.969C223.247 329.583 221.713 327.253 219.27 326.799C216.372 326.231 213.588 328.105 213.02 331.003C212.679 332.707 213.02 334.412 213.986 335.832C214.952 337.253 216.429 338.219 218.077 338.559C218.588 338.673 219.099 338.73 219.554 338.73C223.19 338.73 226.428 336.23 227.167 332.537L236.712 355.49C231.428 354.013 216.145 349.013 204.498 337.764C205.748 335.719 206.657 333.56 207.566 331.287ZM238.7 354.638L229.212 331.912C230.462 332.707 231.883 333.105 233.303 333.105C235.803 333.105 238.303 331.912 239.78 329.639C241.768 326.685 240.973 322.708 238.019 320.72C236.826 319.924 235.405 319.64 234.042 319.924C232.621 320.208 231.428 321.004 230.633 322.197C229.951 323.163 229.724 324.356 229.951 325.492C230.178 326.628 230.86 327.651 231.826 328.333C232.678 328.901 233.644 329.071 234.61 328.901C235.576 328.73 236.428 328.162 236.996 327.31C237.451 326.628 237.621 325.776 237.451 324.924C237.28 324.072 236.826 323.39 236.144 322.935C235.519 322.538 234.837 322.367 234.098 322.538C233.417 322.651 232.792 323.106 232.394 323.674C232.053 324.185 231.939 324.81 232.053 325.435C232.167 326.06 232.508 326.571 233.019 326.912C233.417 327.196 233.985 327.083 234.212 326.685C234.496 326.287 234.383 325.719 233.985 325.492C233.871 325.378 233.758 325.265 233.758 325.151C233.701 324.981 233.758 324.867 233.871 324.697C233.985 324.469 234.212 324.356 234.496 324.299C234.723 324.242 235.007 324.299 235.178 324.469C235.462 324.697 235.689 324.981 235.746 325.378C235.803 325.719 235.746 326.117 235.519 326.401C235.235 326.856 234.78 327.14 234.269 327.253C233.758 327.367 233.246 327.253 232.792 326.969C232.224 326.571 231.826 325.946 231.655 325.265C231.542 324.583 231.655 323.844 232.053 323.276C232.564 322.481 233.417 321.969 234.326 321.742C235.292 321.572 236.201 321.742 236.996 322.31C239.155 323.731 239.723 326.685 238.246 328.787C236.371 331.571 232.621 332.31 229.837 330.435C228.587 329.583 227.622 328.389 226.997 327.026L226.94 326.855C226.769 326.401 226.599 325.946 226.542 325.435C226.144 323.39 226.542 321.288 227.735 319.583C229.212 317.367 231.485 315.89 234.098 315.379C235.746 315.038 237.337 315.152 238.928 315.606C239.78 316.004 240.632 316.402 241.484 316.799C241.541 316.799 241.541 316.856 241.598 316.856C241.712 316.913 241.825 316.97 241.939 316.97C243.53 317.652 245.064 318.333 246.655 318.901C247.45 334.866 241.2 349.525 238.7 354.638ZM302.39 323.39C295.174 324.242 238.416 329.526 211.657 289.301C211.77 289.358 211.827 289.415 211.827 289.415L212.054 289.528L212.282 289.471C213.645 289.301 214.781 288.903 215.804 288.221C215.293 288.79 215.122 289.358 215.065 289.869C214.952 290.608 215.179 291.176 215.179 291.176C215.179 291.176 215.634 291.574 216.372 291.744C217.111 291.914 218.133 291.801 219.327 290.949L216.94 287.54C218.418 286.347 219.497 284.756 220.349 283.165C220.406 291.687 225.576 293.903 225.86 294.017L226.088 294.13L226.315 294.073C230.178 293.051 232.224 289.812 233.36 286.631C235.007 295.096 240.462 296.289 240.746 296.346L240.973 296.403L241.2 296.289C244.836 294.585 246.257 290.949 246.768 287.54C249.552 295.323 255.006 295.721 255.29 295.721H255.574L255.802 295.607C260.801 292.369 260.404 285.608 259.722 281.801L264.892 286.972C268.983 291.062 269.437 296.46 269.38 299.073C268.301 299.755 267.449 302.027 267.335 303.391C267.221 305.039 268.358 304.698 269.721 304.755C271.085 304.811 272.164 305.323 272.278 303.675C272.335 302.368 271.823 300.266 270.971 299.357C271.028 297.653 270.914 294.869 269.835 291.914L276.312 298.391C275.8 300.209 277.505 303.561 278.982 305.095C280.743 306.857 281.425 305.209 282.789 303.846C284.209 302.425 285.8 301.743 284.039 300.039C282.561 298.562 279.153 296.857 277.334 297.369L270.858 290.892C273.357 291.801 275.801 292.028 277.505 292.028C277.789 292.028 278.073 292.028 278.357 292.028C279.266 292.88 281.425 293.448 282.675 293.335C284.323 293.221 283.868 292.142 283.755 290.778C283.698 289.415 284.039 288.278 282.391 288.392C281.027 288.449 278.755 289.358 278.073 290.437C275.403 290.494 270.062 290.04 265.972 285.949L260.745 280.722C261.938 280.949 263.529 281.176 265.176 281.176C268.642 281.176 272.505 280.267 274.721 276.858L274.835 276.631V276.347C274.835 276.063 274.38 270.609 266.653 267.825C270.005 267.314 273.698 265.893 275.403 262.257L275.516 262.03L275.46 261.803C275.403 261.518 274.21 256.007 265.744 254.417C268.926 253.28 272.164 251.235 273.187 247.372L273.244 247.144L273.13 246.917C273.017 246.633 270.858 241.52 262.279 241.406C263.869 240.611 265.403 239.474 266.596 238.054L270.005 240.44C270.914 239.247 270.971 238.224 270.801 237.486C270.63 236.747 270.233 236.293 270.233 236.293C270.233 236.293 269.664 236.065 268.926 236.179C268.471 236.236 267.903 236.463 267.335 236.918C267.96 235.895 268.415 234.702 268.585 233.338L268.642 233.111L268.528 232.884C308.469 259.587 303.242 316.174 302.39 323.39ZM295.97 263.166C295.97 262.996 295.913 262.825 295.856 262.655C295.742 262.428 295.572 262.257 295.458 262.03C295.231 261.519 295.004 261.064 294.777 260.553C294.152 258.848 293.981 256.973 294.322 255.155C294.833 252.542 296.311 250.269 298.526 248.792C300.231 247.599 302.333 247.201 304.378 247.599C306.424 247.997 308.185 249.19 309.378 250.894C311.253 253.678 310.514 257.428 307.73 259.303C305.571 260.723 302.674 260.155 301.254 258.053C300.742 257.257 300.515 256.292 300.685 255.383C300.856 254.473 301.424 253.621 302.219 253.11C303.469 252.258 305.117 252.599 305.912 253.848C306.196 254.303 306.31 254.814 306.196 255.326C306.083 255.837 305.799 256.292 305.344 256.576C305.06 256.803 304.662 256.86 304.322 256.803C303.981 256.746 303.64 256.519 303.412 256.235C303.299 256.007 303.242 255.78 303.242 255.553C303.299 255.326 303.413 255.098 303.64 254.928C303.753 254.814 303.924 254.814 304.094 254.814C304.265 254.871 304.378 254.928 304.435 255.042C304.719 255.439 305.231 255.553 305.628 255.269C306.026 254.985 306.14 254.473 305.855 254.076C305.117 252.996 303.697 252.712 302.617 253.451C301.992 253.849 301.594 254.473 301.481 255.155C301.367 255.837 301.481 256.576 301.878 257.201C302.333 257.882 303.072 258.394 303.867 258.507C304.719 258.678 305.515 258.507 306.253 258.053C307.958 256.917 308.412 254.587 307.276 252.883C306.594 251.917 305.628 251.235 304.435 251.008C303.299 250.781 302.106 251.008 301.083 251.69C299.89 252.485 299.095 253.678 298.81 255.098C298.526 256.519 298.81 257.882 299.606 259.075C301.594 262.03 305.571 262.768 308.526 260.837C312.048 258.451 313.014 253.678 310.742 250.099L333.752 259.587C328.979 262.314 314.605 269.529 298.47 269.813C297.788 267.541 296.936 265.325 295.97 263.166ZM334.547 257.598L311.764 248.224C315.855 247.258 318.468 243.281 317.673 239.133C317.332 237.429 316.366 236.009 314.946 235.043C313.526 234.077 311.821 233.736 310.117 234.077C307.219 234.645 305.344 237.429 305.912 240.327C306.367 242.713 308.696 244.304 311.082 243.849C313.071 243.451 314.435 241.52 314.037 239.474C313.696 237.77 312.048 236.634 310.344 236.975C309.662 237.088 309.037 237.543 308.639 238.111C308.242 238.736 308.071 239.418 308.242 240.156C308.469 241.406 309.719 242.258 310.969 241.974C311.423 241.861 311.764 241.406 311.651 240.952C311.537 240.497 311.082 240.156 310.628 240.27C310.287 240.327 310.003 240.099 309.946 239.815C309.889 239.588 309.946 239.304 310.117 239.133C310.23 238.906 310.458 238.793 310.742 238.736C311.48 238.565 312.219 239.077 312.389 239.815C312.616 240.895 311.878 241.917 310.855 242.145C309.378 242.429 308.014 241.463 307.73 240.043C307.333 238.111 308.639 236.236 310.571 235.838C311.821 235.611 313.071 235.838 314.094 236.577C315.116 237.259 315.855 238.338 316.082 239.588C316.707 242.883 314.548 246.065 311.31 246.69C309.833 246.974 308.299 246.803 306.935 246.292L306.765 246.235C306.31 246.065 305.912 245.838 305.458 245.554C303.753 244.417 302.56 242.599 302.163 240.554C301.651 237.94 302.219 235.27 303.697 233.054C304.606 231.691 305.855 230.554 307.276 229.816C308.185 229.532 309.037 229.191 309.946 228.85C310.003 228.85 310.003 228.85 310.06 228.793C310.173 228.793 310.287 228.736 310.401 228.623C311.992 227.998 313.582 227.373 315.116 226.634C326.707 237.486 332.672 252.258 334.547 257.598ZM269.21 230.554C269.324 230.554 269.38 230.498 269.437 230.498L269.664 230.441L269.835 230.214C270.687 229.134 271.198 227.998 271.483 226.861C271.539 227.6 271.767 228.168 272.108 228.566C272.562 229.134 273.073 229.418 273.073 229.418C273.073 229.418 273.642 229.361 274.267 228.964C274.891 228.566 275.573 227.771 275.744 226.293L271.653 225.555C271.823 223.68 271.483 221.805 270.971 220.101C274.494 223.566 277.732 224.305 279.834 224.305C281.368 224.305 282.391 223.907 282.505 223.85L282.732 223.737L282.846 223.509C284.834 220.101 283.982 216.294 282.561 213.283C285.686 215.385 288.357 216.01 290.345 216.01C292.959 216.01 294.493 214.987 294.663 214.93L294.89 214.76L295.004 214.533C296.367 210.726 294.777 207.147 292.788 204.42C295.231 205.556 297.333 205.954 299.038 205.954C302.56 205.954 304.492 204.306 304.606 204.192L304.776 204.022L304.833 203.795C306.026 197.943 300.969 193.454 297.788 191.239H305.06C310.855 191.239 315.003 194.704 316.821 196.636C316.537 197.886 317.503 200.102 318.412 201.124C319.548 202.374 320.059 201.295 321.082 200.386C322.105 199.477 323.241 199.079 322.105 197.829C321.252 196.863 319.377 195.727 318.071 195.727C316.934 194.477 314.889 192.602 311.992 191.239H321.139C322.048 192.829 325.627 194.079 327.786 194.079C330.229 194.079 329.604 192.489 329.604 190.5C329.604 188.511 330.229 186.921 327.786 186.921C325.684 186.921 322.105 188.114 321.139 189.761H311.992C314.832 188.455 316.934 186.523 318.071 185.273C319.377 185.216 321.196 184.137 322.105 183.171C323.241 181.921 322.105 181.523 321.082 180.614C320.059 179.705 319.548 178.626 318.412 179.876C317.503 180.898 316.537 183.114 316.821 184.364C315.003 186.296 310.855 189.761 305.06 189.761H297.674C300.856 187.602 306.026 183.057 304.833 177.149L304.776 176.921L304.549 176.694C304.322 176.524 300.174 172.944 292.731 176.467C294.777 173.74 296.311 170.16 295.004 166.354L294.89 166.126L294.663 165.956C294.436 165.786 289.663 162.774 282.561 167.604C284.039 164.536 284.891 160.786 282.846 157.377L282.732 157.15L282.505 157.036C282.221 156.922 277.05 154.82 270.971 160.786C271.483 159.081 271.823 157.207 271.653 155.388L275.744 154.65C275.516 153.173 274.891 152.377 274.267 151.98C273.642 151.582 273.073 151.525 273.073 151.525C273.073 151.525 272.562 151.752 272.108 152.377C271.823 152.775 271.539 153.286 271.483 154.025C271.198 152.832 270.687 151.696 269.835 150.616L269.664 150.389L269.437 150.332C316.65 141.014 353.012 184.762 357.5 190.443C352.955 196.182 316.537 240.043 269.21 230.554Z" fill="white"/>
</svg>
